{
.appVersion = "1172";
DisplayStrings = (
"Á/Abreve ÂÀ/Amacron/Aogonek ÅÃ/Cacute/Ccaron Ç/Cdotaccent/Dcaron/Ddotbelow É/Ecaron Ê/Edotaccent/Eogonek/Etilde/Gdotaccent Í/Ibreve ÎÏÌ/Kcommaaccent/Lacute/Lcaron/Ncaron/Ncommaaccent/Ndotaccent ÑÓÔÖÒ/Ohungarumlaut/Omacron/Oogonek Õ/Racute/Rcaron/Rcommaaccent/Rdotbelow/Sacute/Scaron/Sdotbelow/Tcaron ÚÙ/Uhungarumlaut/Uogonek/Utilde/Wacute/Wcircumflex/Wdieresis/Wgrave Ý/Ycircumflex/Ydieresis/Ygrave/Ytilde/Zacute/Zcaron á/abreve â/amacron/aogonek å/aringacute/cacute/ccaron ç/ccircumflex/cdotaccent/ddotbelow é/ebreve/ecaron ê/edotaccent/edotbelow è/emacron/eogonek/etilde/fiveeighths/gbreve/gcircumflex/gdotaccent/hcircumflex íì/lcommaaccent/nacute/napostrophe/ncaron/ndotaccent ñóô/oe ò/ohungarumlaut/omacron/oneeighth ½¼/onethird õ/racute/rcaron/sacute/scaron/scircumflex/seveneighths/threeeighths ¾/twothirds ú/ubreve ûüù/uhungarumlaut/umacron/uni015E/uni0162/uni0163/uni01C4/uni01C5/uni01C6/uni0219/uogonek/utilde/wacute/wcircumflex/wdieresis/wgrave ý/ygrave/zacute/zcaron/zdotaccent",
"argument \012A x en\012\012nnonn\012nnenn",
"g/Eogonek/oogonek/aogonek/uogonek g\012\012t",
SO,
g,
ABCDEFGHIJKLMNOPQRSTUVWXYZabcdefghijklmnopqrstuvwxyz
);
classes = (
{
code = "Euro bar cent colon comma degree divide dollar eight equal five four greater less minus multiply nine numbersign one paragraph percent period periodcentered plus plusminus quotedbl quotesingle section semicolon seven six slash sterling three two underscore yen zero";
name = tnum1;
},
{
code = "Euro.tnum bar.tnum cent.tnum colon.tnum comma.tnum degree.tnum divide.tnum dollar.tnum eight.tnum equal.tnum five.tnum four.tnum greater.tnum less.tnum minus.tnum multiply.tnum nine.tnum numbersign.tnum one.tnum paragraph.tnum percent.tnum period.tnum periodcentered.tnum plus.tnum plusminus.tnum quotedbl.tnum quotesingle.tnum section.tnum semicolon.tnum seven.tnum six.tnum slash.tnum sterling.tnum three.tnum two.tnum underscore.tnum yen.tnum zero.tnum";
name = tnum2;
}
);

glyphs = (
{
glyphname = .notdef;
lastChange = "2018-10-22 19:21:51 +0000";
layers = (
{
layerId = master01;
paths = (
{
closed = 1;
nodes = (
"575 -260 LINE",
"575 970 LINE",
"50 970 LINE",
"50 -260 LINE"
);
},
{
closed = 1;
nodes = (
"485 779 LINE",
"485 -178 LINE",
"174 -178 LINE"
);
},
{
closed = 1;
nodes = (
"450 887 LINE",
"140 -70 LINE",
"140 887 LINE"
);
}
);
width = 625;
},
{
layerId = "FA6D65B5-4623-4FAC-A199-3F662257AC29";
paths = (
{
closed = 1;
nodes = (
"575 -260 LINE",
"575 970 LINE",
"50 970 LINE",
"50 -260 LINE"
);
},
{
closed = 1;
nodes = (
"485 779 LINE",
"485 -178 LINE",
"174 -178 LINE"
);
},
{
closed = 1;
nodes = (
"450 887 LINE",
"140 -70 LINE",
"140 887 LINE"
);
}
);
width = 625;
},
{
layerId = "AB50CDD9-E897-4D94-B806-C2DEA2F4ECD5";
width = 160;
}
);
},
{
glyphname = A;
lastChange = "2018-10-22 19:21:51 +0000";
layers = (
{
anchors = (
{
name = bottom;
position = "{598, 0}";
},
{
name = topcap;
position = "{365, 830}";
}
);
layerId = master01;
paths = (
{
closed = 1;
nodes = (
"527 100 LINE SMOOTH",
"536 76 OFFCURVE",
"538 65 OFFCURVE",
"538 56 CURVE SMOOTH",
"538 35 OFFCURVE",
"527 27 OFFCURVE",
"435 23 CURVE",
"435 0 LINE",
"753 0 LINE",
"753 23 LINE",
"683 28 OFFCURVE",
"668 38 OFFCURVE",
"651 84 CURVE SMOOTH",
"387 790 LINE",
"289 736 LINE",
"315 677 LINE",
"121 134 LINE SMOOTH",
"96 64 OFFCURVE",
"82 39 OFFCURVE",
"-24 23 CURVE",
"-24 0 LINE",
"257 0 LINE",
"257 23 LINE",
"190 33 OFFCURVE",
"154 49 OFFCURVE",
"154 85 CURVE SMOOTH",
"154 97 OFFCURVE",
"158 112 OFFCURVE",
"165 132 CURVE SMOOTH",
"337 614 LINE",
"341 614 LINE"
);
},
{
closed = 1;
nodes = (
"476 283 LINE",
"476 323 LINE",
"206 323 LINE",
"206 283 LINE"
);
}
);
width = 744;
},
{
layerId = "FA6D65B5-4623-4FAC-A199-3F662257AC29";
paths = (
{
closed = 1;
nodes = (
"482 114 LINE SMOOTH",
"488 98 OFFCURVE",
"491 84 OFFCURVE",
"491 74 CURVE SMOOTH",
"491 47 OFFCURVE",
"466 39 OFFCURVE",
"393 37 CURVE",
"393 0 LINE",
"805 0 LINE",
"805 37 LINE",
"732 42 OFFCURVE",
"716 52 OFFCURVE",
"697 98 CURVE SMOOTH",
"411 790 LINE",
"262 733 LINE",
"308 630 LINE",
"119 148 LINE SMOOTH",
"87 67 OFFCURVE",
"74 53 OFFCURVE",
"-20 37 CURVE",
"-20 0 LINE",
"290 0 LINE",
"290 37 LINE",
"207 49 OFFCURVE",
"177 65 OFFCURVE",
"177 99 CURVE SMOOTH",
"177 112 OFFCURVE",
"181 127 OFFCURVE",
"188 146 CURVE SMOOTH",
"330 516 LINE",
"334 516 LINE"
);
},
{
closed = 1;
nodes = (
"506 222 LINE",
"506 279 LINE",
"184 279 LINE",
"184 222 LINE"
);
}
);
width = 781;
},
{
anchors = (
{
name = bottom;
position = "{559, 0}";
},
{
name = top;
position = "{319, 800}";
}
);
layerId = "AB50CDD9-E897-4D94-B806-C2DEA2F4ECD5";
paths = (
{
closed = 1;
nodes = (
"178 0 LINE",
"-35 0 LINE",
"-35 8 LINE",
"21 13 LINE SMOOTH",
"54 16 OFFCURVE",
"64 23 OFFCURVE",
"75 53 CURVE SMOOTH",
"320 706 LINE",
"338 706 LINE",
"590 18 LINE",
"673 8 LINE",
"673 0 LINE",
"428 0 LINE",
"428 8 LINE",
"510 18 LINE",
"298 595 LINE",
"294 595 LINE",
"91 53 LINE SMOOTH",
"88 45 OFFCURVE",
"87 40 OFFCURVE",
"87 35 CURVE SMOOTH",
"87 20 OFFCURVE",
"95 15 OFFCURVE",
"117 13 CURVE SMOOTH",
"178 8 LINE"
);
},
{
closed = 1;
nodes = (
"435 290 LINE",
"435 274 LINE",
"168 274 LINE",
"168 290 LINE"
);
}
);
width = 658;
}
);
leftKerningGroup = A;
rightKerningGroup = A;
unicode = 0041;
},
{
glyphname = AE;
lastChange = "2018-10-22 19:21:51 +0000";
layers = (
{
layerId = master01;
paths = (
{
closed = 1;
nodes = (
"258 0 LINE",
"258 23 LINE",
"196 33 OFFCURVE",
"169 44 OFFCURVE",
"169 72 CURVE SMOOTH",
"169 87 OFFCURVE",
"176 106 OFFCURVE",
"190 132 CURVE SMOOTH",
"273 292 LINE",
"471 292 LINE",
"471 42 LINE",
"386 23 LINE",
"386 0 LINE",
"938 0 LINE",
"975 234 LINE",
"942 234 LINE",
"920 169 OFFCURVE",
"898 105 OFFCURVE",
"858 40 CURVE",
"576 40 LINE",
"576 367 LINE",
"755 367 LINE",
"774 327 OFFCURVE",
"786 287 OFFCURVE",
"792 247 CURVE",
"816 247 LINE",
"816 527 LINE",
"792 527 LINE",
"785 487 OFFCURVE",
"774 447 OFFCURVE",
"755 407 CURVE",
"576 407 LINE",
"576 730 LINE",
"863 730 LINE",
"896 673 OFFCURVE",
"919 607 OFFCURVE",
"935 550 CURVE",
"959 550 LINE",
"942 770 LINE",
"376 770 LINE",
"376 747 LINE",
"461 730 LINE",
"147 134 LINE SMOOTH",
"109 62 OFFCURVE",
"86 39 OFFCURVE",
"-22 23 CURVE",
"-22 0 LINE"
);
},
{
closed = 1;
nodes = (
"466 667 LINE",
"470 667 LINE",
"470 332 LINE",
"294 332 LINE"
);
}
);
width = 1029;
},
{
layerId = "FA6D65B5-4623-4FAC-A199-3F662257AC29";
paths = (
{
closed = 1;
nodes = (
"272 0 LINE",
"272 37 LINE",
"218 45 OFFCURVE",
"195 60 OFFCURVE",
"195 88 CURVE SMOOTH",
"195 103 OFFCURVE",
"203 122 OFFCURVE",
"215 146 CURVE SMOOTH",
"288 288 LINE",
"489 288 LINE",
"489 56 LINE",
"404 37 LINE",
"404 0 LINE",
"1011 0 LINE",
"1053 234 LINE",
"1001 234 LINE",
"978 169 OFFCURVE",
"953 116 OFFCURVE",
"910 57 CURVE",
"661 57 LINE",
"661 380 LINE",
"787 380 LINE",
"809 343 OFFCURVE",
"823 307 OFFCURVE",
"830 267 CURVE",
"872 267 LINE",
"872 547 LINE",
"830 547 LINE",
"823 507 OFFCURVE",
"809 471 OFFCURVE",
"787 434 CURVE",
"661 434 LINE",
"661 713 LINE",
"916 713 LINE",
"950 661 OFFCURVE",
"977 603 OFFCURVE",
"993 550 CURVE",
"1035 550 LINE",
"1016 770 LINE",
"384 770 LINE",
"384 743 LINE",
"446 725 LINE",
"142 148 LINE SMOOTH",
"102 72 OFFCURVE",
"75 52 OFFCURVE",
"-27 37 CURVE",
"-27 0 LINE"
);
},
{
closed = 1;
nodes = (
"485 667 LINE",
"489 667 LINE",
"489 342 LINE",
"316 342 LINE"
);
}
);
width = 1093;
},
{
layerId = "AB50CDD9-E897-4D94-B806-C2DEA2F4ECD5";
paths = (
{
closed = 1;
nodes = (
"172 0 LINE",
"-40 0 LINE",
"-38 8 LINE",
"19 13 LINE SMOOTH",
"53 16 OFFCURVE",
"64 23 OFFCURVE",
"82 53 CURVE SMOOTH",
"451 682 LINE",
"469 682 LINE",
"419 595 LINE",
"415 595 LINE",
"98 53 LINE SMOOTH",
"91 42 OFFCURVE",
"89 35 OFFCURVE",
"89 29 CURVE SMOOTH",
"89 18 OFFCURVE",
"97 15 OFFCURVE",
"114 13 CURVE SMOOTH",
"174 8 LINE"
);
},
{
closed = 1;
nodes = (
"491 290 LINE",
"488 274 LINE",
"221 274 LINE",
"224 290 LINE"
);
},
{
closed = 1;
nodes = (
"496 12 LINE",
"660 12 LINE SMOOTH",
"692 12 OFFCURVE",
"703 19 OFFCURVE",
"715 49 CURVE SMOOTH",
"781 211 LINE",
"792 210 LINE",
"767 0 LINE",
"337 0 LINE",
"337 8 LINE",
"419 16 LINE",
"419 674 LINE",
"337 682 LINE",
"337 690 LINE",
"768 690 LINE",
"782 502 LINE",
"772 501 LINE",
"716 641 LINE SMOOTH",
"704 671 OFFCURVE",
"694 678 OFFCURVE",
"662 678 CURVE SMOOTH",
"496 678 LINE"
);
},
{
closed = 1;
nodes = (
"617 371 OFFCURVE",
"627 379 OFFCURVE",
"633 410 CURVE SMOOTH",
"650 491 LINE",
"662 491 LINE",
"662 235 LINE",
"650 235 LINE",
"633 316 LINE SMOOTH",
"627 347 OFFCURVE",
"617 355 OFFCURVE",
"585 355 CURVE SMOOTH",
"488 355 LINE",
"488 371 LINE",
"585 371 LINE SMOOTH"
);
}
);
width = 851;
}
);
leftKerningGroup = AE;
rightKerningGroup = E;
unicode = 00C6;
},
{
glyphname = Aogonek;
lastChange = "2018-10-22 19:21:51 +0000";
layers = (
{
components = (
{
alignment = -1;
name = A;
},
{
alignment = -1;
name = ogonek;
transform = "{1, 0, 0, 1, 464, 0}";
}
);
layerId = master01;
width = 744;
},
{
components = (
{
name = A;
},
{
name = ogonek;
transform = "{1, 0, 0, 1, 498, 0}";
}
);
layerId = "FA6D65B5-4623-4FAC-A199-3F662257AC29";
width = 781;
},
{
components = (
{
name = A;
transform = "{1, 0, 0, 1, -3, 0}";
}
);
layerId = "AB50CDD9-E897-4D94-B806-C2DEA2F4ECD5";
paths = (
{
closed = 1;
nodes = (
"598 -211 OFFCURVE",
"567 -226 OFFCURVE",
"528 -226 CURVE SMOOTH",
"473 -226 OFFCURVE",
"438 -196 OFFCURVE",
"438 -149 CURVE SMOOTH",
"438 -99 OFFCURVE",
"480 -42 OFFCURVE",
"552 9 CURVE",
"564 9 LINE",
"531 -23 OFFCURVE",
"499 -87 OFFCURVE",
"499 -132 CURVE SMOOTH",
"499 -175 OFFCURVE",
"523 -198 OFFCURVE",
"561 -198 CURVE SMOOTH",
"584 -198 OFFCURVE",
"604 -191 OFFCURVE",
"623 -173 CURVE",
"626 -178 LINE"
);
}
);
width = 653;
}
);
leftKerningGroup = A;
rightKerningGroup = A;
unicode = 0104;
},
{
glyphname = Aringacute;
lastChange = "2018-10-22 19:21:51 +0000";
layers = (
{
components = (
{
name = A;
}
);
layerId = master01;
paths = (
{
closed = 1;
nodes = (
"302 842 LINE",
"313 834 OFFCURVE",
"328 830 OFFCURVE",
"344 830 CURVE SMOOTH",
"378 830 OFFCURVE",
"404 851 OFFCURVE",
"412 882 CURVE",
"457 895 OFFCURVE",
"466 914 OFFCURVE",
"466 934 CURVE SMOOTH",
"466 958 OFFCURVE",
"442 969 OFFCURVE",
"422 969 CURVE SMOOTH",
"408 969 OFFCURVE",
"397 965 OFFCURVE",
"385 958 CURVE",
"373 966 OFFCURVE",
"359 970 OFFCURVE",
"344 970 CURVE SMOOTH",
"304 970 OFFCURVE",
"274 940 OFFCURVE",
"274 900 CURVE SMOOTH",
"274 892 OFFCURVE",
"275 885 OFFCURVE",
"277 878 CURVE",
"234 846 LINE",
"245 825 LINE"
);
},
{
closed = 1;
nodes = (
"323 865 OFFCURVE",
"309 879 OFFCURVE",
"309 900 CURVE SMOOTH",
"309 921 OFFCURVE",
"323 935 OFFCURVE",
"344 935 CURVE SMOOTH",
"365 935 OFFCURVE",
"379 921 OFFCURVE",
"379 900 CURVE SMOOTH",
"379 879 OFFCURVE",
"365 865 OFFCURVE",
"344 865 CURVE SMOOTH"
);
}
);
width = 744;
},
{
components = (
{
name = A;
}
);
layerId = "FA6D65B5-4623-4FAC-A199-3F662257AC29";
paths = (
{
closed = 1;
nodes = (
"296 842 LINE",
"307 834 OFFCURVE",
"322 830 OFFCURVE",
"338 830 CURVE SMOOTH",
"372 830 OFFCURVE",
"398 851 OFFCURVE",
"406 882 CURVE",
"451 895 OFFCURVE",
"460 914 OFFCURVE",
"460 934 CURVE SMOOTH",
"460 958 OFFCURVE",
"436 969 OFFCURVE",
"416 969 CURVE SMOOTH",
"402 969 OFFCURVE",
"391 965 OFFCURVE",
"379 958 CURVE",
"367 966 OFFCURVE",
"353 970 OFFCURVE",
"338 970 CURVE SMOOTH",
"298 970 OFFCURVE",
"268 940 OFFCURVE",
"268 900 CURVE SMOOTH",
"268 892 OFFCURVE",
"269 885 OFFCURVE",
"271 878 CURVE",
"228 846 LINE",
"239 825 LINE"
);
},
{
closed = 1;
nodes = (
"326 880 OFFCURVE",
"318 888 OFFCURVE",
"318 900 CURVE SMOOTH",
"318 912 OFFCURVE",
"326 920 OFFCURVE",
"338 920 CURVE SMOOTH",
"350 920 OFFCURVE",
"358 912 OFFCURVE",
"358 900 CURVE SMOOTH",
"358 888 OFFCURVE",
"350 880 OFFCURVE",
"338 880 CURVE SMOOTH"
);
}
);
width = 781;
},
{
components = (
{
name = A;
},
{
name = ring;
transform = "{1, 0, 0, 1, 226, 165}";
}
);
layerId = "AB50CDD9-E897-4D94-B806-C2DEA2F4ECD5";
paths = (
{
closed = 1;
nodes = (
"382 941 LINE SMOOTH",
"387 956 OFFCURVE",
"398 962 OFFCURVE",
"413 962 CURVE SMOOTH",
"431 962 OFFCURVE",
"441 948 OFFCURVE",
"441 931 CURVE SMOOTH",
"441 918 OFFCURVE",
"431 909 OFFCURVE",
"405 876 CURVE SMOOTH",
"349 806 LINE",
"342 811 LINE"
);
}
);
width = 659;
}
);
leftKerningGroup = A;
rightKerningGroup = A;
unicode = 01FA;
},
{
glyphname = B;
lastChange = "2018-10-22 19:21:51 +0000";
layers = (
{
layerId = master01;
paths = (
{
closed = 1;
nodes = (
"49 747 LINE",
"134 728 LINE",
"134 42 LINE",
"49 23 LINE",
"49 0 LINE",
"362 0 LINE SMOOTH",
"471 0 OFFCURVE",
"532 15 OFFCURVE",
"578 52 CURVE SMOOTH",
"620 87 OFFCURVE",
"645 143 OFFCURVE",
"645 204 CURVE SMOOTH",
"645 313 OFFCURVE",
"566 395 OFFCURVE",
"446 408 CURVE",
"446 412 LINE",
"552 434 OFFCURVE",
"611 496 OFFCURVE",
"611 583 CURVE SMOOTH",
"611 642 OFFCURVE",
"583 696 OFFCURVE",
"536 729 CURVE SMOOTH",
"495 757 OFFCURVE",
"437 770 OFFCURVE",
"345 770 CURVE SMOOTH",
"49 770 LINE"
);
},
{
closed = 1;
nodes = (
"325 730 LINE SMOOTH",
"398 730 OFFCURVE",
"433 720 OFFCURVE",
"462 690 CURVE SMOOTH",
"488 663 OFFCURVE",
"499 633 OFFCURVE",
"499 586 CURVE SMOOTH",
"499 495 OFFCURVE",
"458 440 OFFCURVE",
"385 432 CURVE SMOOTH",
"363 430 OFFCURVE",
"340 429 OFFCURVE",
"301 429 CURVE SMOOTH",
"239 429 LINE",
"239 730 LINE"
);
},
{
closed = 1;
nodes = (
"464 389 OFFCURVE",
"529 333 OFFCURVE",
"529 213 CURVE SMOOTH",
"529 93 OFFCURVE",
"465 38 OFFCURVE",
"327 38 CURVE SMOOTH",
"259 38 OFFCURVE",
"239 51 OFFCURVE",
"239 98 CURVE SMOOTH",
"239 389 LINE",
"324 389 LINE"
);
}
);
width = 699;
},
{
layerId = "FA6D65B5-4623-4FAC-A199-3F662257AC29";
paths = (
{
closed = 1;
nodes = (
"42 733 LINE",
"127 712 LINE",
"127 59 LINE",
"42 37 LINE",
"42 0 LINE",
"397 0 LINE SMOOTH",
"517 0 OFFCURVE",
"584 15 OFFCURVE",
"635 52 CURVE SMOOTH",
"681 87 OFFCURVE",
"709 143 OFFCURVE",
"709 204 CURVE SMOOTH",
"709 321 OFFCURVE",
"620 405 OFFCURVE",
"485 418 CURVE",
"485 422 LINE",
"604 443 OFFCURVE",
"671 502 OFFCURVE",
"671 583 CURVE SMOOTH",
"671 642 OFFCURVE",
"641 696 OFFCURVE",
"589 729 CURVE SMOOTH",
"544 757 OFFCURVE",
"480 770 OFFCURVE",
"379 770 CURVE SMOOTH",
"42 770 LINE"
);
},
{
closed = 1;
nodes = (
"317 716 LINE SMOOTH",
"374 716 OFFCURVE",
"417 705 OFFCURVE",
"446 682 CURVE SMOOTH",
"473 660 OFFCURVE",
"488 626 OFFCURVE",
"488 579 CURVE SMOOTH",
"488 497 OFFCURVE",
"443 448 OFFCURVE",
"363 440 CURVE SMOOTH",
"350 438 OFFCURVE",
"334 437 OFFCURVE",
"310 437 CURVE SMOOTH",
"299 437 LINE",
"299 716 LINE"
);
},
{
closed = 1;
nodes = (
"462 383 OFFCURVE",
"521 330 OFFCURVE",
"521 213 CURVE SMOOTH",
"521 103 OFFCURVE",
"475 53 OFFCURVE",
"376 53 CURVE SMOOTH",
"317 53 OFFCURVE",
"299 66 OFFCURVE",
"299 113 CURVE SMOOTH",
"299 383 LINE",
"336 383 LINE"
);
}
);
width = 751;
},
{
layerId = "AB50CDD9-E897-4D94-B806-C2DEA2F4ECD5";
paths = (
{
closed = 1;
nodes = (
"150 12 LINE",
"311 12 LINE SMOOTH",
"418 12 OFFCURVE",
"466 73 OFFCURVE",
"466 186 CURVE SMOOTH",
"466 310 OFFCURVE",
"410 359 OFFCURVE",
"311 359 CURVE SMOOTH",
"150 359 LINE",
"150 371 LINE",
"315 371 LINE SMOOTH",
"407 371 OFFCURVE",
"441 427 OFFCURVE",
"441 526 CURVE SMOOTH",
"441 626 OFFCURVE",
"392 678 OFFCURVE",
"286 678 CURVE SMOOTH",
"165 678 LINE",
"165 690 LINE",
"289 690 LINE SMOOTH",
"446 690 OFFCURVE",
"531 632 OFFCURVE",
"531 526 CURVE SMOOTH",
"531 442 OFFCURVE",
"478 382 OFFCURVE",
"382 368 CURVE",
"382 364 LINE",
"498 348 OFFCURVE",
"561 287 OFFCURVE",
"561 189 CURVE SMOOTH",
"561 93 OFFCURVE",
"500 0 OFFCURVE",
"335 0 CURVE SMOOTH",
"150 0 LINE"
);
},
{
closed = 1;
nodes = (
"40 690 LINE",
"199 690 LINE",
"199 0 LINE",
"40 0 LINE",
"40 8 LINE",
"122 16 LINE",
"122 674 LINE",
"40 682 LINE"
);
}
);
width = 615;
}
);
leftKerningGroup = I;
unicode = 0042;
},
{
glyphname = C;
lastChange = "2018-10-22 19:21:51 +0000";
layers = (
{
anchors = (
{
name = bottom;
position = "{433, 0}";
},
{
name = topcap;
position = "{433, 830}";
}
);
layerId = master01;
paths = (
{
closed = 1;
nodes = (
"56 149 OFFCURVE",
"203 -10 OFFCURVE",
"418 -10 CURVE SMOOTH",
"500 -10 OFFCURVE",
"567 13 OFFCURVE",
"638 66 CURVE",
"684 0 LINE",
"708 0 LINE",
"708 262 LINE",
"681 262 LINE",
"671 209 OFFCURVE",
"653 164 OFFCURVE",
"628 129 CURVE SMOOTH",
"585 67 OFFCURVE",
"520 35 OFFCURVE",
"440 35 CURVE SMOOTH",
"276 35 OFFCURVE",
"182 164 OFFCURVE",
"182 387 CURVE SMOOTH",
"182 610 OFFCURVE",
"274 736 OFFCURVE",
"439 736 CURVE SMOOTH",
"528 736 OFFCURVE",
"590 706 OFFCURVE",
"637 630 CURVE SMOOTH",
"652 605 OFFCURVE",
"666 576 OFFCURVE",
"678 540 CURVE",
"708 540 LINE",
"708 770 LINE",
"690 770 LINE",
"641 719 LINE",
"637 719 LINE",
"577 758 OFFCURVE",
"500 780 OFFCURVE",
"422 780 CURVE SMOOTH",
"208 780 OFFCURVE",
"56 614 OFFCURVE",
"56 380 CURVE SMOOTH"
);
}
);
width = 774;
},
{
layerId = "FA6D65B5-4623-4FAC-A199-3F662257AC29";
paths = (
{
closed = 1;
nodes = (
"45 148 OFFCURVE",
"204 -10 OFFCURVE",
"436 -10 CURVE SMOOTH",
"524 -10 OFFCURVE",
"597 13 OFFCURVE",
"675 66 CURVE",
"716 0 LINE",
"753 0 LINE",
"753 277 LINE",
"708 277 LINE",
"699 228 OFFCURVE",
"681 186 OFFCURVE",
"658 152 CURVE SMOOTH",
"613 87 OFFCURVE",
"545 50 OFFCURVE",
"463 50 CURVE SMOOTH",
"314 50 OFFCURVE",
"234 169 OFFCURVE",
"234 390 CURVE SMOOTH",
"234 609 OFFCURVE",
"313 721 OFFCURVE",
"467 721 CURVE SMOOTH",
"551 721 OFFCURVE",
"614 688 OFFCURVE",
"661 616 CURVE SMOOTH",
"678 591 OFFCURVE",
"692 560 OFFCURVE",
"705 525 CURVE",
"753 525 LINE",
"753 770 LINE",
"723 770 LINE",
"679 719 LINE",
"675 719 LINE",
"609 758 OFFCURVE",
"523 780 OFFCURVE",
"439 780 CURVE SMOOTH",
"208 780 OFFCURVE",
"45 614 OFFCURVE",
"45 380 CURVE SMOOTH"
);
}
);
width = 813;
},
{
anchors = (
{
name = bottom;
position = "{375, 0}";
},
{
name = top;
position = "{365, 800}";
}
);
layerId = "AB50CDD9-E897-4D94-B806-C2DEA2F4ECD5";
paths = (
{
closed = 1;
nodes = (
"566 113 OFFCURVE",
"587 176 OFFCURVE",
"600 232 CURVE",
"613 230 LINE",
"613 0 LINE",
"600 0 LINE",
"566 55 LINE",
"507 12 OFFCURVE",
"433 -16 OFFCURVE",
"367 -16 CURVE SMOOTH",
"190 -16 OFFCURVE",
"52 142 OFFCURVE",
"52 345 CURVE SMOOTH",
"52 547 OFFCURVE",
"190 706 OFFCURVE",
"365 706 CURVE SMOOTH",
"425 706 OFFCURVE",
"485 688 OFFCURVE",
"563 646 CURVE",
"587 694 LINE",
"600 694 LINE",
"610 469 LINE",
"596 465 LINE",
"587 515 OFFCURVE",
"572 559 OFFCURVE",
"552 592 CURVE SMOOTH",
"512 658 OFFCURVE",
"445 694 OFFCURVE",
"368 694 CURVE SMOOTH",
"226 694 OFFCURVE",
"148 567 OFFCURVE",
"148 345 CURVE SMOOTH",
"148 124 OFFCURVE",
"227 -2 OFFCURVE",
"367 -2 CURVE SMOOTH",
"428 -2 OFFCURVE",
"488 27 OFFCURVE",
"526 68 CURVE SMOOTH"
);
}
);
width = 676;
}
);
leftKerningGroup = C;
rightKerningGroup = C;
unicode = 0043;
},
{
glyphname = D;
lastChange = "2018-10-22 19:21:51 +0000";
layers = (
{
anchors = (
{
name = bottom;
position = "{410, 0}";
},
{
name = topcap;
position = "{410, 830}";
}
);
layerId = master01;
paths = (
{
closed = 1;
nodes = (
"484 0 OFFCURVE",
"547 17 OFFCURVE",
"605 59 CURVE SMOOTH",
"698 127 OFFCURVE",
"753 247 OFFCURVE",
"753 383 CURVE SMOOTH",
"753 514 OFFCURVE",
"702 628 OFFCURVE",
"612 697 CURVE SMOOTH",
"542 750 OFFCURVE",
"457 770 OFFCURVE",
"298 770 CURVE SMOOTH",
"49 770 LINE",
"49 747 LINE",
"134 728 LINE",
"134 42 LINE",
"49 23 LINE",
"49 0 LINE",
"384 0 LINE"
);
},
{
closed = 1;
nodes = (
"264 38 OFFCURVE",
"239 52 OFFCURVE",
"239 98 CURVE SMOOTH",
"239 730 LINE",
"318 730 LINE SMOOTH",
"430 730 OFFCURVE",
"492 710 OFFCURVE",
"543 657 CURVE SMOOTH",
"599 598 OFFCURVE",
"628 508 OFFCURVE",
"628 395 CURVE SMOOTH",
"628 283 OFFCURVE",
"599 185 OFFCURVE",
"546 119 CURVE SMOOTH",
"498 61 OFFCURVE",
"441 38 OFFCURVE",
"343 38 CURVE SMOOTH"
);
}
);
width = 810;
},
{
layerId = "FA6D65B5-4623-4FAC-A199-3F662257AC29";
paths = (
{
closed = 1;
nodes = (
"525 0 OFFCURVE",
"598 17 OFFCURVE",
"664 59 CURVE SMOOTH",
"766 124 OFFCURVE",
"832 246 OFFCURVE",
"832 386 CURVE SMOOTH",
"832 522 OFFCURVE",
"770 632 OFFCURVE",
"672 697 CURVE SMOOTH",
"591 751 OFFCURVE",
"488 770 OFFCURVE",
"314 770 CURVE SMOOTH",
"41 770 LINE",
"41 733 LINE",
"127 714 LINE",
"127 57 LINE",
"41 38 LINE",
"41 0 LINE",
"412 0 LINE"
);
},
{
closed = 1;
nodes = (
"328 54 OFFCURVE",
"299 72 OFFCURVE",
"299 114 CURVE SMOOTH",
"299 714 LINE",
"389 714 LINE SMOOTH",
"474 714 OFFCURVE",
"535 691 OFFCURVE",
"575 642 CURVE SMOOTH",
"620 588 OFFCURVE",
"640 508 OFFCURVE",
"640 386 CURVE SMOOTH",
"640 262 OFFCURVE",
"620 174 OFFCURVE",
"575 121 CURVE SMOOTH",
"536 75 OFFCURVE",
"479 54 OFFCURVE",
"401 54 CURVE SMOOTH"
);
}
);
width = 878;
},
{
anchors = (
{
name = bottom;
position = "{318, 0}";
},
{
name = top;
position = "{318, 800}";
}
);
layerId = "AB50CDD9-E897-4D94-B806-C2DEA2F4ECD5";
paths = (
{
closed = 1;
nodes = (
"40 690 LINE",
"199 690 LINE",
"199 0 LINE",
"40 0 LINE",
"40 8 LINE",
"122 16 LINE",
"122 674 LINE",
"40 682 LINE"
);
},
{
closed = 1;
nodes = (
"306 690 LINE SMOOTH",
"398 690 OFFCURVE",
"467 673 OFFCURVE",
"519 637 CURVE SMOOTH",
"601 580 OFFCURVE",
"648 475 OFFCURVE",
"648 349 CURVE SMOOTH",
"648 222 OFFCURVE",
"600 113 OFFCURVE",
"519 54 CURVE SMOOTH",
"467 16 OFFCURVE",
"403 0 OFFCURVE",
"306 0 CURVE SMOOTH",
"148 0 LINE",
"148 12 LINE",
"297 12 LINE SMOOTH",
"404 12 OFFCURVE",
"448 27 OFFCURVE",
"483 71 CURVE SMOOTH",
"526 126 OFFCURVE",
"552 232 OFFCURVE",
"552 354 CURVE SMOOTH",
"552 472 OFFCURVE",
"528 566 OFFCURVE",
"483 619 CURVE SMOOTH",
"446 662 OFFCURVE",
"399 678 OFFCURVE",
"297 678 CURVE SMOOTH",
"148 678 LINE",
"148 690 LINE"
);
}
);
width = 704;
}
);
leftKerningGroup = I;
rightKerningGroup = D;
unicode = 0044;
},
{
glyphname = Dcroat;
lastChange = "2018-10-22 19:21:51 +0000";
layers = (
{
layerId = master01;
paths = (
{
closed = 1;
nodes = (
"485 0 OFFCURVE",
"548 17 OFFCURVE",
"606 59 CURVE SMOOTH",
"699 127 OFFCURVE",
"754 247 OFFCURVE",
"754 383 CURVE SMOOTH",
"754 514 OFFCURVE",
"703 628 OFFCURVE",
"613 697 CURVE SMOOTH",
"543 750 OFFCURVE",
"458 770 OFFCURVE",
"299 770 CURVE SMOOTH",
"50 770 LINE",
"50 747 LINE",
"135 728 LINE",
"135 429 LINE",
"56 429 LINE",
"56 364 LINE",
"135 364 LINE",
"135 42 LINE",
"50 23 LINE",
"50 0 LINE",
"385 0 LINE SMOOTH"
);
},
{
closed = 1;
nodes = (
"265 38 OFFCURVE",
"240 52 OFFCURVE",
"240 98 CURVE SMOOTH",
"240 364 LINE",
"363 364 LINE",
"363 429 LINE",
"240 429 LINE",
"240 730 LINE",
"319 730 LINE SMOOTH",
"431 730 OFFCURVE",
"493 710 OFFCURVE",
"544 657 CURVE SMOOTH",
"600 598 OFFCURVE",
"629 508 OFFCURVE",
"629 395 CURVE SMOOTH",
"629 283 OFFCURVE",
"600 185 OFFCURVE",
"547 119 CURVE SMOOTH",
"499 61 OFFCURVE",
"442 38 OFFCURVE",
"344 38 CURVE SMOOTH"
);
}
);
width = 811;
},
{
layerId = "FA6D65B5-4623-4FAC-A199-3F662257AC29";
paths = (
{
closed = 1;
nodes = (
"525 0 OFFCURVE",
"598 17 OFFCURVE",
"664 59 CURVE SMOOTH",
"766 124 OFFCURVE",
"832 246 OFFCURVE",
"832 386 CURVE SMOOTH",
"832 522 OFFCURVE",
"770 632 OFFCURVE",
"672 697 CURVE SMOOTH",
"591 751 OFFCURVE",
"488 770 OFFCURVE",
"314 770 CURVE SMOOTH",
"41 770 LINE",
"41 733 LINE",
"127 714 LINE",
"127 439 LINE",
"52 439 LINE",
"52 354 LINE",
"127 354 LINE",
"127 57 LINE",
"41 38 LINE",
"41 0 LINE",
"412 0 LINE SMOOTH"
);
},
{
closed = 1;
nodes = (
"328 54 OFFCURVE",
"299 72 OFFCURVE",
"299 114 CURVE SMOOTH",
"299 354 LINE",
"439 354 LINE",
"439 439 LINE",
"299 439 LINE",
"299 714 LINE",
"389 714 LINE SMOOTH",
"474 714 OFFCURVE",
"535 691 OFFCURVE",
"575 642 CURVE SMOOTH",
"620 588 OFFCURVE",
"640 508 OFFCURVE",
"640 386 CURVE SMOOTH",
"640 262 OFFCURVE",
"620 174 OFFCURVE",
"575 121 CURVE SMOOTH",
"536 75 OFFCURVE",
"479 54 OFFCURVE",
"401 54 CURVE SMOOTH"
);
}
);
width = 878;
},
{
components = (
{
name = D;
transform = "{1, 0, 0, 1, 11, 0}";
}
);
layerId = "AB50CDD9-E897-4D94-B806-C2DEA2F4ECD5";
paths = (
{
closed = 1;
nodes = (
"335 363 LINE",
"335 341 LINE",
"51 341 LINE",
"51 363 LINE"
);
}
);
width = 715;
}
);
leftKerningGroup = I;
rightKerningGroup = D;
unicode = 0110;
},
{
glyphname = E;
lastChange = "2018-10-22 19:21:51 +0000";
layers = (
{
anchors = (
{
name = bottom;
position = "{358, 0}";
},
{
name = topcap;
position = "{356, 830}";
}
);
layerId = master01;
paths = (
{
closed = 1;
nodes = (
"418 386 LINE",
"437 346 OFFCURVE",
"449 306 OFFCURVE",
"455 266 CURVE",
"479 266 LINE",
"479 546 LINE",
"455 546 LINE",
"448 506 OFFCURVE",
"437 466 OFFCURVE",
"418 426 CURVE",
"225 426 LINE",
"225 386 LINE"
);
},
{
closed = 1;
nodes = (
"559 673 OFFCURVE",
"582 607 OFFCURVE",
"598 550 CURVE",
"622 550 LINE",
"605 770 LINE",
"49 770 LINE",
"49 747 LINE",
"134 728 LINE",
"134 42 LINE",
"49 23 LINE",
"49 0 LINE",
"601 0 LINE",
"638 234 LINE",
"605 234 LINE",
"583 169 OFFCURVE",
"561 105 OFFCURVE",
"521 40 CURVE",
"239 40 LINE",
"239 730 LINE",
"526 730 LINE"
);
}
);
width = 692;
},
{
layerId = "FA6D65B5-4623-4FAC-A199-3F662257AC29";
paths = (
{
closed = 1;
nodes = (
"425 380 LINE",
"446 343 OFFCURVE",
"460 304 OFFCURVE",
"468 267 CURVE",
"510 267 LINE",
"510 547 LINE",
"468 547 LINE",
"460 510 OFFCURVE",
"447 471 OFFCURVE",
"425 434 CURVE",
"283 434 LINE",
"283 380 LINE"
);
},
{
closed = 1;
nodes = (
"588 661 OFFCURVE",
"613 602 OFFCURVE",
"631 550 CURVE",
"673 550 LINE",
"654 770 LINE",
"42 770 LINE",
"42 733 LINE",
"127 714 LINE",
"127 56 LINE",
"42 37 LINE",
"42 0 LINE",
"649 0 LINE",
"691 234 LINE",
"639 234 LINE",
"615 175 OFFCURVE",
"591 116 OFFCURVE",
"548 57 CURVE",
"299 57 LINE",
"299 713 LINE",
"554 713 LINE"
);
}
);
width = 731;
},
{
anchors = (
{
name = bottom;
position = "{313, 0}";
},
{
name = top;
position = "{314, 800}";
}
);
layerId = "AB50CDD9-E897-4D94-B806-C2DEA2F4ECD5";
paths = (
{
closed = 1;
nodes = (
"199 12 LINE",
"423 12 LINE SMOOTH",
"455 12 OFFCURVE",
"466 19 OFFCURVE",
"478 49 CURVE SMOOTH",
"544 211 LINE",
"555 210 LINE",
"530 0 LINE",
"40 0 LINE",
"40 8 LINE",
"122 16 LINE",
"122 674 LINE",
"40 682 LINE",
"40 690 LINE",
"531 690 LINE",
"545 502 LINE",
"535 501 LINE",
"479 641 LINE SMOOTH",
"467 671 OFFCURVE",
"457 678 OFFCURVE",
"425 678 CURVE SMOOTH",
"199 678 LINE"
);
},
{
closed = 1;
nodes = (
"379 371 OFFCURVE",
"389 379 OFFCURVE",
"395 410 CURVE SMOOTH",
"412 491 LINE",
"424 491 LINE",
"424 235 LINE",
"412 235 LINE",
"395 316 LINE SMOOTH",
"389 347 OFFCURVE",
"379 355 OFFCURVE",
"347 355 CURVE SMOOTH",
"190 355 LINE",
"190 371 LINE",
"347 371 LINE SMOOTH"
);
}
);
width = 614;
}
);
leftKerningGroup = I;
rightKerningGroup = E;
unicode = 0045;
},
{
glyphname = Eng;
lastChange = "2018-10-22 19:21:51 +0000";
layers = (
{
layerId = master01;
paths = (
{
closed = 1;
nodes = (
"594 -48 LINE SMOOTH",
"594 -156 OFFCURVE",
"558 -208 OFFCURVE",
"512 -208 CURVE SMOOTH",
"486 -208 OFFCURVE",
"465 -192 OFFCURVE",
"451 -154 CURVE SMOOTH",
"440 -124 OFFCURVE",
"424 -108 OFFCURVE",
"396 -108 CURVE SMOOTH",
"360 -108 OFFCURVE",
"337 -133 OFFCURVE",
"337 -173 CURVE SMOOTH",
"337 -227 OFFCURVE",
"383 -260 OFFCURVE",
"457 -260 CURVE SMOOTH",
"539 -260 OFFCURVE",
"618 -215 OFFCURVE",
"665 -131 CURVE SMOOTH",
"694 -78 OFFCURVE",
"699 -41 OFFCURVE",
"699 155 CURVE",
"594 155 LINE"
);
},
{
closed = 1;
nodes = (
"45 23 LINE",
"45 0 LINE",
"264 0 LINE",
"264 23 LINE",
"175 42 LINE",
"175 770 LINE",
"45 770 LINE",
"45 747 LINE",
"135 728 LINE",
"135 42 LINE"
);
},
{
closed = 1;
nodes = (
"789 747 LINE",
"789 770 LINE",
"570 770 LINE",
"570 747 LINE",
"659 728 LINE",
"659 120 LINE",
"699 120 LINE",
"699 728 LINE"
);
},
{
closed = 1;
nodes = (
"680 175 LINE",
"247 770 LINE",
"152 770 LINE",
"147 706 LINE",
"668 -20 LINE"
);
}
);
width = 827;
},
{
layerId = "FA6D65B5-4623-4FAC-A199-3F662257AC29";
paths = (
{
closed = 1;
nodes = (
"586 -43 LINE SMOOTH",
"586 -151 OFFCURVE",
"554 -203 OFFCURVE",
"514 -203 CURVE SMOOTH",
"490 -203 OFFCURVE",
"473 -184 OFFCURVE",
"458 -139 CURVE SMOOTH",
"445 -103 OFFCURVE",
"426 -77 OFFCURVE",
"385 -77 CURVE SMOOTH",
"345 -77 OFFCURVE",
"313 -103 OFFCURVE",
"313 -153 CURVE SMOOTH",
"313 -218 OFFCURVE",
"374 -260 OFFCURVE",
"482 -260 CURVE SMOOTH",
"576 -260 OFFCURVE",
"671 -215 OFFCURVE",
"724 -131 CURVE",
"753 -78 OFFCURVE",
"758 -41 OFFCURVE",
"758 155 CURVE",
"586 155 LINE"
);
},
{
closed = 1;
nodes = (
"39 37 LINE",
"39 0 LINE",
"285 0 LINE",
"285 37 LINE",
"197 56 LINE",
"197 770 LINE",
"40 770 LINE",
"40 733 LINE",
"128 714 LINE",
"128 56 LINE"
);
},
{
closed = 1;
nodes = (
"847 733 LINE",
"847 770 LINE",
"601 770 LINE",
"601 733 LINE",
"689 714 LINE",
"689 140 LINE",
"758 140 LINE",
"758 714 LINE"
);
},
{
closed = 1;
nodes = (
"717 260 LINE",
"311 770 LINE",
"146 770 LINE",
"141 681 LINE",
"689 -10 LINE"
);
}
);
width = 877;
},
{
layerId = "AB50CDD9-E897-4D94-B806-C2DEA2F4ECD5";
paths = (
{
closed = 1;
nodes = (
"43 690 LINE",
"192 690 LINE",
"586 138 LINE",
"590 138 LINE",
"590 629 LINE SMOOTH",
"590 662 OFFCURVE",
"583 672 OFFCURVE",
"560 674 CURVE SMOOTH",
"479 682 LINE",
"479 690 LINE",
"718 690 LINE",
"718 682 LINE",
"646 674 LINE SMOOTH",
"614 670 OFFCURVE",
"606 661 OFFCURVE",
"606 629 CURVE SMOOTH",
"606 -14 LINE SMOOTH",
"606 -178 OFFCURVE",
"574 -246 OFFCURVE",
"496 -246 CURVE SMOOTH",
"439 -246 OFFCURVE",
"393 -210 OFFCURVE",
"393 -165 CURVE SMOOTH",
"393 -138 OFFCURVE",
"409 -121 OFFCURVE",
"435 -121 CURVE SMOOTH",
"461 -121 OFFCURVE",
"477 -138 OFFCURVE",
"477 -166 CURVE SMOOTH",
"477 -173 OFFCURVE",
"476 -188 OFFCURVE",
"476 -195 CURVE SMOOTH",
"476 -218 OFFCURVE",
"488 -230 OFFCURVE",
"509 -230 CURVE SMOOTH",
"561 -230 OFFCURVE",
"590 -161 OFFCURVE",
"590 -40 CURVE SMOOTH",
"590 -3 LINE",
"147 621 LINE",
"143 621 LINE",
"143 61 LINE SMOOTH",
"143 28 OFFCURVE",
"150 18 OFFCURVE",
"173 16 CURVE SMOOTH",
"244 8 LINE",
"244 0 LINE",
"25 0 LINE",
"25 8 LINE",
"97 16 LINE SMOOTH",
"120 18 OFFCURVE",
"127 28 OFFCURVE",
"127 61 CURVE SMOOTH",
"127 643 LINE",
"123 649 LINE SMOOTH",
"105 675 OFFCURVE",
"92 682 OFFCURVE",
"60 682 CURVE SMOOTH",
"43 682 LINE"
);
}
);
width = 734;
}
);
leftKerningGroup = N;
rightKerningGroup = N;
unicode = 014A;
},
{
glyphname = Eth;
lastChange = "2018-10-22 19:21:51 +0000";
layers = (
{
layerId = master01;
paths = (
{
closed = 1;
nodes = (
"485 0 OFFCURVE",
"548 17 OFFCURVE",
"606 59 CURVE SMOOTH",
"699 127 OFFCURVE",
"754 247 OFFCURVE",
"754 383 CURVE SMOOTH",
"754 514 OFFCURVE",
"703 628 OFFCURVE",
"613 697 CURVE SMOOTH",
"543 750 OFFCURVE",
"458 770 OFFCURVE",
"299 770 CURVE SMOOTH",
"50 770 LINE",
"50 747 LINE",
"135 728 LINE",
"135 429 LINE",
"56 429 LINE",
"56 364 LINE",
"135 364 LINE",
"135 42 LINE",
"50 23 LINE",
"50 0 LINE",
"385 0 LINE SMOOTH"
);
},
{
closed = 1;
nodes = (
"265 38 OFFCURVE",
"240 52 OFFCURVE",
"240 98 CURVE SMOOTH",
"240 364 LINE",
"363 364 LINE",
"363 429 LINE",
"240 429 LINE",
"240 730 LINE",
"319 730 LINE SMOOTH",
"431 730 OFFCURVE",
"493 710 OFFCURVE",
"544 657 CURVE SMOOTH",
"600 598 OFFCURVE",
"629 508 OFFCURVE",
"629 395 CURVE SMOOTH",
"629 283 OFFCURVE",
"600 185 OFFCURVE",
"547 119 CURVE SMOOTH",
"499 61 OFFCURVE",
"442 38 OFFCURVE",
"344 38 CURVE SMOOTH"
);
}
);
width = 811;
},
{
layerId = "FA6D65B5-4623-4FAC-A199-3F662257AC29";
paths = (
{
closed = 1;
nodes = (
"525 0 OFFCURVE",
"598 17 OFFCURVE",
"664 59 CURVE SMOOTH",
"766 124 OFFCURVE",
"832 246 OFFCURVE",
"832 386 CURVE SMOOTH",
"832 522 OFFCURVE",
"770 632 OFFCURVE",
"672 697 CURVE SMOOTH",
"591 751 OFFCURVE",
"488 770 OFFCURVE",
"314 770 CURVE SMOOTH",
"41 770 LINE",
"41 733 LINE",
"127 714 LINE",
"127 439 LINE",
"52 439 LINE",
"52 354 LINE",
"127 354 LINE",
"127 57 LINE",
"41 38 LINE",
"41 0 LINE",
"412 0 LINE SMOOTH"
);
},
{
closed = 1;
nodes = (
"328 54 OFFCURVE",
"299 72 OFFCURVE",
"299 114 CURVE SMOOTH",
"299 354 LINE",
"439 354 LINE",
"439 439 LINE",
"299 439 LINE",
"299 714 LINE",
"389 714 LINE SMOOTH",
"474 714 OFFCURVE",
"535 691 OFFCURVE",
"575 642 CURVE SMOOTH",
"620 588 OFFCURVE",
"640 508 OFFCURVE",
"640 386 CURVE SMOOTH",
"640 262 OFFCURVE",
"620 174 OFFCURVE",
"575 121 CURVE SMOOTH",
"536 75 OFFCURVE",
"479 54 OFFCURVE",
"401 54 CURVE SMOOTH"
);
}
);
width = 878;
},
{
components = (
{
name = D;
transform = "{1, 0, 0, 1, 11, 0}";
}
);
layerId = "AB50CDD9-E897-4D94-B806-C2DEA2F4ECD5";
paths = (
{
closed = 1;
nodes = (
"335 363 LINE",
"335 341 LINE",
"51 341 LINE",
"51 363 LINE"
);
}
);
width = 715;
}
);
leftKerningGroup = I;
rightKerningGroup = D;
unicode = 00D0;
},
{
glyphname = Euro;
lastChange = "2018-10-22 19:21:51 +0000";
layers = (
{
layerId = master01;
paths = (
{
closed = 1;
nodes = (
"500 -10 OFFCURVE",
"579 50 OFFCURVE",
"579 127 CURVE SMOOTH",
"579 167 OFFCURVE",
"559 189 OFFCURVE",
"524 189 CURVE SMOOTH",
"490 189 OFFCURVE",
"469 166 OFFCURVE",
"459 121 CURVE SMOOTH",
"447 63 OFFCURVE",
"422 31 OFFCURVE",
"380 31 CURVE SMOOTH",
"290 31 OFFCURVE",
"246 147 OFFCURVE",
"246 382 CURVE SMOOTH",
"246 621 OFFCURVE",
"291 739 OFFCURVE",
"385 739 CURVE SMOOTH",
"429 739 OFFCURVE",
"453 716 OFFCURVE",
"464 659 CURVE SMOOTH",
"472 615 OFFCURVE",
"493 591 OFFCURVE",
"525 591 CURVE SMOOTH",
"558 591 OFFCURVE",
"579 614 OFFCURVE",
"579 651 CURVE SMOOTH",
"579 722 OFFCURVE",
"501 780 OFFCURVE",
"403 780 CURVE SMOOTH",
"241 780 OFFCURVE",
"124 612 OFFCURVE",
"124 382 CURVE SMOOTH",
"124 153 OFFCURVE",
"238 -10 OFFCURVE",
"398 -10 CURVE SMOOTH {name = hr00;}"
);
},
{
closed = 1;
nodes = (
"496 465 LINE",
"65 465 LINE",
"55 421 LINE",
"486 421 LINE"
);
},
{
closed = 1;
nodes = (
"476 344 LINE",
"45 344 LINE",
"35 300 LINE",
"466 300 LINE"
);
}
);
width = 639;
},
{
layerId = "FA6D65B5-4623-4FAC-A199-3F662257AC29";
paths = (
{
closed = 1;
nodes = (
"499 -10 OFFCURVE",
"588 58 OFFCURVE",
"588 145 CURVE SMOOTH",
"588 186 OFFCURVE",
"568 207 OFFCURVE",
"533 207 CURVE SMOOTH",
"481 207 OFFCURVE",
"469 162 OFFCURVE",
"463 139 CURVE SMOOTH",
"452 97 OFFCURVE",
"436 49 OFFCURVE",
"386 49 CURVE SMOOTH",
"324 49 OFFCURVE",
"295 124 OFFCURVE",
"295 374 CURVE SMOOTH",
"295 649 OFFCURVE",
"330 720 OFFCURVE",
"397 720 CURVE SMOOTH",
"440 720 OFFCURVE",
"456 691 OFFCURVE",
"468 640 CURVE SMOOTH",
"475 609 OFFCURVE",
"490 572 OFFCURVE",
"534 572 CURVE SMOOTH",
"567 572 OFFCURVE",
"588 594 OFFCURVE",
"588 633 CURVE SMOOTH",
"588 714 OFFCURVE",
"500 780 OFFCURVE",
"395 780 CURVE SMOOTH",
"227 780 OFFCURVE",
"112 612 OFFCURVE",
"112 381 CURVE SMOOTH",
"112 153 OFFCURVE",
"224 -10 OFFCURVE",
"391 -10 CURVE SMOOTH {name = hr00;}"
);
},
{
closed = 1;
nodes = (
"495 475 LINE",
"64 475 LINE",
"54 411 LINE",
"485 411 LINE"
);
},
{
closed = 1;
nodes = (
"475 354 LINE",
"44 354 LINE",
"34 290 LINE",
"465 290 LINE"
);
}
);
width = 643;
},
{
layerId = "AB50CDD9-E897-4D94-B806-C2DEA2F4ECD5";
paths = (
{
closed = 1;
nodes = (
"417 420 LINE",
"56 420 LINE",
"51 398 LINE",
"412 398 LINE"
);
},
{
closed = 1;
nodes = (
"399 303 LINE",
"38 303 LINE",
"33 281 LINE",
"394 281 LINE"
);
},
{
closed = 1;
nodes = (
"400 694 OFFCURVE",
"420 674 OFFCURVE",
"439 607 CURVE SMOOTH",
"446 580 OFFCURVE",
"458 568 OFFCURVE",
"478 568 CURVE SMOOTH",
"500 568 OFFCURVE",
"516 584 OFFCURVE",
"516 607 CURVE SMOOTH",
"516 658 OFFCURVE",
"443 706 OFFCURVE",
"366 706 CURVE SMOOTH",
"222 706 OFFCURVE",
"110 549 OFFCURVE",
"110 346 CURVE SMOOTH",
"110 145 OFFCURVE",
"222 -16 OFFCURVE",
"363 -16 CURVE SMOOTH",
"439 -16 OFFCURVE",
"516 34 OFFCURVE",
"516 83 CURVE SMOOTH",
"516 106 OFFCURVE",
"500 122 OFFCURVE",
"478 122 CURVE SMOOTH",
"458 122 OFFCURVE",
"446 110 OFFCURVE",
"439 83 CURVE SMOOTH",
"420 18 OFFCURVE",
"398 -4 OFFCURVE",
"355 -4 CURVE SMOOTH",
"258 -4 OFFCURVE",
"206 118 OFFCURVE",
"206 344 CURVE SMOOTH",
"206 571 OFFCURVE",
"260 694 OFFCURVE",
"358 694 CURVE SMOOTH"
);
}
);
width = 575;
}
);
unicode = 20AC;
},
{
glyphname = Euro.tnum;
lastChange = "2018-10-22 19:27:20 +0000";
layers = (
{
layerId = master01;
paths = (
{
closed = 1;
nodes = (
"465 -10 OFFCURVE",
"544 50 OFFCURVE",
"544 127 CURVE SMOOTH",
"544 167 OFFCURVE",
"524 189 OFFCURVE",
"489 189 CURVE SMOOTH",
"455 189 OFFCURVE",
"434 166 OFFCURVE",
"424 121 CURVE SMOOTH",
"412 63 OFFCURVE",
"387 31 OFFCURVE",
"345 31 CURVE SMOOTH",
"255 31 OFFCURVE",
"211 147 OFFCURVE",
"211 382 CURVE SMOOTH",
"211 621 OFFCURVE",
"256 739 OFFCURVE",
"350 739 CURVE SMOOTH",
"394 739 OFFCURVE",
"418 716 OFFCURVE",
"429 659 CURVE SMOOTH",
"437 615 OFFCURVE",
"458 591 OFFCURVE",
"490 591 CURVE SMOOTH",
"523 591 OFFCURVE",
"544 614 OFFCURVE",
"544 651 CURVE SMOOTH",
"544 722 OFFCURVE",
"466 780 OFFCURVE",
"368 780 CURVE SMOOTH",
"206 780 OFFCURVE",
"89 612 OFFCURVE",
"89 382 CURVE SMOOTH",
"89 153 OFFCURVE",
"203 -10 OFFCURVE",
"363 -10 CURVE SMOOTH {name = hr00;}"
);
},
{
closed = 1;
nodes = (
"461 465 LINE",
"30 465 LINE",
"20 421 LINE",
"451 421 LINE"
);
},
{
closed = 1;
nodes = (
"441 344 LINE",
"10 344 LINE",
"0 300 LINE",
"431 300 LINE"
);
}
);
width = 600;
},
{
layerId = "FA6D65B5-4623-4FAC-A199-3F662257AC29";
paths = (
{
closed = 1;
nodes = (
"465 -10 OFFCURVE",
"554 58 OFFCURVE",
"554 145 CURVE SMOOTH",
"554 186 OFFCURVE",
"534 207 OFFCURVE",
"499 207 CURVE SMOOTH",
"447 207 OFFCURVE",
"435 162 OFFCURVE",
"429 139 CURVE SMOOTH",
"418 97 OFFCURVE",
"402 49 OFFCURVE",
"352 49 CURVE SMOOTH",
"290 49 OFFCURVE",
"261 124 OFFCURVE",
"261 374 CURVE SMOOTH",
"261 649 OFFCURVE",
"296 720 OFFCURVE",
"363 720 CURVE SMOOTH",
"406 720 OFFCURVE",
"422 691 OFFCURVE",
"434 640 CURVE SMOOTH",
"441 609 OFFCURVE",
"456 572 OFFCURVE",
"500 572 CURVE SMOOTH",
"533 572 OFFCURVE",
"554 594 OFFCURVE",
"554 633 CURVE SMOOTH",
"554 714 OFFCURVE",
"466 780 OFFCURVE",
"361 780 CURVE SMOOTH",
"193 780 OFFCURVE",
"78 612 OFFCURVE",
"78 381 CURVE SMOOTH",
"78 153 OFFCURVE",
"190 -10 OFFCURVE",
"357 -10 CURVE SMOOTH {name = hr00;}"
);
},
{
closed = 1;
nodes = (
"461 475 LINE",
"30 475 LINE",
"20 411 LINE",
"451 411 LINE"
);
},
{
closed = 1;
nodes = (
"441 354 LINE",
"10 354 LINE",
"0 290 LINE",
"431 290 LINE"
);
}
);
width = 600;
},
{
layerId = "AB50CDD9-E897-4D94-B806-C2DEA2F4ECD5";
width = 600;
}
);
userData = {
com.typemytype.robofont.mark = (
1,
0.6,
0.6,
1
);
};
},
{
glyphname = F;
lastChange = "2018-10-22 19:21:51 +0000";
layers = (
{
layerId = master01;
paths = (
{
closed = 1;
nodes = (
"559 673 OFFCURVE",
"582 607 OFFCURVE",
"598 550 CURVE",
"622 550 LINE",
"605 770 LINE",
"49 770 LINE",
"49 747 LINE",
"134 728 LINE",
"134 42 LINE",
"49 23 LINE",
"49 0 LINE",
"353 0 LINE",
"353 23 LINE",
"239 42 LINE",
"239 730 LINE",
"526 730 LINE"
);
},
{
closed = 1;
nodes = (
"418 386 LINE",
"437 346 OFFCURVE",
"449 306 OFFCURVE",
"455 266 CURVE",
"479 266 LINE",
"479 546 LINE",
"455 546 LINE",
"448 506 OFFCURVE",
"437 466 OFFCURVE",
"418 426 CURVE",
"225 426 LINE",
"225 386 LINE"
);
}
);
width = 650;
},
{
layerId = "FA6D65B5-4623-4FAC-A199-3F662257AC29";
paths = (
{
closed = 1;
nodes = (
"593 661 OFFCURVE",
"616 602 OFFCURVE",
"632 550 CURVE",
"671 550 LINE",
"654 770 LINE",
"42 770 LINE",
"42 733 LINE",
"127 714 LINE",
"127 56 LINE",
"42 37 LINE",
"42 0 LINE",
"412 0 LINE",
"412 37 LINE",
"298 56 LINE",
"298 713 LINE",
"560 713 LINE"
);
},
{
closed = 1;
nodes = (
"433 381 LINE",
"451 343 OFFCURVE",
"463 305 OFFCURVE",
"470 267 CURVE",
"509 267 LINE",
"509 547 LINE",
"470 547 LINE",
"463 509 OFFCURVE",
"452 472 OFFCURVE",
"433 434 CURVE",
"285 434 LINE",
"285 381 LINE"
);
}
);
width = 684;
},
{
layerId = "AB50CDD9-E897-4D94-B806-C2DEA2F4ECD5";
paths = (
{
closed = 1;
nodes = (
"199 16 LINE",
"297 8 LINE",
"297 0 LINE",
"40 0 LINE",
"40 8 LINE",
"122 16 LINE",
"122 674 LINE",
"40 682 LINE",
"40 690 LINE",
"508 690 LINE",
"524 491 LINE",
"516 490 LINE",
"456 641 LINE SMOOTH",
"444 671 OFFCURVE",
"434 678 OFFCURVE",
"402 678 CURVE SMOOTH",
"199 678 LINE"
);
},
{
closed = 1;
nodes = (
"376 371 OFFCURVE",
"386 379 OFFCURVE",
"392 410 CURVE SMOOTH",
"409 491 LINE",
"421 491 LINE",
"421 235 LINE",
"409 235 LINE",
"392 316 LINE SMOOTH",
"386 347 OFFCURVE",
"376 355 OFFCURVE",
"344 355 CURVE SMOOTH",
"187 355 LINE",
"187 371 LINE",
"344 371 LINE SMOOTH"
);
}
);
width = 554;
}
);
leftKerningGroup = I;
unicode = 0046;
},
{
glyphname = G;
lastChange = "2018-10-22 19:21:51 +0000";
layers = (
{
anchors = (
{
name = bottom;
position = "{427, 0}";
},
{
name = topcap;
position = "{437, 830}";
}
);
layerId = master01;
paths = (
{
closed = 1;
nodes = (
"780 363 LINE",
"780 386 LINE",
"496 386 LINE",
"496 363 LINE",
"586 344 LINE",
"586 149 LINE SMOOTH",
"586 115 OFFCURVE",
"584 107 OFFCURVE",
"578 97 CURVE SMOOTH",
"553 56 OFFCURVE",
"500 36 OFFCURVE",
"435 36 CURVE SMOOTH",
"266 36 OFFCURVE",
"183 149 OFFCURVE",
"183 376 CURVE SMOOTH",
"183 612 OFFCURVE",
"272 735 OFFCURVE",
"444 735 CURVE SMOOTH",
"555 735 OFFCURVE",
"615 685 OFFCURVE",
"679 540 CURVE",
"702 540 LINE",
"702 770 LINE",
"680 770 LINE",
"626 719 LINE",
"622 719 LINE",
"578 758 OFFCURVE",
"508 780 OFFCURVE",
"430 780 CURVE SMOOTH",
"214 780 OFFCURVE",
"55 608 OFFCURVE",
"55 376 CURVE SMOOTH",
"55 150 OFFCURVE",
"205 -10 OFFCURVE",
"418 -10 CURVE SMOOTH",
"521 -10 OFFCURVE",
"636 28 OFFCURVE",
"691 81 CURVE",
"691 344 LINE"
);
}
);
width = 808;
},
{
layerId = "FA6D65B5-4623-4FAC-A199-3F662257AC29";
paths = (
{
closed = 1;
nodes = (
"838 349 LINE",
"838 386 LINE",
"487 386 LINE",
"487 349 LINE",
"577 330 LINE",
"577 161 LINE SMOOTH",
"577 129 OFFCURVE",
"575 118 OFFCURVE",
"566 105 CURVE SMOOTH",
"542 70 OFFCURVE",
"492 48 OFFCURVE",
"434 48 CURVE SMOOTH",
"299 48 OFFCURVE",
"237 147 OFFCURVE",
"237 377 CURVE SMOOTH",
"237 607 OFFCURVE",
"312 720 OFFCURVE",
"464 720 CURVE SMOOTH",
"570 720 OFFCURVE",
"633 668 OFFCURVE",
"702 525 CURVE",
"747 525 LINE",
"747 770 LINE",
"715 770 LINE",
"671 719 LINE",
"667 719 LINE",
"618 757 OFFCURVE",
"535 780 OFFCURVE",
"446 780 CURVE SMOOTH",
"211 780 OFFCURVE",
"45 612 OFFCURVE",
"45 373 CURVE SMOOTH",
"45 143 OFFCURVE",
"200 -10 OFFCURVE",
"434 -10 CURVE SMOOTH",
"550 -10 OFFCURVE",
"686 29 OFFCURVE",
"749 81 CURVE",
"749 330 LINE"
);
}
);
width = 855;
},
{
anchors = (
{
name = top;
position = "{372, 800}";
}
);
layerId = "AB50CDD9-E897-4D94-B806-C2DEA2F4ECD5";
paths = (
{
closed = 1;
nodes = (
"456 345 LINE",
"687 345 LINE",
"687 337 LINE",
"605 329 LINE",
"605 68 LINE",
"533 1 OFFCURVE",
"417 -16 OFFCURVE",
"367 -16 CURVE SMOOTH",
"190 -16 OFFCURVE",
"52 142 OFFCURVE",
"52 345 CURVE SMOOTH",
"52 547 OFFCURVE",
"190 706 OFFCURVE",
"365 706 CURVE SMOOTH",
"423 706 OFFCURVE",
"483 688 OFFCURVE",
"559 646 CURVE",
"583 694 LINE",
"596 694 LINE",
"606 469 LINE",
"592 465 LINE",
"583 515 OFFCURVE",
"568 559 OFFCURVE",
"548 592 CURVE SMOOTH",
"508 658 OFFCURVE",
"443 694 OFFCURVE",
"368 694 CURVE SMOOTH",
"226 694 OFFCURVE",
"148 567 OFFCURVE",
"148 345 CURVE SMOOTH",
"148 122 OFFCURVE",
"227 -4 OFFCURVE",
"367 -4 CURVE SMOOTH",
"435 -4 OFFCURVE",
"496 30 OFFCURVE",
"528 77 CURVE",
"528 329 LINE",
"456 337 LINE"
);
}
);
width = 703;
}
);
leftKerningGroup = G;
rightKerningGroup = G;
unicode = 0047;
},
{
glyphname = H;
lastChange = "2018-10-22 19:21:51 +0000";
layers = (
{
anchors = (
{
name = bottom;
position = "{432, 0}";
},
{
name = topcap;
position = "{432, 830}";
}
);
layerId = master01;
paths = (
{
closed = 1;
nodes = (
"45 23 LINE",
"45 0 LINE",
"329 0 LINE",
"329 23 LINE",
"240 42 LINE",
"240 728 LINE",
"329 747 LINE",
"329 770 LINE",
"45 770 LINE",
"45 747 LINE",
"135 728 LINE",
"135 42 LINE"
);
},
{
closed = 1;
nodes = (
"528 23 LINE",
"528 0 LINE",
"812 0 LINE",
"812 21 LINE",
"723 42 LINE",
"723 728 LINE",
"812 745 LINE",
"812 770 LINE",
"528 770 LINE",
"528 747 LINE",
"618 728 LINE",
"618 42 LINE"
);
},
{
closed = 1;
nodes = (
"660 385 LINE",
"660 425 LINE",
"200 425 LINE",
"200 385 LINE"
);
}
);
width = 857;
},
{
layerId = "FA6D65B5-4623-4FAC-A199-3F662257AC29";
paths = (
{
closed = 1;
nodes = (
"42 37 LINE",
"42 0 LINE",
"383 0 LINE",
"383 37 LINE",
"299 58 LINE",
"299 713 LINE",
"383 733 LINE",
"383 770 LINE",
"42 770 LINE",
"42 733 LINE",
"127 713 LINE",
"127 58 LINE"
);
},
{
closed = 1;
nodes = (
"540 37 LINE",
"540 0 LINE",
"881 0 LINE",
"881 37 LINE",
"797 58 LINE",
"797 713 LINE",
"881 733 LINE",
"881 770 LINE",
"540 770 LINE",
"540 733 LINE",
"625 713 LINE",
"625 58 LINE"
);
},
{
closed = 1;
nodes = (
"725 378 LINE",
"725 435 LINE",
"201 435 LINE",
"201 378 LINE"
);
}
);
width = 923;
},
{
anchors = (
{
name = bottom;
position = "{368, 0}";
},
{
name = top;
position = "{368, 800}";
}
);
layerId = "AB50CDD9-E897-4D94-B806-C2DEA2F4ECD5";
paths = (
{
closed = 1;
nodes = (
"445 690 LINE",
"691 690 LINE",
"691 682 LINE",
"609 674 LINE",
"609 16 LINE",
"691 8 LINE",
"691 0 LINE",
"445 0 LINE",
"445 8 LINE",
"532 16 LINE",
"532 674 LINE",
"445 682 LINE"
);
},
{
closed = 1;
nodes = (
"40 690 LINE",
"286 690 LINE",
"286 682 LINE",
"199 674 LINE",
"199 16 LINE",
"286 8 LINE",
"286 0 LINE",
"40 0 LINE",
"40 8 LINE",
"122 16 LINE",
"122 674 LINE",
"40 682 LINE"
);
},
{
closed = 1;
nodes = (
"569 371 LINE",
"569 355 LINE",
"162 355 LINE",
"162 371 LINE"
);
}
);
width = 731;
}
);
leftKerningGroup = I;
rightKerningGroup = I;
unicode = 0048;
},
{
glyphname = Hbar;
lastChange = "2018-10-22 19:21:51 +0000";
layers = (
{
layerId = master01;
paths = (
{
closed = 1;
nodes = (
"45 23 LINE",
"45 0 LINE",
"329 0 LINE",
"329 23 LINE",
"240 42 LINE",
"240 385 LINE",
"618 385 LINE",
"618 42 LINE",
"528 23 LINE",
"528 0 LINE",
"812 0 LINE",
"812 21 LINE",
"723 42 LINE",
"723 547 LINE",
"813 547 LINE",
"813 612 LINE",
"723 612 LINE",
"723 728 LINE",
"812 745 LINE",
"812 770 LINE",
"528 770 LINE",
"528 747 LINE",
"618 728 LINE",
"618 612 LINE",
"240 612 LINE",
"240 728 LINE",
"329 747 LINE",
"329 770 LINE",
"45 770 LINE",
"45 747 LINE",
"135 728 LINE",
"135 612 LINE",
"55 612 LINE",
"55 547 LINE",
"135 547 LINE",
"135 42 LINE"
);
},
{
closed = 1;
nodes = (
"618 547 LINE",
"618 425 LINE",
"240 425 LINE",
"240 547 LINE"
);
}
);
width = 858;
},
{
layerId = "FA6D65B5-4623-4FAC-A199-3F662257AC29";
paths = (
{
closed = 1;
nodes = (
"43 37 LINE",
"43 0 LINE",
"384 0 LINE",
"384 37 LINE",
"300 58 LINE",
"300 378 LINE",
"626 378 LINE",
"626 58 LINE",
"541 37 LINE",
"541 0 LINE",
"882 0 LINE",
"882 37 LINE",
"798 58 LINE",
"798 537 LINE",
"875 537 LINE",
"875 612 LINE",
"798 612 LINE",
"798 713 LINE",
"882 733 LINE",
"882 770 LINE",
"541 770 LINE",
"541 733 LINE",
"626 713 LINE",
"626 612 LINE",
"300 612 LINE",
"300 713 LINE",
"384 733 LINE",
"384 770 LINE",
"43 770 LINE",
"43 733 LINE",
"128 713 LINE",
"128 612 LINE",
"53 612 LINE",
"53 537 LINE",
"128 537 LINE",
"128 58 LINE"
);
},
{
closed = 1;
nodes = (
"626 537 LINE",
"626 435 LINE",
"300 435 LINE",
"300 537 LINE"
);
}
);
width = 925;
},
{
components = (
{
name = H;
transform = "{1, 0, 0, 1, 6, 0}";
}
);
layerId = "AB50CDD9-E897-4D94-B806-C2DEA2F4ECD5";
paths = (
{
closed = 1;
nodes = (
"697 531 LINE",
"697 514 LINE",
"47 514 LINE",
"47 531 LINE"
);
}
);
width = 745;
}
);
leftKerningGroup = I;
rightKerningGroup = I;
unicode = 0126;
},
{
glyphname = I;
lastChange = "2018-10-22 19:21:51 +0000";
layers = (
{
anchors = (
{
name = bottom;
position = "{188, 0}";
},
{
name = topcap;
position = "{188, 830}";
}
);
layerId = master01;
paths = (
{
closed = 1;
nodes = (
"45 23 LINE",
"45 0 LINE",
"329 0 LINE",
"329 23 LINE",
"240 42 LINE",
"240 728 LINE",
"329 747 LINE",
"329 770 LINE",
"45 770 LINE",
"45 747 LINE",
"135 728 LINE",
"135 42 LINE"
);
}
);
width = 374;
},
{
layerId = "FA6D65B5-4623-4FAC-A199-3F662257AC29";
paths = (
{
closed = 1;
nodes = (
"42 37 LINE",
"42 0 LINE",
"383 0 LINE",
"383 37 LINE",
"299 58 LINE",
"299 713 LINE",
"383 733 LINE",
"383 770 LINE",
"42 770 LINE",
"42 733 LINE",
"127 713 LINE",
"127 58 LINE"
);
}
);
width = 425;
},
{
anchors = (
{
name = bottom;
position = "{161, 0}";
},
{
name = top;
position = "{161, 800}";
}
);
layerId = "AB50CDD9-E897-4D94-B806-C2DEA2F4ECD5";
paths = (
{
closed = 1;
nodes = (
"122 16 LINE",
"40 8 LINE",
"40 0 LINE",
"281 0 LINE",
"281 8 LINE",
"199 16 LINE",
"199 674 LINE",
"281 682 LINE",
"281 690 LINE",
"40 690 LINE",
"40 682 LINE",
"122 674 LINE"
);
}
);
width = 321;
}
);
leftKerningGroup = I;
rightKerningGroup = I;
unicode = 0049;
},
{
glyphname = J;
lastChange = "2018-10-22 19:21:51 +0000";
layers = (
{
anchors = (
{
name = topcap;
position = "{181, 830}";
}
);
layerId = master01;
paths = (
{
closed = 1;
nodes = (
"322 747 LINE",
"322 770 LINE",
"38 770 LINE",
"38 747 LINE",
"128 728 LINE",
"128 -48 LINE SMOOTH",
"128 -156 OFFCURVE",
"92 -208 OFFCURVE",
"46 -208 CURVE SMOOTH",
"20 -208 OFFCURVE",
"-1 -192 OFFCURVE",
"-15 -154 CURVE SMOOTH",
"-26 -124 OFFCURVE",
"-42 -108 OFFCURVE",
"-70 -108 CURVE SMOOTH",
"-106 -108 OFFCURVE",
"-129 -133 OFFCURVE",
"-129 -173 CURVE SMOOTH",
"-129 -227 OFFCURVE",
"-83 -260 OFFCURVE",
"-9 -260 CURVE SMOOTH",
"73 -260 OFFCURVE",
"152 -215 OFFCURVE",
"199 -131 CURVE SMOOTH",
"228 -78 OFFCURVE",
"233 -41 OFFCURVE",
"233 155 CURVE SMOOTH",
"233 728 LINE"
);
}
);
width = 362;
},
{
layerId = "FA6D65B5-4623-4FAC-A199-3F662257AC29";
paths = (
{
closed = 1;
nodes = (
"375 733 LINE",
"375 770 LINE",
"34 770 LINE",
"34 733 LINE",
"119 713 LINE",
"119 -43 LINE SMOOTH",
"119 -151 OFFCURVE",
"87 -203 OFFCURVE",
"47 -203 CURVE SMOOTH",
"23 -203 OFFCURVE",
"6 -184 OFFCURVE",
"-9 -139 CURVE SMOOTH",
"-22 -103 OFFCURVE",
"-41 -77 OFFCURVE",
"-82 -77 CURVE SMOOTH",
"-122 -77 OFFCURVE",
"-154 -103 OFFCURVE",
"-154 -153 CURVE SMOOTH",
"-154 -218 OFFCURVE",
"-93 -260 OFFCURVE",
"15 -260 CURVE SMOOTH",
"109 -260 OFFCURVE",
"204 -215 OFFCURVE",
"257 -131 CURVE",
"286 -78 OFFCURVE",
"291 -41 OFFCURVE",
"291 155 CURVE SMOOTH",
"291 713 LINE"
);
}
);
width = 409;
},
{
anchors = (
{
name = top;
position = "{173, 800}";
}
);
layerId = "AB50CDD9-E897-4D94-B806-C2DEA2F4ECD5";
paths = (
{
closed = 1;
nodes = (
"52 682 LINE",
"52 690 LINE",
"293 690 LINE",
"293 682 LINE",
"211 674 LINE",
"211 57 LINE SMOOTH",
"211 -30 OFFCURVE",
"202 -74 OFFCURVE",
"178 -109 CURVE SMOOTH",
"151 -147 OFFCURVE",
"105 -171 OFFCURVE",
"55 -171 CURVE SMOOTH",
"-7 -171 OFFCURVE",
"-54 -138 OFFCURVE",
"-54 -94 CURVE SMOOTH",
"-54 -67 OFFCURVE",
"-38 -50 OFFCURVE",
"-12 -50 CURVE SMOOTH",
"14 -50 OFFCURVE",
"30 -67 OFFCURVE",
"30 -95 CURVE SMOOTH",
"30 -102 OFFCURVE",
"29 -117 OFFCURVE",
"29 -124 CURVE SMOOTH",
"29 -147 OFFCURVE",
"41 -159 OFFCURVE",
"63 -159 CURVE SMOOTH",
"106 -159 OFFCURVE",
"134 -104 OFFCURVE",
"134 -20 CURVE SMOOTH",
"134 674 LINE"
);
}
);
width = 330;
}
);
leftKerningGroup = J;
rightKerningGroup = J;
unicode = 004A;
},
{
glyphname = K;
lastChange = "2018-10-22 19:21:51 +0000";
layers = (
{
anchors = (
{
name = bottom;
position = "{396, 0}";
}
);
layerId = master01;
paths = (
{
closed = 1;
nodes = (
"329 0 LINE",
"329 23 LINE",
"240 42 LINE",
"240 305 LINE",
"305 379 LINE",
"590 0 LINE",
"807 0 LINE",
"807 23 LINE",
"696 42 LINE",
"375 459 LINE",
"573 685 LINE SMOOTH",
"605 722 OFFCURVE",
"627 731 OFFCURVE",
"719 747 CURVE",
"719 770 LINE",
"455 770 LINE",
"455 747 LINE",
"514 743 OFFCURVE",
"539 734 OFFCURVE",
"539 717 CURVE SMOOTH",
"539 709 OFFCURVE",
"534 699 OFFCURVE",
"523 687 CURVE SMOOTH",
"240 370 LINE",
"240 728 LINE",
"329 747 LINE",
"329 770 LINE",
"45 770 LINE",
"45 747 LINE",
"135 728 LINE",
"135 42 LINE",
"45 23 LINE",
"45 0 LINE"
);
}
);
width = 783;
},
{
layerId = "FA6D65B5-4623-4FAC-A199-3F662257AC29";
paths = (
{
closed = 1;
nodes = (
"383 0 LINE",
"383 37 LINE",
"299 58 LINE",
"299 328 LINE",
"321 351 LINE",
"567 0 LINE",
"834 0 LINE",
"834 37 LINE",
"743 56 LINE",
"439 479 LINE",
"615 671 LINE SMOOTH",
"648 707 OFFCURVE",
"669 718 OFFCURVE",
"763 733 CURVE",
"763 770 LINE",
"476 770 LINE",
"476 734 LINE",
"527 732 OFFCURVE",
"553 724 OFFCURVE",
"553 705 CURVE SMOOTH",
"553 697 OFFCURVE",
"550 685 OFFCURVE",
"539 674 CURVE SMOOTH",
"299 416 LINE",
"299 713 LINE",
"383 733 LINE",
"383 770 LINE",
"42 770 LINE",
"42 733 LINE",
"127 713 LINE",
"127 58 LINE",
"42 37 LINE",
"42 0 LINE"
);
}
);
width = 807;
},
{
anchors = (
{
name = bottom;
position = "{335, 0}";
}
);
layerId = "AB50CDD9-E897-4D94-B806-C2DEA2F4ECD5";
paths = (
{
closed = 1;
nodes = (
"597 40 LINE SMOOTH",
"619 15 OFFCURVE",
"634 8 OFFCURVE",
"671 8 CURVE SMOOTH",
"675 8 LINE",
"675 0 LINE",
"526 0 LINE",
"252 361 LINE",
"304 423 LINE"
);
},
{
closed = 1;
nodes = (
"40 690 LINE",
"286 690 LINE",
"286 682 LINE",
"199 674 LINE",
"199 16 LINE",
"286 8 LINE",
"286 0 LINE",
"40 0 LINE",
"40 8 LINE",
"122 16 LINE",
"122 674 LINE",
"40 682 LINE"
);
},
{
closed = 1;
nodes = (
"409 690 LINE",
"613 690 LINE",
"613 682 LINE",
"535 669 OFFCURVE",
"521 662 OFFCURVE",
"491 628 CURVE SMOOTH",
"172 263 LINE",
"172 281 LINE",
"471 626 LINE SMOOTH",
"481 638 OFFCURVE",
"487 649 OFFCURVE",
"487 657 CURVE SMOOTH",
"487 670 OFFCURVE",
"472 675 OFFCURVE",
"409 682 CURVE"
);
}
);
width = 656;
}
);
leftKerningGroup = I;
rightKerningGroup = K;
unicode = 004B;
},
{
glyphname = L;
lastChange = "2018-10-22 19:21:51 +0000";
layers = (
{
anchors = (
{
name = bottom;
position = "{345, 0}";
},
{
name = topcap;
position = "{185, 830}";
}
);
layerId = master01;
paths = (
{
closed = 1;
nodes = (
"334 770 LINE",
"49 770 LINE",
"49 747 LINE",
"134 728 LINE",
"134 42 LINE",
"49 23 LINE",
"49 0 LINE",
"601 0 LINE",
"638 239 LINE",
"612 239 LINE",
"590 173 OFFCURVE",
"568 106 OFFCURVE",
"528 40 CURVE",
"239 40 LINE",
"239 728 LINE",
"334 747 LINE"
);
}
);
width = 656;
},
{
layerId = "FA6D65B5-4623-4FAC-A199-3F662257AC29";
paths = (
{
closed = 1;
nodes = (
"393 770 LINE",
"42 770 LINE",
"42 733 LINE",
"127 714 LINE",
"127 56 LINE",
"42 37 LINE",
"42 0 LINE",
"649 0 LINE",
"691 234 LINE",
"639 234 LINE",
"615 175 OFFCURVE",
"591 116 OFFCURVE",
"548 57 CURVE",
"299 57 LINE",
"299 713 LINE",
"393 733 LINE"
);
}
);
width = 699;
},
{
anchors = (
{
name = bottom;
position = "{300, 0}";
}
);
layerId = "AB50CDD9-E897-4D94-B806-C2DEA2F4ECD5";
paths = (
{
closed = 1;
nodes = (
"40 690 LINE",
"286 690 LINE",
"286 682 LINE",
"199 674 LINE",
"199 12 LINE",
"420 12 LINE SMOOTH",
"452 12 OFFCURVE",
"463 19 OFFCURVE",
"475 49 CURVE SMOOTH",
"543 220 LINE",
"555 218 LINE",
"530 0 LINE",
"40 0 LINE",
"40 8 LINE",
"122 16 LINE",
"122 674 LINE",
"40 682 LINE"
);
}
);
width = 583;
}
);
leftKerningGroup = I;
rightKerningGroup = L;
unicode = 004C;
},
{
glyphname = Lslash;
lastChange = "2018-10-22 19:21:51 +0000";
layers = (
{
components = (
{
name = L;
transform = "{1, 0, 0, 1, 1, 0}";
}
);
layerId = master01;
paths = (
{
closed = 1;
nodes = (
"335 519 LINE",
"59 371 LINE",
"59 306 LINE",
"335 454 LINE"
);
}
);
width = 657;
},
{
components = (
{
name = L;
transform = "{1, 0, 0, 1, 1, 0}";
}
);
layerId = "FA6D65B5-4623-4FAC-A199-3F662257AC29";
paths = (
{
closed = 1;
nodes = (
"373 537 LINE",
"61 371 LINE",
"61 276 LINE",
"373 442 LINE"
);
}
);
width = 700;
},
{
components = (
{
name = L;
}
);
layerId = "AB50CDD9-E897-4D94-B806-C2DEA2F4ECD5";
paths = (
{
closed = 1;
nodes = (
"40 253 LINE",
"40 271 LINE",
"316 431 LINE",
"316 412 LINE"
);
}
);
width = 583;
}
);
leftKerningGroup = I;
rightKerningGroup = L;
unicode = 0141;
},
{
glyphname = M;
lastChange = "2018-10-22 19:21:51 +0000";
layers = (
{
layerId = master01;
paths = (
{
closed = 1;
nodes = (
"45 23 LINE",
"45 0 LINE",
"264 0 LINE",
"264 23 LINE",
"175 42 LINE",
"175 660 LINE",
"179 660 LINE",
"458 -10 LINE",
"485 -10 LINE",
"769 656 LINE",
"773 656 LINE",
"773 42 LINE",
"683 23 LINE",
"683 0 LINE",
"967 0 LINE",
"967 23 LINE",
"878 42 LINE",
"878 728 LINE",
"967 747 LINE",
"967 770 LINE",
"758 770 LINE",
"509 177 LINE",
"504 177 LINE",
"255 770 LINE",
"45 770 LINE",
"45 747 LINE",
"135 728 LINE",
"135 42 LINE"
);
}
);
width = 1012;
},
{
layerId = "FA6D65B5-4623-4FAC-A199-3F662257AC29";
paths = (
{
closed = 1;
nodes = (
"39 37 LINE",
"39 0 LINE",
"285 0 LINE",
"285 37 LINE",
"197 56 LINE",
"197 621 LINE",
"201 621 LINE",
"472 -10 LINE",
"520 -10 LINE",
"771 594 LINE",
"775 594 LINE",
"775 58 LINE",
"690 37 LINE",
"690 0 LINE",
"1031 0 LINE",
"1031 37 LINE",
"947 58 LINE",
"947 713 LINE",
"1031 733 LINE",
"1031 770 LINE",
"774 770 LINE",
"557 254 LINE",
"551 254 LINE",
"343 770 LINE",
"40 770 LINE",
"40 733 LINE",
"128 714 LINE",
"128 56 LINE"
);
}
);
width = 1073;
},
{
layerId = "AB50CDD9-E897-4D94-B806-C2DEA2F4ECD5";
paths = (
{
closed = 1;
nodes = (
"34 690 LINE",
"205 690 LINE",
"451 103 LINE",
"455 103 LINE",
"675 690 LINE",
"697 690 LINE",
"672 625 LINE",
"668 625 LINE",
"427 -16 LINE",
"417 -16 LINE",
"148 626 LINE",
"144 626 LINE",
"136 634 LINE",
"136 645 LINE",
"123 675 OFFCURVE",
"112 682 OFFCURVE",
"80 682 CURVE SMOOTH",
"34 682 LINE"
);
},
{
closed = 1;
nodes = (
"144 61 LINE SMOOTH",
"144 29 OFFCURVE",
"150 19 OFFCURVE",
"174 16 CURVE SMOOTH",
"245 8 LINE",
"245 0 LINE",
"26 0 LINE",
"26 8 LINE",
"98 16 LINE SMOOTH",
"122 19 OFFCURVE",
"128 29 OFFCURVE",
"128 61 CURVE SMOOTH",
"128 678 LINE",
"144 678 LINE"
);
},
{
closed = 1;
nodes = (
"836 682 LINE",
"749 674 LINE",
"749 16 LINE",
"836 8 LINE",
"836 0 LINE",
"590 0 LINE",
"590 8 LINE",
"672 16 LINE",
"672 652 LINE",
"679 690 LINE",
"836 690 LINE"
);
}
);
width = 871;
}
);
leftKerningGroup = N;
rightKerningGroup = I;
unicode = 004D;
},
{
glyphname = N;
lastChange = "2018-10-22 19:21:51 +0000";
layers = (
{
anchors = (
{
name = bottom;
position = "{405, 0}";
},
{
name = topcap;
position = "{453, 830}";
}
);
layerId = master01;
paths = (
{
closed = 1;
nodes = (
"789 747 LINE",
"789 770 LINE",
"570 770 LINE",
"570 747 LINE",
"659 728 LINE",
"659 204 LINE",
"247 770 LINE",
"45 770 LINE",
"45 747 LINE",
"135 728 LINE",
"135 42 LINE",
"45 23 LINE",
"45 0 LINE",
"264 0 LINE",
"264 23 LINE",
"175 42 LINE",
"175 667 LINE",
"668 -20 LINE",
"699 -20 LINE",
"699 728 LINE"
);
}
);
width = 828;
},
{
layerId = "FA6D65B5-4623-4FAC-A199-3F662257AC29";
paths = (
{
closed = 1;
nodes = (
"847 733 LINE",
"847 770 LINE",
"601 770 LINE",
"601 733 LINE",
"689 714 LINE",
"689 295 LINE",
"311 770 LINE",
"40 770 LINE",
"40 733 LINE",
"128 714 LINE",
"128 56 LINE",
"39 37 LINE",
"39 0 LINE",
"285 0 LINE",
"285 37 LINE",
"197 56 LINE",
"197 610 LINE",
"689 -10 LINE",
"758 -10 LINE",
"758 714 LINE"
);
}
);
width = 878;
},
{
anchors = (
{
name = bottom;
position = "{376, 0}";
},
{
name = top;
position = "{376, 800}";
}
);
layerId = "AB50CDD9-E897-4D94-B806-C2DEA2F4ECD5";
paths = (
{
closed = 1;
nodes = (
"43 690 LINE",
"192 690 LINE",
"586 138 LINE",
"606 138 LINE",
"606 -16 LINE",
"596 -16 LINE",
"147 621 LINE",
"138 621 LINE",
"133 635 LINE",
"123 649 LINE SMOOTH",
"105 675 OFFCURVE",
"92 682 OFFCURVE",
"60 682 CURVE SMOOTH",
"43 682 LINE"
);
},
{
closed = 1;
nodes = (
"590 629 LINE SMOOTH",
"590 661 OFFCURVE",
"584 672 OFFCURVE",
"560 674 CURVE SMOOTH",
"479 682 LINE",
"479 690 LINE",
"718 690 LINE",
"718 682 LINE",
"646 674 LINE SMOOTH",
"614 670 OFFCURVE",
"606 661 OFFCURVE",
"606 629 CURVE SMOOTH",
"606 68 LINE",
"590 68 LINE"
);
},
{
closed = 1;
nodes = (
"143 61 LINE SMOOTH",
"143 29 OFFCURVE",
"149 19 OFFCURVE",
"173 16 CURVE SMOOTH",
"244 8 LINE",
"244 0 LINE",
"25 0 LINE",
"25 8 LINE",
"97 16 LINE SMOOTH",
"121 19 OFFCURVE",
"127 29 OFFCURVE",
"127 61 CURVE SMOOTH",
"127 662 LINE",
"143 664 LINE"
);
}
);
width = 734;
}
);
leftKerningGroup = N;
rightKerningGroup = N;
unicode = 004E;
},
{
glyphname = O;
lastChange = "2018-10-22 19:21:51 +0000";
layers = (
{
anchors = (
{
name = bottom;
position = "{419, 0}";
},
{
name = topcap;
position = "{419, 830}";
}
);
layerId = master01;
paths = (
{
closed = 1;
nodes = (
"211 780 OFFCURVE",
"55 610 OFFCURVE",
"55 385 CURVE SMOOTH",
"55 160 OFFCURVE",
"211 -10 OFFCURVE",
"418 -10 CURVE SMOOTH",
"625 -10 OFFCURVE",
"781 160 OFFCURVE",
"781 385 CURVE SMOOTH",
"781 610 OFFCURVE",
"625 780 OFFCURVE",
"418 780 CURVE SMOOTH"
);
},
{
closed = 1;
nodes = (
"181 605 OFFCURVE",
"270 735 OFFCURVE",
"419 735 CURVE SMOOTH",
"567 735 OFFCURVE",
"655 606 OFFCURVE",
"655 388 CURVE SMOOTH",
"655 167 OFFCURVE",
"566 35 OFFCURVE",
"418 35 CURVE SMOOTH",
"270 35 OFFCURVE",
"181 167 OFFCURVE",
"181 386 CURVE SMOOTH"
);
}
);
width = 836;
},
{
layerId = "FA6D65B5-4623-4FAC-A199-3F662257AC29";
paths = (
{
closed = 1;
nodes = (
"184 780 OFFCURVE",
"45 602 OFFCURVE",
"45 385 CURVE SMOOTH",
"45 168 OFFCURVE",
"184 -10 OFFCURVE",
"434 -10 CURVE SMOOTH",
"685 -10 OFFCURVE",
"824 168 OFFCURVE",
"824 385 CURVE SMOOTH",
"824 602 OFFCURVE",
"685 780 OFFCURVE",
"434 780 CURVE SMOOTH"
);
},
{
closed = 1;
nodes = (
"242 523 OFFCURVE",
"273 720 OFFCURVE",
"434 720 CURVE SMOOTH",
"598 720 OFFCURVE",
"627 523 OFFCURVE",
"627 385 CURVE SMOOTH",
"627 246 OFFCURVE",
"596 48 OFFCURVE",
"434 48 CURVE SMOOTH",
"273 48 OFFCURVE",
"242 246 OFFCURVE",
"242 385 CURVE SMOOTH"
);
}
);
width = 869;
},
{
anchors = (
{
name = bottom;
position = "{368, 0}";
},
{
name = top;
position = "{369, 800}";
}
);
layerId = "AB50CDD9-E897-4D94-B806-C2DEA2F4ECD5";
paths = (
{
closed = 1;
nodes = (
"190 706 OFFCURVE",
"52 548 OFFCURVE",
"52 345 CURVE SMOOTH",
"52 142 OFFCURVE",
"190 -16 OFFCURVE",
"367 -16 CURVE SMOOTH",
"544 -16 OFFCURVE",
"682 142 OFFCURVE",
"682 345 CURVE SMOOTH",
"682 548 OFFCURVE",
"544 706 OFFCURVE",
"367 706 CURVE SMOOTH"
);
},
{
closed = 1;
nodes = (
"148 568 OFFCURVE",
"227 694 OFFCURVE",
"367 694 CURVE SMOOTH",
"507 694 OFFCURVE",
"586 568 OFFCURVE",
"586 345 CURVE SMOOTH",
"586 123 OFFCURVE",
"507 -3 OFFCURVE",
"367 -3 CURVE SMOOTH",
"227 -3 OFFCURVE",
"148 123 OFFCURVE",
"148 345 CURVE SMOOTH"
);
}
);
width = 734;
}
);
leftKerningGroup = O;
rightKerningGroup = O;
unicode = 004F;
},
{
glyphname = OE;
lastChange = "2018-10-22 19:21:51 +0000";
layers = (
{
components = (
{
name = E;
transform = "{1, 0, 0, 1, 454, 0}";
}
);
layerId = master01;
paths = (
{
closed = 1;
nodes = (
"555 60 OFFCURVE",
"491 35 OFFCURVE",
"423 35 CURVE SMOOTH",
"270 35 OFFCURVE",
"181 163 OFFCURVE",
"181 386 CURVE SMOOTH",
"181 608 OFFCURVE",
"269 735 OFFCURVE",
"424 735 CURVE SMOOTH",
"505 735 OFFCURVE",
"574 700 OFFCURVE",
"612 640 CURVE",
"640 732 LINE",
"582 761 OFFCURVE",
"500 780 OFFCURVE",
"427 780 CURVE SMOOTH",
"211 780 OFFCURVE",
"55 615 OFFCURVE",
"55 385 CURVE SMOOTH",
"55 155 OFFCURVE",
"211 -10 OFFCURVE",
"427 -10 CURVE SMOOTH",
"498 -10 OFFCURVE",
"578 6 OFFCURVE",
"633 32 CURVE",
"594 102 LINE"
);
}
);
width = 1146;
},
{
components = (
{
name = E;
transform = "{1, 0, 0, 1, 441, 0}";
}
);
layerId = "FA6D65B5-4623-4FAC-A199-3F662257AC29";
paths = (
{
closed = 1;
nodes = (
"550 77 OFFCURVE",
"504 48 OFFCURVE",
"434 48 CURVE SMOOTH",
"273 48 OFFCURVE",
"242 246 OFFCURVE",
"242 385 CURVE SMOOTH",
"242 523 OFFCURVE",
"273 720 OFFCURVE",
"434 720 CURVE SMOOTH",
"511 720 OFFCURVE",
"558 685 OFFCURVE",
"586 637 CURVE",
"670 711 LINE",
"608 755 OFFCURVE",
"529 780 OFFCURVE",
"434 780 CURVE SMOOTH",
"184 780 OFFCURVE",
"45 602 OFFCURVE",
"45 385 CURVE SMOOTH",
"45 168 OFFCURVE",
"184 -10 OFFCURVE",
"434 -10 CURVE SMOOTH",
"526 -10 OFFCURVE",
"602 14 OFFCURVE",
"663 55 CURVE",
"579 118 LINE"
);
}
);
width = 1172;
},
{
layerId = "AB50CDD9-E897-4D94-B806-C2DEA2F4ECD5";
paths = (
{
closed = 1;
nodes = (
"190 706 OFFCURVE",
"52 548 OFFCURVE",
"52 345 CURVE SMOOTH",
"52 142 OFFCURVE",
"190 -16 OFFCURVE",
"367 -16 CURVE SMOOTH",
"412 -16 OFFCURVE",
"456 -10 OFFCURVE",
"495 0 CURVE",
"902 0 LINE",
"927 210 LINE",
"916 211 LINE",
"850 49 LINE SMOOTH",
"838 19 OFFCURVE",
"827 12 OFFCURVE",
"795 12 CURVE SMOOTH",
"571 12 LINE",
"571 355 LINE",
"719 355 LINE SMOOTH",
"751 355 OFFCURVE",
"761 347 OFFCURVE",
"767 316 CURVE SMOOTH",
"784 235 LINE",
"796 235 LINE",
"796 491 LINE",
"784 491 LINE",
"767 410 LINE SMOOTH",
"761 379 OFFCURVE",
"751 371 OFFCURVE",
"719 371 CURVE SMOOTH",
"571 371 LINE",
"571 678 LINE",
"797 678 LINE SMOOTH",
"829 678 OFFCURVE",
"839 671 OFFCURVE",
"851 641 CURVE SMOOTH",
"907 501 LINE",
"917 502 LINE",
"903 690 LINE",
"494 690 LINE",
"461 700 OFFCURVE",
"416 706 OFFCURVE",
"367 706 CURVE SMOOTH"
);
},
{
closed = 1;
nodes = (
"148 568 OFFCURVE",
"227 694 OFFCURVE",
"367 694 CURVE SMOOTH",
"417 694 OFFCURVE",
"460 680 OFFCURVE",
"494 649 CURVE",
"494 41 LINE",
"456 12 OFFCURVE",
"413 -3 OFFCURVE",
"367 -3 CURVE SMOOTH",
"227 -3 OFFCURVE",
"148 123 OFFCURVE",
"148 345 CURVE SMOOTH"
);
}
);
width = 985;
}
);
leftKerningGroup = O;
rightKerningGroup = E;
unicode = 0152;
},
{
glyphname = Oogonek;
lastChange = "2018-10-22 19:21:51 +0000";
layers = (
{
components = (
{
alignment = -1;
name = O;
},
{
alignment = -1;
name = ogonek;
transform = "{1, 0, 0, 1, 297, 0}";
}
);
layerId = master01;
width = 836;
},
{
components = (
{
name = O;
},
{
name = ogonek;
transform = "{1, 0, 0, 1, 291, 0}";
}
);
layerId = "FA6D65B5-4623-4FAC-A199-3F662257AC29";
width = 869;
},
{
components = (
{
name = O;
}
);
layerId = "AB50CDD9-E897-4D94-B806-C2DEA2F4ECD5";
paths = (
{
closed = 1;
nodes = (
"320 -52 OFFCURVE",
"280 -103 OFFCURVE",
"280 -149 CURVE SMOOTH",
"280 -196 OFFCURVE",
"315 -226 OFFCURVE",
"370 -226 CURVE SMOOTH",
"409 -226 OFFCURVE",
"440 -211 OFFCURVE",
"468 -178 CURVE",
"465 -173 LINE",
"446 -191 OFFCURVE",
"426 -198 OFFCURVE",
"403 -198 CURVE SMOOTH",
"365 -198 OFFCURVE",
"341 -175 OFFCURVE",
"341 -132 CURVE SMOOTH",
"341 -93 OFFCURVE",
"368 -41 OFFCURVE",
"398 -9 CURVE",
"389 -5 LINE"
);
}
);
width = 734;
}
);
unicode = 01EA;
},
{
glyphname = Oslash;
lastChange = "2018-10-22 19:21:51 +0000";
layers = (
{
layerId = master01;
paths = (
{
closed = 1;
nodes = (
"626 -10 OFFCURVE",
"782 160 OFFCURVE",
"782 385 CURVE SMOOTH",
"782 495 OFFCURVE",
"744 592 OFFCURVE",
"681 662 CURVE",
"774 770 LINE",
"718 770 LINE",
"651 692 LINE",
"589 747 OFFCURVE",
"509 780 OFFCURVE",
"419 780 CURVE SMOOTH",
"212 780 OFFCURVE",
"56 610 OFFCURVE",
"56 385 CURVE SMOOTH",
"56 277 OFFCURVE",
"92 181 OFFCURVE",
"152 111 CURVE",
"57 0 LINE",
"112 0 LINE",
"182 81 LINE",
"244 24 OFFCURVE",
"326 -10 OFFCURVE",
"419 -10 CURVE SMOOTH"
);
},
{
closed = 1;
nodes = (
"193 239 OFFCURVE",
"182 307 OFFCURVE",
"182 386 CURVE SMOOTH",
"182 605 OFFCURVE",
"271 735 OFFCURVE",
"420 735 CURVE SMOOTH",
"498 735 OFFCURVE",
"559 699 OFFCURVE",
"600 633 CURVE",
"215 185 LINE"
);
},
{
closed = 1;
nodes = (
"339 35 OFFCURVE",
"276 74 OFFCURVE",
"235 144 CURVE",
"621 592 LINE",
"644 537 OFFCURVE",
"656 469 OFFCURVE",
"656 388 CURVE SMOOTH",
"656 167 OFFCURVE",
"567 35 OFFCURVE",
"419 35 CURVE SMOOTH"
);
}
);
width = 837;
},
{
layerId = "FA6D65B5-4623-4FAC-A199-3F662257AC29";
paths = (
{
closed = 1;
nodes = (
"684 -10 OFFCURVE",
"823 168 OFFCURVE",
"823 385 CURVE SMOOTH",
"823 496 OFFCURVE",
"786 596 OFFCURVE",
"717 668 CURVE",
"805 770 LINE",
"727 770 LINE",
"673 707 LINE",
"611 752 OFFCURVE",
"530 780 OFFCURVE",
"433 780 CURVE SMOOTH",
"183 780 OFFCURVE",
"44 602 OFFCURVE",
"44 385 CURVE SMOOTH",
"44 273 OFFCURVE",
"81 171 OFFCURVE",
"151 99 CURVE",
"66 0 LINE",
"143 0 LINE",
"195 61 LINE",
"257 16 OFFCURVE",
"337 -10 OFFCURVE",
"433 -10 CURVE SMOOTH"
);
},
{
closed = 1;
nodes = (
"245 277 OFFCURVE",
"241 335 OFFCURVE",
"241 385 CURVE SMOOTH",
"241 523 OFFCURVE",
"272 720 OFFCURVE",
"433 720 CURVE SMOOTH",
"513 720 OFFCURVE",
"561 673 OFFCURVE",
"589 609 CURVE",
"258 223 LINE"
);
},
{
closed = 1;
nodes = (
"355 48 OFFCURVE",
"307 94 OFFCURVE",
"279 158 CURVE",
"610 543 LINE",
"622 491 OFFCURVE",
"626 434 OFFCURVE",
"626 385 CURVE SMOOTH",
"626 246 OFFCURVE",
"595 48 OFFCURVE",
"433 48 CURVE SMOOTH"
);
}
);
width = 867;
},
{
layerId = "AB50CDD9-E897-4D94-B806-C2DEA2F4ECD5";
paths = (
{
closed = 1;
nodes = (
"164 -75 LINE",
"141 -75 LINE",
"561 750 LINE",
"584 750 LINE"
);
},
{
closed = 1;
nodes = (
"544 706 OFFCURVE",
"682 548 OFFCURVE",
"682 345 CURVE SMOOTH",
"682 142 OFFCURVE",
"544 -16 OFFCURVE",
"367 -16 CURVE SMOOTH",
"190 -16 OFFCURVE",
"52 142 OFFCURVE",
"52 345 CURVE SMOOTH",
"52 548 OFFCURVE",
"190 706 OFFCURVE",
"367 706 CURVE SMOOTH"
);
},
{
closed = 1;
nodes = (
"148 123 OFFCURVE",
"227 -3 OFFCURVE",
"367 -3 CURVE SMOOTH",
"507 -3 OFFCURVE",
"586 123 OFFCURVE",
"586 345 CURVE SMOOTH",
"586 568 OFFCURVE",
"507 694 OFFCURVE",
"367 694 CURVE SMOOTH",
"227 694 OFFCURVE",
"148 568 OFFCURVE",
"148 345 CURVE SMOOTH"
);
}
);
width = 734;
}
);
leftKerningGroup = O;
rightKerningGroup = O;
unicode = 00D8;
},
{
glyphname = Oslashacute;
lastChange = "2018-10-22 19:21:51 +0000";
layers = (
{
components = (
{
name = acute.cap;
transform = "{1, 0, 0, 1, 307, 0}";
}
);
layerId = master01;
paths = (
{
closed = 1;
nodes = (
"626 -10 OFFCURVE",
"782 160 OFFCURVE",
"782 385 CURVE SMOOTH",
"782 495 OFFCURVE",
"744 592 OFFCURVE",
"681 662 CURVE",
"774 770 LINE",
"718 770 LINE",
"651 692 LINE",
"589 747 OFFCURVE",
"509 780 OFFCURVE",
"419 780 CURVE SMOOTH",
"212 780 OFFCURVE",
"56 610 OFFCURVE",
"56 385 CURVE SMOOTH",
"56 277 OFFCURVE",
"92 181 OFFCURVE",
"152 111 CURVE",
"57 0 LINE",
"112 0 LINE",
"182 81 LINE",
"244 24 OFFCURVE",
"326 -10 OFFCURVE",
"419 -10 CURVE SMOOTH"
);
},
{
closed = 1;
nodes = (
"193 239 OFFCURVE",
"182 307 OFFCURVE",
"182 386 CURVE SMOOTH",
"182 605 OFFCURVE",
"271 735 OFFCURVE",
"420 735 CURVE SMOOTH",
"498 735 OFFCURVE",
"559 699 OFFCURVE",
"600 633 CURVE",
"215 185 LINE"
);
},
{
closed = 1;
nodes = (
"339 35 OFFCURVE",
"276 74 OFFCURVE",
"235 144 CURVE",
"621 592 LINE",
"644 537 OFFCURVE",
"656 469 OFFCURVE",
"656 388 CURVE SMOOTH",
"656 167 OFFCURVE",
"567 35 OFFCURVE",
"419 35 CURVE SMOOTH"
);
}
);
width = 837;
},
{
components = (
{
name = acute.cap;
transform = "{1, 0, 0, 1, 316, 0}";
}
);
layerId = "FA6D65B5-4623-4FAC-A199-3F662257AC29";
paths = (
{
closed = 1;
nodes = (
"684 -10 OFFCURVE",
"823 168 OFFCURVE",
"823 385 CURVE SMOOTH",
"823 496 OFFCURVE",
"786 596 OFFCURVE",
"717 668 CURVE",
"805 770 LINE",
"727 770 LINE",
"673 707 LINE",
"611 752 OFFCURVE",
"530 780 OFFCURVE",
"433 780 CURVE SMOOTH",
"183 780 OFFCURVE",
"44 602 OFFCURVE",
"44 385 CURVE SMOOTH",
"44 273 OFFCURVE",
"81 171 OFFCURVE",
"151 99 CURVE",
"66 0 LINE",
"143 0 LINE",
"195 61 LINE",
"257 16 OFFCURVE",
"337 -10 OFFCURVE",
"433 -10 CURVE SMOOTH"
);
},
{
closed = 1;
nodes = (
"245 277 OFFCURVE",
"241 335 OFFCURVE",
"241 385 CURVE SMOOTH",
"241 523 OFFCURVE",
"272 720 OFFCURVE",
"433 720 CURVE SMOOTH",
"513 720 OFFCURVE",
"561 673 OFFCURVE",
"589 609 CURVE",
"258 223 LINE"
);
},
{
closed = 1;
nodes = (
"355 48 OFFCURVE",
"307 94 OFFCURVE",
"279 158 CURVE",
"610 543 LINE",
"622 491 OFFCURVE",
"626 434 OFFCURVE",
"626 385 CURVE SMOOTH",
"626 246 OFFCURVE",
"595 48 OFFCURVE",
"433 48 CURVE SMOOTH"
);
}
);
width = 867;
},
{
components = (
{
name = acute;
transform = "{1, 0, 0, 1, 310, 270}";
},
{
name = O;
transform = "{1, 0, 0, 1, 1, 0}";
}
);
layerId = "AB50CDD9-E897-4D94-B806-C2DEA2F4ECD5";
paths = (
{
closed = 1;
nodes = (
"142 -75 LINE",
"165 -75 LINE",
"585 750 LINE",
"562 750 LINE"
);
}
);
width = 734;
}
);
leftKerningGroup = O;
rightKerningGroup = O;
unicode = 01FE;
},
{
glyphname = P;
lastChange = "2018-10-22 19:21:51 +0000";
layers = (
{
layerId = master01;
paths = (
{
closed = 1;
nodes = (
"134 728 LINE",
"134 42 LINE",
"49 23 LINE",
"49 0 LINE",
"353 0 LINE",
"353 23 LINE",
"239 42 LINE",
"239 330 LINE",
"345 330 LINE SMOOTH",
"519 330 OFFCURVE",
"627 404 OFFCURVE",
"627 541 CURVE SMOOTH",
"627 689 OFFCURVE",
"517 770 OFFCURVE",
"360 770 CURVE SMOOTH",
"49 770 LINE",
"49 747 LINE"
);
},
{
closed = 1;
nodes = (
"331 730 LINE SMOOTH",
"372 730 OFFCURVE",
"398 727 OFFCURVE",
"420 718 CURVE SMOOTH",
"478 695 OFFCURVE",
"512 637 OFFCURVE",
"512 551 CURVE SMOOTH",
"512 504 OFFCURVE",
"502 458 OFFCURVE",
"472 423 CURVE SMOOTH",
"443 389 OFFCURVE",
"398 369 OFFCURVE",
"314 369 CURVE SMOOTH",
"239 369 LINE",
"239 730 LINE"
);
}
);
width = 663;
},
{
layerId = "FA6D65B5-4623-4FAC-A199-3F662257AC29";
paths = (
{
closed = 1;
nodes = (
"127 712 LINE",
"127 59 LINE",
"42 37 LINE",
"42 0 LINE",
"424 0 LINE",
"424 37 LINE",
"299 59 LINE",
"299 320 LINE",
"359 320 LINE SMOOTH",
"556 320 OFFCURVE",
"669 401 OFFCURVE",
"669 542 CURVE SMOOTH",
"669 682 OFFCURVE",
"555 770 OFFCURVE",
"375 770 CURVE SMOOTH",
"42 770 LINE",
"42 733 LINE"
);
},
{
closed = 1;
nodes = (
"324 716 LINE SMOOTH",
"385 716 OFFCURVE",
"423 705 OFFCURVE",
"448 680 CURVE SMOOTH",
"473 655 OFFCURVE",
"486 612 OFFCURVE",
"486 551 CURVE SMOOTH",
"486 486 OFFCURVE",
"472 444 OFFCURVE",
"441 415 CURVE SMOOTH",
"411 387 OFFCURVE",
"368 374 OFFCURVE",
"306 374 CURVE SMOOTH",
"299 374 LINE",
"299 716 LINE"
);
}
);
width = 694;
},
{
layerId = "AB50CDD9-E897-4D94-B806-C2DEA2F4ECD5";
paths = (
{
closed = 1;
nodes = (
"122 674 LINE",
"40 682 LINE",
"40 690 LINE",
"199 690 LINE",
"199 16 LINE",
"297 8 LINE",
"297 0 LINE",
"40 0 LINE",
"40 8 LINE",
"122 16 LINE"
);
},
{
closed = 1;
nodes = (
"293 690 LINE SMOOTH",
"450 690 OFFCURVE",
"535 620 OFFCURVE",
"535 499 CURVE SMOOTH",
"535 369 OFFCURVE",
"450 300 OFFCURVE",
"293 300 CURVE SMOOTH",
"165 300 LINE",
"165 312 LINE",
"290 312 LINE SMOOTH",
"398 312 OFFCURVE",
"445 371 OFFCURVE",
"445 504 CURVE SMOOTH",
"445 602 OFFCURVE",
"416 678 OFFCURVE",
"290 678 CURVE SMOOTH",
"165 678 LINE",
"165 690 LINE"
);
}
);
width = 568;
}
);
leftKerningGroup = I;
unicode = 0050;
},
{
glyphname = Q;
lastChange = "2018-10-22 19:21:51 +0000";
layers = (
{
layerId = master01;
paths = (
{
closed = 1;
nodes = (
"211 780 OFFCURVE",
"55 610 OFFCURVE",
"55 385 CURVE SMOOTH",
"55 203 OFFCURVE",
"160 51 OFFCURVE",
"316 17 CURVE",
"316 13 LINE",
"248 -13 OFFCURVE",
"206 -57 OFFCURVE",
"206 -105 CURVE SMOOTH",
"206 -138 OFFCURVE",
"226 -160 OFFCURVE",
"256 -160 CURVE SMOOTH",
"285 -160 OFFCURVE",
"307 -139 OFFCURVE",
"307 -110 CURVE SMOOTH",
"307 -85 OFFCURVE",
"290 -80 OFFCURVE",
"290 -57 CURVE SMOOTH",
"290 -32 OFFCURVE",
"309 -12 OFFCURVE",
"352 -12 CURVE SMOOTH",
"470 -12 OFFCURVE",
"505 -164 OFFCURVE",
"630 -164 CURVE SMOOTH",
"699 -164 OFFCURVE",
"767 -118 OFFCURVE",
"808 -24 CURVE",
"781 -14 LINE",
"754 -50 OFFCURVE",
"728 -67 OFFCURVE",
"683 -67 CURVE SMOOTH",
"600 -67 OFFCURVE",
"537 -13 OFFCURVE",
"469 3 CURVE",
"469 7 LINE",
"655 22 OFFCURVE",
"781 186 OFFCURVE",
"781 385 CURVE SMOOTH",
"781 610 OFFCURVE",
"625 780 OFFCURVE",
"418 780 CURVE SMOOTH"
);
},
{
closed = 1;
nodes = (
"181 605 OFFCURVE",
"270 735 OFFCURVE",
"419 735 CURVE SMOOTH",
"567 735 OFFCURVE",
"655 606 OFFCURVE",
"655 387 CURVE SMOOTH",
"655 167 OFFCURVE",
"566 35 OFFCURVE",
"418 35 CURVE SMOOTH",
"270 35 OFFCURVE",
"181 167 OFFCURVE",
"181 386 CURVE SMOOTH"
);
}
);
width = 836;
},
{
layerId = "FA6D65B5-4623-4FAC-A199-3F662257AC29";
paths = (
{
closed = 1;
nodes = (
"184 780 OFFCURVE",
"45 602 OFFCURVE",
"45 385 CURVE SMOOTH",
"45 212 OFFCURVE",
"138 64 OFFCURVE",
"300 11 CURVE",
"300 7 LINE",
"230 -21 OFFCURVE",
"187 -64 OFFCURVE",
"187 -118 CURVE SMOOTH",
"187 -162 OFFCURVE",
"215 -195 OFFCURVE",
"257 -195 CURVE SMOOTH",
"298 -195 OFFCURVE",
"329 -165 OFFCURVE",
"329 -126 CURVE SMOOTH",
"329 -96 OFFCURVE",
"310 -87 OFFCURVE",
"310 -64 CURVE SMOOTH",
"310 -37 OFFCURVE",
"335 -22 OFFCURVE",
"369 -22 CURVE SMOOTH",
"496 -22 OFFCURVE",
"521 -194 OFFCURVE",
"652 -194 CURVE SMOOTH",
"725 -194 OFFCURVE",
"801 -140 OFFCURVE",
"845 -34 CURVE",
"815 -14 LINE",
"783 -46 OFFCURVE",
"751 -57 OFFCURVE",
"710 -57 CURVE SMOOTH",
"636 -57 OFFCURVE",
"578 -24 OFFCURVE",
"517 -5 CURVE",
"517 -1 LINE",
"713 35 OFFCURVE",
"824 194 OFFCURVE",
"824 385 CURVE SMOOTH",
"824 602 OFFCURVE",
"685 780 OFFCURVE",
"434 780 CURVE SMOOTH"
);
},
{
closed = 1;
nodes = (
"242 522 OFFCURVE",
"272 720 OFFCURVE",
"435 720 CURVE SMOOTH",
"598 720 OFFCURVE",
"627 522 OFFCURVE",
"627 385 CURVE SMOOTH",
"627 242 OFFCURVE",
"596 38 OFFCURVE",
"434 38 CURVE SMOOTH",
"273 38 OFFCURVE",
"242 242 OFFCURVE",
"242 383 CURVE SMOOTH"
);
}
);
width = 869;
},
{
layerId = "AB50CDD9-E897-4D94-B806-C2DEA2F4ECD5";
paths = (
{
closed = 1;
nodes = (
"544 706 OFFCURVE",
"682 548 OFFCURVE",
"682 345 CURVE SMOOTH",
"682 142 OFFCURVE",
"544 -16 OFFCURVE",
"367 -16 CURVE SMOOTH",
"190 -16 OFFCURVE",
"52 142 OFFCURVE",
"52 345 CURVE SMOOTH",
"52 548 OFFCURVE",
"190 706 OFFCURVE",
"367 706 CURVE SMOOTH"
);
},
{
closed = 1;
nodes = (
"148 122 OFFCURVE",
"227 -4 OFFCURVE",
"367 -4 CURVE SMOOTH",
"507 -4 OFFCURVE",
"586 122 OFFCURVE",
"586 345 CURVE SMOOTH",
"586 568 OFFCURVE",
"507 694 OFFCURVE",
"367 694 CURVE SMOOTH",
"227 694 OFFCURVE",
"148 568 OFFCURVE",
"148 345 CURVE SMOOTH"
);
},
{
closed = 1;
nodes = (
"475 -33 OFFCURVE",
"545 -88 OFFCURVE",
"613 -88 CURVE SMOOTH",
"659 -88 OFFCURVE",
"678 -62 OFFCURVE",
"692 -30 CURVE SMOOTH",
"702 -36 LINE SMOOTH",
"675 -98 OFFCURVE",
"614 -149 OFFCURVE",
"547 -149 CURVE SMOOTH",
"495 -149 OFFCURVE",
"455 -119 OFFCURVE",
"429 -85 CURVE SMOOTH",
"402 -50 OFFCURVE",
"368 -16 OFFCURVE",
"327 -16 CURVE SMOOTH",
"301 -16 OFFCURVE",
"265 -30 OFFCURVE",
"265 -55 CURVE SMOOTH",
"265 -70 OFFCURVE",
"278 -88 OFFCURVE",
"278 -108 CURVE SMOOTH",
"278 -131 OFFCURVE",
"260 -150 OFFCURVE",
"236 -150 CURVE SMOOTH",
"213 -150 OFFCURVE",
"197 -132 OFFCURVE",
"197 -106 CURVE SMOOTH",
"197 -62 OFFCURVE",
"243 -29 OFFCURVE",
"299 -8 CURVE",
"403 -8 LINE"
);
}
);
width = 734;
}
);
leftKerningGroup = O;
rightKerningGroup = O;
unicode = 0051;
},
{
glyphname = R;
lastChange = "2018-10-22 19:21:51 +0000";
layers = (
{
anchors = (
{
name = bottom;
position = "{396, 0}";
},
{
name = topcap;
position = "{368, 830}";
}
);
layerId = master01;
paths = (
{
closed = 1;
nodes = (
"353 0 LINE",
"353 23 LINE",
"239 42 LINE",
"239 350 LINE",
"335 350 LINE",
"559 0 LINE",
"776 0 LINE",
"776 23 LINE",
"662 42 LINE",
"449 362 LINE",
"555 387 OFFCURVE",
"617 451 OFFCURVE",
"617 551 CURVE SMOOTH",
"617 693 OFFCURVE",
"507 770 OFFCURVE",
"350 770 CURVE SMOOTH",
"49 770 LINE",
"49 747 LINE",
"134 728 LINE",
"134 42 LINE",
"49 23 LINE",
"49 0 LINE"
);
},
{
closed = 1;
nodes = (
"239 730 LINE",
"321 730 LINE SMOOTH",
"362 730 OFFCURVE",
"387 727 OFFCURVE",
"410 718 CURVE SMOOTH",
"468 695 OFFCURVE",
"502 642 OFFCURVE",
"502 561 CURVE SMOOTH",
"502 518 OFFCURVE",
"491 476 OFFCURVE",
"462 443 CURVE SMOOTH",
"432 410 OFFCURVE",
"388 389 OFFCURVE",
"304 389 CURVE SMOOTH",
"239 389 LINE"
);
}
);
width = 733;
},
{
layerId = "FA6D65B5-4623-4FAC-A199-3F662257AC29";
paths = (
{
closed = 1;
nodes = (
"413 0 LINE",
"413 37 LINE",
"299 59 LINE",
"299 335 LINE",
"340 335 LINE",
"541 0 LINE",
"814 0 LINE",
"814 37 LINE",
"723 56 LINE",
"530 356 LINE",
"619 388 OFFCURVE",
"670 454 OFFCURVE",
"670 551 CURVE SMOOTH",
"670 693 OFFCURVE",
"560 770 OFFCURVE",
"403 770 CURVE SMOOTH",
"42 770 LINE",
"42 733 LINE",
"127 712 LINE",
"127 59 LINE",
"42 37 LINE",
"42 0 LINE"
);
},
{
closed = 1;
nodes = (
"299 716 LINE",
"320 716 LINE SMOOTH",
"361 716 OFFCURVE",
"385 712 OFFCURVE",
"408 703 CURVE SMOOTH",
"459 682 OFFCURVE",
"495 633 OFFCURVE",
"495 561 CURVE SMOOTH",
"495 518 OFFCURVE",
"484 476 OFFCURVE",
"455 443 CURVE SMOOTH",
"427 410 OFFCURVE",
"386 389 OFFCURVE",
"313 389 CURVE SMOOTH",
"299 389 LINE"
);
}
);
width = 778;
},
{
anchors = (
{
name = bottom;
position = "{326, 0}";
},
{
name = top;
position = "{323, 800}";
}
);
layerId = "AB50CDD9-E897-4D94-B806-C2DEA2F4ECD5";
paths = (
{
closed = 1;
nodes = (
"388 328 LINE",
"571 42 LINE SMOOTH",
"588 15 OFFCURVE",
"601 8 OFFCURVE",
"633 8 CURVE SMOOTH",
"647 8 LINE",
"647 0 LINE",
"544 0 LINE SMOOTH",
"512 0 OFFCURVE",
"500 7 OFFCURVE",
"483 34 CURVE SMOOTH",
"330 281 LINE SMOOTH",
"311 311 OFFCURVE",
"306 315 OFFCURVE",
"273 315 CURVE SMOOTH",
"178 315 LINE",
"178 328 LINE"
);
},
{
closed = 1;
nodes = (
"122 674 LINE",
"40 682 LINE",
"40 690 LINE",
"199 690 LINE",
"199 16 LINE",
"286 8 LINE",
"286 0 LINE",
"40 0 LINE",
"40 8 LINE",
"122 16 LINE"
);
},
{
closed = 1;
nodes = (
"293 690 LINE SMOOTH",
"450 690 OFFCURVE",
"535 625 OFFCURVE",
"535 505 CURVE SMOOTH",
"535 385 OFFCURVE",
"449 318 OFFCURVE",
"293 318 CURVE SMOOTH",
"165 318 LINE",
"165 330 LINE",
"290 330 LINE SMOOTH",
"397 330 OFFCURVE",
"447 386 OFFCURVE",
"447 503 CURVE SMOOTH",
"447 621 OFFCURVE",
"396 678 OFFCURVE",
"290 678 CURVE SMOOTH",
"165 678 LINE",
"165 690 LINE"
);
}
);
width = 614;
}
);
leftKerningGroup = I;
rightKerningGroup = R;
unicode = 0052;
},
{
glyphname = S;
lastChange = "2018-10-22 19:21:51 +0000";
layers = (
{
anchors = (
{
name = bottom;
position = "{303, 0}";
},
{
name = topcap;
position = "{308, 830}";
}
);
layerId = master01;
paths = (
{
closed = 1;
nodes = (
"175 780 OFFCURVE",
"79 690 OFFCURVE",
"79 569 CURVE SMOOTH",
"79 333 OFFCURVE",
"447 355 OFFCURVE",
"447 158 CURVE SMOOTH",
"447 81 OFFCURVE",
"390 34 OFFCURVE",
"298 34 CURVE SMOOTH",
"189 34 OFFCURVE",
"128 101 OFFCURVE",
"88 262 CURVE",
"63 256 LINE",
"81 0 LINE",
"101 0 LINE",
"141 41 LINE",
"198 6 OFFCURVE",
"247 -9 OFFCURVE",
"301 -9 CURVE SMOOTH",
"435 -9 OFFCURVE",
"539 89 OFFCURVE",
"539 217 CURVE SMOOTH",
"539 455 OFFCURVE",
"184 428 OFFCURVE",
"184 623 CURVE SMOOTH",
"184 694 OFFCURVE",
"231 737 OFFCURVE",
"307 737 CURVE SMOOTH",
"398 737 OFFCURVE",
"456 677 OFFCURVE",
"488 550 CURVE",
"514 550 LINE",
"505 770 LINE",
"485 770 LINE",
"453 718 LINE",
"409 760 OFFCURVE",
"362 780 OFFCURVE",
"302 780 CURVE SMOOTH"
);
}
);
width = 599;
},
{
layerId = "FA6D65B5-4623-4FAC-A199-3F662257AC29";
paths = (
{
closed = 1;
nodes = (
"180 780 OFFCURVE",
"70 691 OFFCURVE",
"70 569 CURVE SMOOTH",
"70 298 OFFCURVE",
"461 311 OFFCURVE",
"461 163 CURVE SMOOTH",
"461 92 OFFCURVE",
"407 49 OFFCURVE",
"322 49 CURVE SMOOTH",
"204 49 OFFCURVE",
"138 113 OFFCURVE",
"95 263 CURVE",
"53 256 LINE",
"73 0 LINE",
"104 0 LINE",
"139 41 LINE",
"206 6 OFFCURVE",
"262 -9 OFFCURVE",
"324 -9 CURVE SMOOTH",
"478 -9 OFFCURVE",
"596 89 OFFCURVE",
"596 218 CURVE SMOOTH",
"596 494 OFFCURVE",
"222 475 OFFCURVE",
"222 626 CURVE SMOOTH",
"222 685 OFFCURVE",
"263 721 OFFCURVE",
"332 721 CURVE SMOOTH",
"429 721 OFFCURVE",
"492 663 OFFCURVE",
"525 550 CURVE",
"569 550 LINE",
"559 771 LINE",
"526 771 LINE",
"502 718 LINE",
"452 760 OFFCURVE",
"395 780 OFFCURVE",
"326 780 CURVE SMOOTH"
);
}
);
width = 647;
},
{
anchors = (
{
name = bottom;
position = "{276, 0}";
},
{
name = top;
position = "{278, 800}";
}
);
layerId = "AB50CDD9-E897-4D94-B806-C2DEA2F4ECD5";
paths = (
{
closed = 1;
nodes = (
"214 -16 OFFCURVE",
"152 4 OFFCURVE",
"110 39 CURVE",
"89 -16 LINE",
"76 -16 LINE",
"63 223 LINE",
"72 225 LINE",
"92 135 OFFCURVE",
"110 90 OFFCURVE",
"143 53 CURVE SMOOTH",
"177 15 OFFCURVE",
"221 -4 OFFCURVE",
"278 -4 CURVE SMOOTH",
"375 -4 OFFCURVE",
"431 50 OFFCURVE",
"431 135 CURVE SMOOTH",
"431 230 OFFCURVE",
"359 266 OFFCURVE",
"247 315 CURVE SMOOTH",
"159 353 OFFCURVE",
"69 400 OFFCURVE",
"69 515 CURVE SMOOTH",
"69 626 OFFCURVE",
"155 706 OFFCURVE",
"274 706 CURVE SMOOTH",
"328 706 OFFCURVE",
"372 689 OFFCURVE",
"427 646 CURVE",
"451 694 LINE",
"464 694 LINE",
"474 476 LINE",
"464 473 LINE",
"452 522 OFFCURVE",
"437 562 OFFCURVE",
"423 591 CURVE SMOOTH",
"392 655 OFFCURVE",
"342 694 OFFCURVE",
"270 694 CURVE SMOOTH",
"187 694 OFFCURVE",
"134 643 OFFCURVE",
"134 562 CURVE SMOOTH",
"134 471 OFFCURVE",
"201 435 OFFCURVE",
"315 383 CURVE SMOOTH",
"414 338 OFFCURVE",
"493 295 OFFCURVE",
"493 185 CURVE SMOOTH",
"493 68 OFFCURVE",
"402 -16 OFFCURVE",
"276 -16 CURVE SMOOTH"
);
}
);
width = 551;
}
);
leftKerningGroup = S;
rightKerningGroup = S;
unicode = 0053;
},
{
glyphname = Schwa;
lastChange = "2018-10-22 19:21:51 +0000";
layers = (
{
layerId = master01;
paths = (
{
closed = 1;
nodes = (
"51 102 OFFCURVE",
"153 -10 OFFCURVE",
"342 -10 CURVE SMOOTH",
"565 -10 OFFCURVE",
"716 155 OFFCURVE",
"716 397 CURVE SMOOTH",
"716 626 OFFCURVE",
"581 781 OFFCURVE",
"382 781 CURVE SMOOTH",
"241 781 OFFCURVE",
"117 706 OFFCURVE",
"71 593 CURVE SMOOTH",
"63 573 LINE",
"87 558 LINE",
"104 580 LINE SMOOTH",
"162 657 OFFCURVE",
"240 696 OFFCURVE",
"337 696 CURVE SMOOTH",
"501 696 OFFCURVE",
"590 577 OFFCURVE",
"590 361 CURVE SMOOTH",
"590 151 OFFCURVE",
"506 35 OFFCURVE",
"353 35 CURVE SMOOTH",
"238 35 OFFCURVE",
"178 95 OFFCURVE",
"178 209 CURVE SMOOTH",
"178 238 OFFCURVE",
"182 258 OFFCURVE",
"182 271 CURVE",
"601 285 LINE",
"601 324 LINE",
"57 324 LINE",
"47 315 LINE"
);
}
);
width = 772;
},
{
layerId = "FA6D65B5-4623-4FAC-A199-3F662257AC29";
paths = (
{
closed = 1;
nodes = (
"36 106 OFFCURVE",
"148 -10 OFFCURVE",
"349 -10 CURVE SMOOTH",
"587 -10 OFFCURVE",
"746 153 OFFCURVE",
"746 396 CURVE SMOOTH",
"746 626 OFFCURVE",
"604 781 OFFCURVE",
"395 781 CURVE SMOOTH",
"247 781 OFFCURVE",
"112 704 OFFCURVE",
"68 593 CURVE SMOOTH",
"60 573 LINE",
"90 553 LINE",
"108 575 LINE SMOOTH",
"158 636 OFFCURVE",
"248 676 OFFCURVE",
"337 676 CURVE SMOOTH",
"480 676 OFFCURVE",
"551 571 OFFCURVE",
"551 360 CURVE SMOOTH",
"551 157 OFFCURVE",
"485 50 OFFCURVE",
"359 50 CURVE SMOOTH",
"270 50 OFFCURVE",
"221 105 OFFCURVE",
"221 205 CURVE SMOOTH",
"221 222 OFFCURVE",
"223 243 OFFCURVE",
"225 259 CURVE",
"625 273 LINE",
"625 324 LINE",
"44 324 LINE",
"33 315 LINE"
);
}
);
width = 792;
},
{
layerId = "AB50CDD9-E897-4D94-B806-C2DEA2F4ECD5";
paths = (
{
closed = 1;
nodes = (
"52 74 OFFCURVE",
"130 -16 OFFCURVE",
"274 -16 CURVE SMOOTH",
"468 -16 OFFCURVE",
"598 131 OFFCURVE",
"598 349 CURVE SMOOTH",
"598 561 OFFCURVE",
"481 706 OFFCURVE",
"310 706 CURVE SMOOTH",
"192 706 OFFCURVE",
"104 641 OFFCURVE",
"62 527 CURVE SMOOTH",
"55 509 LINE",
"60 507 LINE",
"74 526 LINE SMOOTH",
"132 604 OFFCURVE",
"201 645 OFFCURVE",
"271 645 CURVE SMOOTH",
"417 645 OFFCURVE",
"502 539 OFFCURVE",
"502 325 CURVE SMOOTH",
"502 127 OFFCURVE",
"420 -3 OFFCURVE",
"292 -3 CURVE SMOOTH",
"211 -3 OFFCURVE",
"150 32 OFFCURVE",
"150 166 CURVE SMOOTH",
"150 190 OFFCURVE",
"151 217 OFFCURVE",
"155 230 CURVE",
"512 242 LINE",
"512 255 LINE",
"59 255 LINE",
"49 247 LINE {name = hr00;}"
);
}
);
width = 652;
}
);
rightKerningGroup = O;
unicode = 018F;
},
{
glyphname = T;
lastChange = "2018-10-22 19:21:51 +0000";
layers = (
{
anchors = (
{
name = bottom;
position = "{379, -2}";
},
{
name = topcap;
position = "{379, 830}";
}
);
layerId = master01;
paths = (
{
closed = 1;
nodes = (
"540 0 LINE",
"540 23 LINE",
"431 42 LINE",
"431 730 LINE",
"629 730 LINE",
"672 673 OFFCURVE",
"701 607 OFFCURVE",
"721 550 CURVE",
"745 550 LINE",
"708 770 LINE",
"46 770 LINE",
"9 550 LINE",
"33 550 LINE",
"53 607 OFFCURVE",
"82 673 OFFCURVE",
"125 730 CURVE",
"326 730 LINE",
"326 42 LINE",
"216 23 LINE",
"216 0 LINE"
);
}
);
width = 754;
},
{
layerId = "FA6D65B5-4623-4FAC-A199-3F662257AC29";
paths = (
{
closed = 1;
nodes = (
"595 0 LINE",
"595 37 LINE",
"476 59 LINE",
"476 715 LINE",
"639 715 LINE",
"682 660 OFFCURVE",
"708 595 OFFCURVE",
"728 540 CURVE",
"767 540 LINE",
"730 770 LINE",
"48 770 LINE",
"11 540 LINE",
"50 540 LINE",
"70 595 OFFCURVE",
"99 660 OFFCURVE",
"142 715 CURVE",
"305 715 LINE",
"305 59 LINE",
"185 37 LINE",
"185 0 LINE"
);
}
);
width = 778;
},
{
anchors = (
{
name = bottom;
position = "{328, 0}";
},
{
name = top;
position = "{326, 800}";
}
);
layerId = "AB50CDD9-E897-4D94-B806-C2DEA2F4ECD5";
paths = (
{
closed = 1;
nodes = (
"125 679 OFFCURVE",
"114 671 OFFCURVE",
"101 641 CURVE SMOOTH",
"32 487 LINE",
"24 489 LINE",
"63 706 LINE",
"69 706 LINE",
"99 693 OFFCURVE",
"114 690 OFFCURVE",
"146 690 CURVE SMOOTH",
"531 690 LINE SMOOTH",
"563 690 OFFCURVE",
"578 693 OFFCURVE",
"608 706 CURVE",
"614 706 LINE",
"636 489 LINE",
"628 487 LINE",
"566 641 LINE SMOOTH",
"554 671 OFFCURVE",
"544 679 OFFCURVE",
"512 679 CURVE SMOOTH",
"366 679 LINE",
"366 16 LINE",
"474 8 LINE",
"474 0 LINE",
"181 0 LINE",
"181 8 LINE",
"289 16 LINE",
"289 679 LINE",
"157 679 LINE SMOOTH"
);
}
);
width = 665;
}
);
leftKerningGroup = T;
rightKerningGroup = T;
unicode = 0054;
},
{
glyphname = Tbar;
lastChange = "2018-10-22 19:21:51 +0000";
layers = (
{
components = (
{
name = T;
}
);
layerId = master01;
paths = (
{
closed = 1;
nodes = (
"591 442 LINE",
"166 442 LINE",
"166 377 LINE",
"591 377 LINE"
);
}
);
width = 754;
},
{
components = (
{
name = T;
transform = "{1, 0, 0, 1, 1, 0}";
}
);
layerId = "FA6D65B5-4623-4FAC-A199-3F662257AC29";
paths = (
{
closed = 1;
nodes = (
"637 452 LINE",
"147 452 LINE",
"147 367 LINE",
"637 367 LINE"
);
}
);
width = 780;
},
{
components = (
{
name = T;
}
);
layerId = "AB50CDD9-E897-4D94-B806-C2DEA2F4ECD5";
paths = (
{
closed = 1;
nodes = (
"502 418 LINE",
"502 401 LINE",
"152 401 LINE",
"152 418 LINE"
);
}
);
width = 663;
}
);
leftKerningGroup = T;
rightKerningGroup = T;
unicode = 0166;
},
{
glyphname = Thorn;
lastChange = "2018-10-22 19:21:51 +0000";
layers = (
{
layerId = master01;
paths = (
{
closed = 1;
nodes = (
"353 770 LINE",
"49 770 LINE",
"49 747 LINE",
"134 728 LINE",
"134 42 LINE",
"49 23 LINE",
"49 0 LINE",
"353 0 LINE",
"353 23 LINE",
"239 42 LINE",
"239 167 LINE",
"345 167 LINE SMOOTH",
"519 167 OFFCURVE",
"627 241 OFFCURVE",
"627 378 CURVE SMOOTH",
"627 526 OFFCURVE",
"517 607 OFFCURVE",
"360 607 CURVE SMOOTH",
"239 607 LINE",
"239 728 LINE",
"353 747 LINE"
);
},
{
closed = 1;
nodes = (
"331 567 LINE SMOOTH",
"372 567 OFFCURVE",
"398 564 OFFCURVE",
"420 555 CURVE SMOOTH",
"478 532 OFFCURVE",
"512 474 OFFCURVE",
"512 388 CURVE SMOOTH",
"512 341 OFFCURVE",
"502 295 OFFCURVE",
"472 260 CURVE SMOOTH",
"443 226 OFFCURVE",
"398 206 OFFCURVE",
"314 206 CURVE SMOOTH",
"239 206 LINE",
"239 567 LINE"
);
}
);
width = 665;
},
{
layerId = "FA6D65B5-4623-4FAC-A199-3F662257AC29";
paths = (
{
closed = 1;
nodes = (
"424 770 LINE",
"42 770 LINE",
"42 733 LINE",
"127 711 LINE",
"127 59 LINE",
"42 37 LINE",
"42 0 LINE",
"424 0 LINE",
"424 37 LINE",
"299 59 LINE",
"299 163 LINE",
"359 163 LINE SMOOTH",
"556 163 OFFCURVE",
"669 244 OFFCURVE",
"669 385 CURVE SMOOTH",
"669 525 OFFCURVE",
"555 613 OFFCURVE",
"375 613 CURVE SMOOTH",
"299 613 LINE",
"299 711 LINE",
"424 733 LINE"
);
},
{
closed = 1;
nodes = (
"324 559 LINE SMOOTH",
"385 559 OFFCURVE",
"423 548 OFFCURVE",
"448 523 CURVE SMOOTH",
"473 498 OFFCURVE",
"486 455 OFFCURVE",
"486 394 CURVE SMOOTH",
"486 329 OFFCURVE",
"472 287 OFFCURVE",
"441 258 CURVE SMOOTH",
"411 230 OFFCURVE",
"368 217 OFFCURVE",
"306 217 CURVE SMOOTH",
"299 217 LINE",
"299 559 LINE"
);
}
);
width = 696;
},
{
layerId = "AB50CDD9-E897-4D94-B806-C2DEA2F4ECD5";
paths = (
{
closed = 1;
nodes = (
"293 549 LINE SMOOTH",
"450 549 OFFCURVE",
"535 479 OFFCURVE",
"535 358 CURVE SMOOTH",
"535 228 OFFCURVE",
"450 159 OFFCURVE",
"293 159 CURVE SMOOTH",
"165 159 LINE",
"165 171 LINE",
"290 171 LINE SMOOTH",
"398 171 OFFCURVE",
"445 230 OFFCURVE",
"445 363 CURVE SMOOTH",
"445 461 OFFCURVE",
"416 537 OFFCURVE",
"290 537 CURVE SMOOTH",
"165 537 LINE",
"165 549 LINE"
);
},
{
closed = 1;
nodes = (
"122 674 LINE",
"40 682 LINE",
"40 690 LINE",
"297 690 LINE",
"297 682 LINE",
"199 674 LINE",
"199 16 LINE",
"297 8 LINE",
"297 0 LINE",
"40 0 LINE",
"40 8 LINE",
"122 16 LINE"
);
}
);
width = 571;
}
);
leftKerningGroup = I;
unicode = 00DE;
},
{
glyphname = U;
lastChange = "2018-10-22 19:21:51 +0000";
layers = (
{
anchors = (
{
name = bottom;
position = "{401, 0}";
},
{
name = topcap;
position = "{426, 830}";
}
);
layerId = master01;
paths = (
{
closed = 1;
nodes = (
"317 747 LINE",
"317 770 LINE",
"33 770 LINE",
"33 747 LINE",
"123 728 LINE",
"123 242 LINE SMOOTH",
"123 159 OFFCURVE",
"136 117 OFFCURVE",
"162 82 CURVE SMOOTH",
"206 24 OFFCURVE",
"290 -10 OFFCURVE",
"393 -10 CURVE SMOOTH",
"494 -10 OFFCURVE",
"573 23 OFFCURVE",
"612 80 CURVE SMOOTH",
"638 119 OFFCURVE",
"650 174 OFFCURVE",
"650 258 CURVE SMOOTH",
"650 728 LINE",
"740 747 LINE",
"740 770 LINE",
"521 770 LINE",
"521 747 LINE",
"610 728 LINE",
"610 300 LINE SMOOTH",
"610 194 OFFCURVE",
"599 133 OFFCURVE",
"572 97 CURVE SMOOTH",
"542 56 OFFCURVE",
"486 35 OFFCURVE",
"414 35 CURVE SMOOTH",
"301 35 OFFCURVE",
"228 100 OFFCURVE",
"228 227 CURVE SMOOTH",
"228 728 LINE"
);
}
);
width = 774;
},
{
layerId = "FA6D65B5-4623-4FAC-A199-3F662257AC29";
paths = (
{
closed = 1;
nodes = (
"373 733 LINE",
"373 770 LINE",
"26 770 LINE",
"26 733 LINE",
"111 714 LINE",
"111 267 LINE SMOOTH",
"111 184 OFFCURVE",
"123 136 OFFCURVE",
"154 97 CURVE SMOOTH",
"207 28 OFFCURVE",
"302 -10 OFFCURVE",
"423 -10 CURVE SMOOTH",
"539 -10 OFFCURVE",
"618 25 OFFCURVE",
"664 96 CURVE SMOOTH",
"694 143 OFFCURVE",
"710 207 OFFCURVE",
"710 283 CURVE SMOOTH",
"710 714 LINE",
"799 733 LINE",
"799 770 LINE",
"553 770 LINE",
"553 733 LINE",
"641 714 LINE",
"641 340 LINE SMOOTH",
"641 224 OFFCURVE",
"628 158 OFFCURVE",
"597 115 CURVE SMOOTH",
"567 74 OFFCURVE",
"520 52 OFFCURVE",
"459 52 CURVE SMOOTH",
"348 52 OFFCURVE",
"285 131 OFFCURVE",
"285 267 CURVE SMOOTH",
"285 714 LINE"
);
}
);
width = 821;
},
{
anchors = (
{
name = top;
position = "{342, 800}";
}
);
layerId = "AB50CDD9-E897-4D94-B806-C2DEA2F4ECD5";
paths = (
{
closed = 1;
nodes = (
"536 159 OFFCURVE",
"526 114 OFFCURVE",
"501 77 CURVE SMOOTH",
"467 28 OFFCURVE",
"409 0 OFFCURVE",
"342 0 CURVE SMOOTH",
"306 0 OFFCURVE",
"271 8 OFFCURVE",
"248 22 CURVE SMOOTH",
"206 47 OFFCURVE",
"189 95 OFFCURVE",
"189 192 CURVE SMOOTH",
"189 674 LINE",
"276 682 LINE",
"276 690 LINE",
"30 690 LINE",
"30 682 LINE",
"112 674 LINE",
"112 225 LINE SMOOTH",
"112 126 OFFCURVE",
"128 76 OFFCURVE",
"169 40 CURVE SMOOTH",
"209 5 OFFCURVE",
"274 -16 OFFCURVE",
"335 -16 CURVE SMOOTH",
"411 -16 OFFCURVE",
"477 16 OFFCURVE",
"513 68 CURVE SMOOTH",
"540 108 OFFCURVE",
"552 161 OFFCURVE",
"552 245 CURVE SMOOTH",
"552 629 LINE SMOOTH",
"552 661 OFFCURVE",
"558 670 OFFCURVE",
"582 674 CURVE SMOOTH",
"654 682 LINE",
"654 690 LINE",
"435 690 LINE",
"435 682 LINE",
"506 674 LINE SMOOTH",
"530 670 OFFCURVE",
"536 661 OFFCURVE",
"536 629 CURVE SMOOTH",
"536 240 LINE"
);
}
);
width = 665;
}
);
leftKerningGroup = U;
rightKerningGroup = U;
unicode = 0055;
},
{
glyphname = V;
lastChange = "2018-10-22 19:21:51 +0000";
layers = (
{
layerId = master01;
paths = (
{
closed = 1;
nodes = (
"601 636 LINE SMOOTH",
"626 707 OFFCURVE",
"640 731 OFFCURVE",
"746 747 CURVE",
"746 770 LINE",
"465 770 LINE",
"465 747 LINE",
"541 737 OFFCURVE",
"567 719 OFFCURVE",
"567 685 CURVE SMOOTH",
"567 672 OFFCURVE",
"563 656 OFFCURVE",
"557 638 CURVE SMOOTH",
"399 183 LINE",
"394 183 LINE",
"225 670 LINE SMOOTH",
"219 688 OFFCURVE",
"212 706 OFFCURVE",
"212 716 CURVE SMOOTH",
"212 738 OFFCURVE",
"227 742 OFFCURVE",
"317 747 CURVE",
"317 770 LINE",
"-8 770 LINE",
"-8 747 LINE",
"62 742 OFFCURVE",
"77 732 OFFCURVE",
"94 686 CURVE SMOOTH",
"355 -10 LINE",
"372 -10 LINE"
);
}
);
width = 721;
},
{
layerId = "FA6D65B5-4623-4FAC-A199-3F662257AC29";
paths = (
{
closed = 1;
nodes = (
"665 622 LINE SMOOTH",
"697 704 OFFCURVE",
"715 719 OFFCURVE",
"805 733 CURVE",
"805 770 LINE",
"496 770 LINE",
"496 733 LINE",
"578 722 OFFCURVE",
"607 705 OFFCURVE",
"607 669 CURVE SMOOTH",
"607 657 OFFCURVE",
"604 642 OFFCURVE",
"597 624 CURVE SMOOTH",
"455 254 LINE",
"449 254 LINE",
"300 666 LINE SMOOTH",
"296 677 OFFCURVE",
"294 686 OFFCURVE",
"294 694 CURVE SMOOTH",
"294 719 OFFCURVE",
"318 728 OFFCURVE",
"392 733 CURVE",
"392 770 LINE",
"-20 770 LINE",
"-20 733 LINE",
"51 728 OFFCURVE",
"69 717 OFFCURVE",
"88 672 CURVE SMOOTH",
"370 -10 LINE",
"418 -10 LINE"
);
}
);
width = 781;
},
{
layerId = "AB50CDD9-E897-4D94-B806-C2DEA2F4ECD5";
paths = (
{
closed = 1;
nodes = (
"480 690 LINE",
"693 690 LINE",
"693 682 LINE",
"637 677 LINE SMOOTH",
"603 674 OFFCURVE",
"594 667 OFFCURVE",
"583 637 CURVE SMOOTH",
"338 -16 LINE",
"320 -16 LINE",
"67 674 LINE",
"-15 682 LINE",
"-15 690 LINE",
"235 690 LINE",
"235 682 LINE",
"148 674 LINE",
"360 95 LINE",
"364 95 LINE",
"567 637 LINE SMOOTH",
"571 647 OFFCURVE",
"571 651 OFFCURVE",
"571 656 CURVE SMOOTH",
"571 669 OFFCURVE",
"563 675 OFFCURVE",
"541 677 CURVE SMOOTH",
"480 682 LINE"
);
}
);
width = 658;
}
);
unicode = 0056;
},
{
glyphname = W;
lastChange = "2018-10-22 19:21:51 +0000";
layers = (
{
anchors = (
{
name = topcap;
position = "{543, 830}";
}
);
layerId = master01;
paths = (
{
closed = 1;
nodes = (
"540 513 LINE",
"736 -10 LINE",
"759 -10 LINE",
"965 636 LINE SMOOTH",
"988 708 OFFCURVE",
"1004 731 OFFCURVE",
"1110 747 CURVE",
"1110 770 LINE",
"829 770 LINE",
"829 747 LINE",
"906 736 OFFCURVE",
"930 720 OFFCURVE",
"930 686 CURVE SMOOTH",
"930 671 OFFCURVE",
"927 657 OFFCURVE",
"921 638 CURVE SMOOTH",
"780 183 LINE",
"775 183 LINE",
"606 670 LINE SMOOTH",
"599 689 OFFCURVE",
"595 703 OFFCURVE",
"595 714 CURVE SMOOTH",
"595 734 OFFCURVE",
"602 741 OFFCURVE",
"698 747 CURVE",
"698 770 LINE",
"373 770 LINE",
"373 747 LINE",
"443 742 OFFCURVE",
"458 732 OFFCURVE",
"475 686 CURVE SMOOTH",
"516 576 LINE",
"394 183 LINE",
"389 183 LINE",
"220 670 LINE SMOOTH",
"210 698 OFFCURVE",
"207 707 OFFCURVE",
"207 717 CURVE SMOOTH",
"207 735 OFFCURVE",
"218 740 OFFCURVE",
"312 747 CURVE",
"312 770 LINE",
"-13 770 LINE",
"-13 747 LINE",
"57 742 OFFCURVE",
"72 732 OFFCURVE",
"89 686 CURVE SMOOTH",
"350 -10 LINE",
"373 -10 LINE"
);
}
);
width = 1090;
},
{
layerId = "FA6D65B5-4623-4FAC-A199-3F662257AC29";
paths = (
{
closed = 1;
nodes = (
"605 497 LINE",
"804 -10 LINE",
"852 -10 LINE",
"1099 622 LINE SMOOTH",
"1130 703 OFFCURVE",
"1152 720 OFFCURVE",
"1239 733 CURVE",
"1239 770 LINE",
"930 770 LINE",
"930 733 LINE",
"1013 723 OFFCURVE",
"1042 705 OFFCURVE",
"1042 671 CURVE SMOOTH",
"1042 658 OFFCURVE",
"1037 640 OFFCURVE",
"1031 624 CURVE SMOOTH",
"889 254 LINE",
"883 254 LINE",
"749 666 LINE SMOOTH",
"745 677 OFFCURVE",
"743 687 OFFCURVE",
"743 695 CURVE SMOOTH",
"743 721 OFFCURVE",
"768 729 OFFCURVE",
"841 733 CURVE",
"841 770 LINE",
"429 770 LINE",
"429 733 LINE",
"500 728 OFFCURVE",
"519 717 OFFCURVE",
"537 672 CURVE SMOOTH",
"571 585 LINE",
"444 254 LINE",
"438 254 LINE",
"304 666 LINE SMOOTH",
"300 677 OFFCURVE",
"298 687 OFFCURVE",
"298 695 CURVE SMOOTH",
"298 719 OFFCURVE",
"311 728 OFFCURVE",
"396 733 CURVE",
"396 770 LINE",
"-16 770 LINE",
"-16 733 LINE",
"55 728 OFFCURVE",
"74 717 OFFCURVE",
"92 672 CURVE SMOOTH",
"359 -10 LINE",
"407 -10 LINE"
);
}
);
width = 1212;
},
{
anchors = (
{
name = top;
position = "{457, 800}";
}
);
layerId = "AB50CDD9-E897-4D94-B806-C2DEA2F4ECD5";
paths = (
{
closed = 1;
nodes = (
"319 -16 LINE",
"303 -16 LINE",
"60 674 LINE",
"-22 682 LINE",
"-22 690 LINE",
"228 690 LINE",
"228 682 LINE",
"141 674 LINE",
"338 112 LINE",
"342 112 LINE",
"480 565 LINE",
"496 565 LINE"
);
},
{
closed = 1;
nodes = (
"758 690 LINE",
"971 690 LINE",
"971 682 LINE",
"915 677 LINE SMOOTH",
"879 674 OFFCURVE",
"870 667 OFFCURVE",
"861 637 CURVE SMOOTH",
"662 -16 LINE",
"646 -16 LINE",
"403 674 LINE",
"321 682 LINE",
"321 690 LINE",
"571 690 LINE",
"571 682 LINE",
"484 674 LINE",
"681 112 LINE",
"685 112 LINE",
"845 637 LINE SMOOTH",
"847 644 OFFCURVE",
"848 650 OFFCURVE",
"848 656 CURVE SMOOTH",
"848 670 OFFCURVE",
"842 675 OFFCURVE",
"819 677 CURVE SMOOTH",
"758 682 LINE"
);
}
);
width = 945;
}
);
leftKerningGroup = W;
rightKerningGroup = W;
unicode = 0057;
},
{
glyphname = X;
lastChange = "2018-10-22 19:21:51 +0000";
layers = (
{
layerId = master01;
paths = (
{
closed = 1;
nodes = (
"261 0 LINE",
"261 20 LINE",
"203 26 OFFCURVE",
"177 36 OFFCURVE",
"177 53 CURVE SMOOTH",
"177 62 OFFCURVE",
"182 76 OFFCURVE",
"194 92 CURVE SMOOTH",
"378 339 LINE",
"551 76 LINE SMOOTH",
"563 58 OFFCURVE",
"567 49 OFFCURVE",
"567 42 CURVE SMOOTH",
"567 31 OFFCURVE",
"552 27 OFFCURVE",
"489 22 CURVE",
"489 0 LINE",
"789 0 LINE",
"789 22 LINE",
"727 27 OFFCURVE",
"701 35 OFFCURVE",
"681 65 CURVE SMOOTH",
"448 421 LINE",
"639 678 LINE",
"677 723 OFFCURVE",
"704 734 OFFCURVE",
"776 747 CURVE",
"776 770 LINE",
"528 770 LINE",
"528 747 LINE",
"580 741 OFFCURVE",
"602 729 OFFCURVE",
"602 711 CURVE SMOOTH",
"602 700 OFFCURVE",
"596 689 OFFCURVE",
"586 675 CURVE SMOOTH",
"425 456 LINE",
"270 693 LINE SMOOTH",
"260 709 OFFCURVE",
"257 718 OFFCURVE",
"257 727 CURVE SMOOTH",
"257 738 OFFCURVE",
"267 744 OFFCURVE",
"326 747 CURVE",
"326 770 LINE",
"24 770 LINE",
"24 747 LINE",
"103 738 OFFCURVE",
"122 730 OFFCURVE",
"139 704 CURVE SMOOTH",
"353 377 LINE",
"141 91 LINE SMOOTH",
"107 45 OFFCURVE",
"67 30 OFFCURVE",
"-10 20 CURVE",
"-10 0 LINE"
);
}
);
width = 787;
},
{
layerId = "FA6D65B5-4623-4FAC-A199-3F662257AC29";
paths = (
{
closed = 1;
nodes = (
"287 0 LINE",
"287 37 LINE",
"229 43 OFFCURVE",
"203 53 OFFCURVE",
"203 70 CURVE SMOOTH",
"203 79 OFFCURVE",
"208 93 OFFCURVE",
"220 109 CURVE SMOOTH",
"374 317 LINE",
"526 91 LINE SMOOTH",
"538 73 OFFCURVE",
"542 63 OFFCURVE",
"542 57 CURVE SMOOTH",
"542 46 OFFCURVE",
"523 42 OFFCURVE",
"444 37 CURVE",
"444 0 LINE",
"859 0 LINE",
"859 37 LINE",
"797 42 OFFCURVE",
"771 50 OFFCURVE",
"751 80 CURVE SMOOTH",
"508 443 LINE",
"674 664 LINE SMOOTH",
"705 705 OFFCURVE",
"725 718 OFFCURVE",
"811 733 CURVE",
"811 770 LINE",
"530 770 LINE",
"530 733 LINE",
"589 727 OFFCURVE",
"614 715 OFFCURVE",
"614 697 CURVE SMOOTH",
"614 686 OFFCURVE",
"608 675 OFFCURVE",
"598 661 CURVE SMOOTH",
"474 494 LINE",
"351 679 LINE SMOOTH",
"341 695 OFFCURVE",
"338 703 OFFCURVE",
"338 712 CURVE SMOOTH",
"338 725 OFFCURVE",
"355 730 OFFCURVE",
"427 733 CURVE",
"427 770 LINE",
"10 770 LINE",
"10 733 LINE",
"92 723 OFFCURVE",
"107 716 OFFCURVE",
"125 690 CURVE SMOOTH",
"339 370 LINE",
"144 108 LINE SMOOTH",
"113 66 OFFCURVE",
"79 48 OFFCURVE",
"-7 37 CURVE",
"-7 0 LINE"
);
}
);
width = 840;
},
{
layerId = "AB50CDD9-E897-4D94-B806-C2DEA2F4ECD5";
paths = (
{
closed = 1;
nodes = (
"11 682 LINE",
"11 690 LINE",
"266 690 LINE",
"266 682 LINE",
"179 674 LINE",
"632 16 LINE",
"714 8 LINE",
"714 0 LINE",
"459 0 LINE",
"459 8 LINE",
"546 16 LINE",
"93 674 LINE"
);
},
{
closed = 1;
nodes = (
"205 0 LINE",
"1 0 LINE",
"1 8 LINE",
"52 12 LINE SMOOTH",
"84 15 OFFCURVE",
"97 22 OFFCURVE",
"116 48 CURVE SMOOTH",
"332 340 LINE",
"348 340 LINE",
"132 48 LINE SMOOTH",
"124 37 OFFCURVE",
"120 30 OFFCURVE",
"120 25 CURVE SMOOTH",
"120 18 OFFCURVE",
"129 15 OFFCURVE",
"148 13 CURVE",
"205 8 LINE"
);
},
{
closed = 1;
nodes = (
"500 690 LINE",
"704 690 LINE",
"704 682 LINE",
"653 678 LINE SMOOTH",
"621 675 OFFCURVE",
"608 668 OFFCURVE",
"589 642 CURVE SMOOTH",
"373 350 LINE",
"357 350 LINE",
"573 642 LINE SMOOTH",
"581 653 OFFCURVE",
"585 660 OFFCURVE",
"585 665 CURVE SMOOTH",
"585 672 OFFCURVE",
"576 675 OFFCURVE",
"557 677 CURVE",
"500 682 LINE"
);
}
);
width = 715;
}
);
unicode = 0058;
},
{
glyphname = Y;
lastChange = "2018-10-22 19:21:51 +0000";
layers = (
{
anchors = (
{
name = topcap;
position = "{399, 830}";
}
);
layerId = master01;
paths = (
{
closed = 1;
nodes = (
"494 0 LINE",
"494 23 LINE",
"405 42 LINE",
"405 309 LINE",
"581 636 LINE SMOOTH",
"617 702 OFFCURVE",
"620 731 OFFCURVE",
"726 747 CURVE",
"726 770 LINE",
"444 770 LINE",
"444 747 LINE",
"513 742 OFFCURVE",
"548 718 OFFCURVE",
"548 681 CURVE SMOOTH",
"548 668 OFFCURVE",
"544 654 OFFCURVE",
"536 638 CURVE SMOOTH",
"397 375 LINE",
"393 375 LINE",
"228 670 LINE SMOOTH",
"220 685 OFFCURVE",
"215 699 OFFCURVE",
"215 710 CURVE SMOOTH",
"215 730 OFFCURVE",
"233 742 OFFCURVE",
"320 747 CURVE",
"320 770 LINE",
"-8 770 LINE",
"-8 747 LINE",
"62 742 OFFCURVE",
"73 728 OFFCURVE",
"97 686 CURVE SMOOTH",
"300 327 LINE",
"300 42 LINE",
"210 23 LINE",
"210 0 LINE"
);
}
);
width = 709;
},
{
layerId = "FA6D65B5-4623-4FAC-A199-3F662257AC29";
paths = (
{
closed = 1;
nodes = (
"544 0 LINE",
"544 37 LINE",
"460 58 LINE",
"460 334 LINE",
"615 622 LINE SMOOTH",
"667 718 OFFCURVE",
"677 726 OFFCURVE",
"760 733 CURVE",
"760 770 LINE",
"458 770 LINE",
"458 733 LINE",
"540 731 OFFCURVE",
"569 716 OFFCURVE",
"569 684 CURVE SMOOTH",
"569 670 OFFCURVE",
"563 649 OFFCURVE",
"550 624 CURVE SMOOTH",
"435 405 LINE",
"431 405 LINE",
"303 656 LINE SMOOTH",
"297 667 OFFCURVE",
"294 676 OFFCURVE",
"294 685 CURVE SMOOTH",
"294 709 OFFCURVE",
"314 727 OFFCURVE",
"395 733 CURVE",
"395 770 LINE",
"-18 770 LINE",
"-18 733 LINE",
"52 728 OFFCURVE",
"69 722 OFFCURVE",
"97 672 CURVE SMOOTH",
"288 335 LINE",
"288 58 LINE",
"203 37 LINE",
"203 0 LINE"
);
}
);
width = 745;
},
{
anchors = (
{
name = top;
position = "{313, 800}";
}
);
layerId = "AB50CDD9-E897-4D94-B806-C2DEA2F4ECD5";
paths = (
{
closed = 1;
nodes = (
"421 690 LINE",
"634 690 LINE",
"634 682 LINE",
"578 677 LINE SMOOTH",
"544 674 OFFCURVE",
"538 666 OFFCURVE",
"524 637 CURVE SMOOTH",
"321 213 LINE",
"303 213 LINE",
"56 674 LINE",
"-26 682 LINE",
"-26 690 LINE",
"223 690 LINE",
"223 682 LINE",
"136 674 LINE",
"339 295 LINE",
"344 295 LINE",
"508 637 LINE SMOOTH",
"512 646 OFFCURVE",
"512 651 OFFCURVE",
"512 656 CURVE SMOOTH",
"512 669 OFFCURVE",
"504 675 OFFCURVE",
"482 677 CURVE SMOOTH",
"421 682 LINE"
);
},
{
closed = 1;
nodes = (
"350 16 LINE",
"437 8 LINE",
"437 0 LINE",
"186 0 LINE",
"186 8 LINE",
"273 16 LINE",
"273 280 LINE",
"350 280 LINE"
);
}
);
width = 612;
}
);
leftKerningGroup = Y;
rightKerningGroup = Y;
unicode = 0059;
},
{
glyphname = Z;
lastChange = "2018-10-22 19:21:51 +0000";
layers = (
{
anchors = (
{
name = bottom;
position = "{318, 0}";
},
{
name = topcap;
position = "{368, 830}";
}
);
layerId = master01;
paths = (
{
closed = 1;
nodes = (
"61 552 LINE",
"87 551 LINE",
"97 581 OFFCURVE",
"120 637 OFFCURVE",
"159 708 CURVE SMOOTH",
"171 730 LINE",
"489 730 LINE",
"31 28 LINE",
"31 0 LINE",
"580 0 LINE",
"632 244 LINE",
"606 247 LINE",
"588 202 OFFCURVE",
"556 129 OFFCURVE",
"509 58 CURVE SMOOTH",
"497 40 LINE",
"163 40 LINE",
"623 743 LINE",
"623 770 LINE",
"103 770 LINE"
);
}
);
width = 676;
},
{
layerId = "FA6D65B5-4623-4FAC-A199-3F662257AC29";
paths = (
{
closed = 1;
nodes = (
"48 541 LINE",
"89 541 LINE",
"99 571 OFFCURVE",
"121 622 OFFCURVE",
"160 693 CURVE SMOOTH",
"172 715 LINE",
"445 715 LINE",
"27 38 LINE",
"27 0 LINE",
"636 0 LINE",
"699 262 LINE",
"657 262 LINE",
"639 217 OFFCURVE",
"607 144 OFFCURVE",
"560 73 CURVE SMOOTH",
"548 55 LINE",
"259 55 LINE",
"679 733 LINE",
"679 770 LINE",
"99 770 LINE"
);
}
);
width = 730;
},
{
anchors = (
{
name = bottom;
position = "{291, 0}";
},
{
name = top;
position = "{307, 800}";
}
);
layerId = "AB50CDD9-E897-4D94-B806-C2DEA2F4ECD5";
paths = (
{
closed = 1;
nodes = (
"203 678 LINE SMOOTH",
"171 678 OFFCURVE",
"159 671 OFFCURVE",
"145 642 CURVE SMOOTH",
"69 491 LINE",
"55 493 LINE",
"96 690 LINE",
"534 690 LINE",
"534 682 LINE",
"125 16 LINE",
"125 12 LINE",
"399 12 LINE SMOOTH",
"431 12 OFFCURVE",
"442 19 OFFCURVE",
"455 49 CURVE SMOOTH",
"527 217 LINE",
"541 215 LINE",
"504 0 LINE",
"35 0 LINE",
"35 8 LINE",
"444 674 LINE",
"444 678 LINE"
);
}
);
width = 587;
}
);
leftKerningGroup = Z;
rightKerningGroup = Z;
unicode = 005A;
},
{
glyphname = a;
lastChange = "2018-10-22 19:21:51 +0000";
layers = (
{
anchors = (
{
name = bottom;
position = "{410, 0}";
},
{
name = top;
position = "{264, 651}";
}
);
layerId = master01;
paths = (
{
closed = 1;
nodes = (
"227 -10 OFFCURVE",
"286 25 OFFCURVE",
"325 82 CURVE",
"328 80 LINE",
"335 19 OFFCURVE",
"364 -10 OFFCURVE",
"417 -10 CURVE SMOOTH",
"460 -10 OFFCURVE",
"490 9 OFFCURVE",
"521 57 CURVE",
"504 72 LINE",
"487 51 OFFCURVE",
"474 43 OFFCURVE",
"455 43 CURVE SMOOTH",
"426 43 OFFCURVE",
"418 61 OFFCURVE",
"418 127 CURVE SMOOTH",
"418 356 LINE SMOOTH",
"418 440 OFFCURVE",
"416 464 OFFCURVE",
"405 487 CURVE SMOOTH",
"388 521 OFFCURVE",
"346 540 OFFCURVE",
"289 540 CURVE SMOOTH",
"246 540 OFFCURVE",
"201 529 OFFCURVE",
"162 509 CURVE SMOOTH",
"97 476 OFFCURVE",
"54 425 OFFCURVE",
"54 381 CURVE SMOOTH",
"54 352 OFFCURVE",
"73 333 OFFCURVE",
"100 333 CURVE SMOOTH",
"130 333 OFFCURVE",
"152 357 OFFCURVE",
"152 391 CURVE SMOOTH",
"152 402 OFFCURVE",
"150 415 OFFCURVE",
"150 426 CURVE SMOOTH",
"150 473 OFFCURVE",
"186 502 OFFCURVE",
"243 502 CURVE SMOOTH",
"301 502 OFFCURVE",
"323 471 OFFCURVE",
"323 387 CURVE SMOOTH",
"323 289 LINE",
"122 246 OFFCURVE",
"49 199 OFFCURVE",
"49 112 CURVE SMOOTH",
"49 40 OFFCURVE",
"98 -10 OFFCURVE",
"169 -10 CURVE SMOOTH"
);
},
{
closed = 1;
nodes = (
"165 49 OFFCURVE",
"138 79 OFFCURVE",
"138 133 CURVE SMOOTH",
"138 202 OFFCURVE",
"182 232 OFFCURVE",
"323 260 CURVE",
"323 116 LINE",
"297 74 OFFCURVE",
"256 49 OFFCURVE",
"213 49 CURVE SMOOTH"
);
}
);
width = 525;
},
{
anchors = (
{
name = bottom;
position = "{404, 0}";
},
{
name = top;
position = "{258, 651}";
}
);
layerId = "FA6D65B5-4623-4FAC-A199-3F662257AC29";
paths = (
{
closed = 1;
nodes = (
"231 -10 OFFCURVE",
"284 15 OFFCURVE",
"334 69 CURVE",
"338 69 LINE",
"348 16 OFFCURVE",
"380 -10 OFFCURVE",
"445 -10 CURVE SMOOTH",
"502 -10 OFFCURVE",
"548 11 OFFCURVE",
"591 57 CURVE",
"568 90 LINE",
"554 74 OFFCURVE",
"539 66 OFFCURVE",
"524 66 CURVE SMOOTH",
"497 66 OFFCURVE",
"486 91 OFFCURVE",
"486 150 CURVE SMOOTH",
"486 356 LINE SMOOTH",
"486 430 OFFCURVE",
"479 465 OFFCURVE",
"463 490 CURVE SMOOTH",
"441 523 OFFCURVE",
"398 540 OFFCURVE",
"326 540 CURVE SMOOTH",
"254 540 OFFCURVE",
"188 523 OFFCURVE",
"137 490 CURVE SMOOTH",
"87 457 OFFCURVE",
"58 413 OFFCURVE",
"58 371 CURVE SMOOTH",
"58 331 OFFCURVE",
"85 303 OFFCURVE",
"124 303 CURVE SMOOTH",
"163 303 OFFCURVE",
"193 332 OFFCURVE",
"193 370 CURVE SMOOTH",
"193 384 OFFCURVE",
"189 399 OFFCURVE",
"189 414 CURVE SMOOTH",
"189 456 OFFCURVE",
"220 482 OFFCURVE",
"270 482 CURVE SMOOTH",
"318 482 OFFCURVE",
"331 458 OFFCURVE",
"331 367 CURVE SMOOTH",
"331 294 LINE",
"129 266 OFFCURVE",
"38 208 OFFCURVE",
"38 108 CURVE SMOOTH",
"38 34 OFFCURVE",
"88 -10 OFFCURVE",
"170 -10 CURVE SMOOTH"
);
},
{
closed = 1;
nodes = (
"223 84 OFFCURVE",
"205 105 OFFCURVE",
"205 149 CURVE SMOOTH",
"205 205 OFFCURVE",
"234 228 OFFCURVE",
"331 247 CURVE",
"331 113 LINE",
"313 94 OFFCURVE",
"289 84 OFFCURVE",
"262 84 CURVE SMOOTH"
);
}
);
width = 585;
},
{
anchors = (
{
name = bottom;
position = "{309, 0}";
},
{
name = top;
position = "{190, 530}";
}
);
layerId = "AB50CDD9-E897-4D94-B806-C2DEA2F4ECD5";
paths = (
{
closed = 1;
nodes = (
"171 -7 OFFCURVE",
"214 17 OFFCURVE",
"244 55 CURVE",
"247 54 LINE",
"249 20 OFFCURVE",
"274 -3 OFFCURVE",
"309 -3 CURVE SMOOTH {name = hr01;}",
"340 -3 OFFCURVE",
"368 16 OFFCURVE",
"384 49 CURVE",
"380 51 LINE",
"372 39 OFFCURVE",
"357 32 OFFCURVE",
"340 32 CURVE SMOOTH",
"316 32 OFFCURVE",
"308 47 OFFCURVE",
"308 95 CURVE SMOOTH",
"308 286 LINE SMOOTH",
"308 358 OFFCURVE",
"307 373 OFFCURVE",
"300 391 CURVE SMOOTH",
"288 418 OFFCURVE",
"261 433 OFFCURVE",
"224 433 CURVE SMOOTH",
"194 433 OFFCURVE",
"160 424 OFFCURVE",
"131 408 CURVE SMOOTH",
"82 382 OFFCURVE",
"47 340 OFFCURVE",
"47 308 CURVE SMOOTH",
"47 287 OFFCURVE",
"61 272 OFFCURVE",
"81 272 CURVE SMOOTH",
"103 272 OFFCURVE",
"117 292 OFFCURVE",
"117 326 CURVE SMOOTH",
"117 335 OFFCURVE",
"116 346 OFFCURVE",
"116 353 CURVE SMOOTH",
"116 390 OFFCURVE",
"144 414 OFFCURVE",
"185 414 CURVE SMOOTH",
"228 414 OFFCURVE",
"243 388 OFFCURVE",
"243 311 CURVE SMOOTH",
"243 220 LINE",
"97 191 OFFCURVE",
"43 155 OFFCURVE",
"43 88 CURVE SMOOTH",
"43 32 OFFCURVE",
"79 -7 OFFCURVE",
"130 -7 CURVE SMOOTH"
);
},
{
closed = 1;
nodes = (
"134 31 OFFCURVE",
"110 60 OFFCURVE",
"110 107 CURVE SMOOTH",
"110 161 OFFCURVE",
"141 184 OFFCURVE",
"243 209 CURVE",
"243 68 LINE",
"227 44 OFFCURVE",
"200 31 OFFCURVE",
"173 31 CURVE SMOOTH"
);
}
);
width = 391;
}
);
leftKerningGroup = a;
rightKerningGroup = a;
unicode = 0061;
userData = {
com.typemytype.robofont.guides = (
{
angle = 359.5;
isGlobal = 0;
magnetic = 5;
x = 0;
y = 84;
}
);
};
},
{
glyphname = acute;
lastChange = "2018-10-22 19:21:51 +0000";
layers = (
{
anchors = (
{
name = _top;
position = "{81, 651}";
}
);
layerId = master01;
paths = (
{
closed = 1;
nodes = (
"66 812 LINE SMOOTH",
"76 841 OFFCURVE",
"92 859 OFFCURVE",
"121 859 CURVE SMOOTH",
"142 859 OFFCURVE",
"160 841 OFFCURVE",
"160 816 CURVE SMOOTH",
"160 799 OFFCURVE",
"152 782 OFFCURVE",
"130 755 CURVE SMOOTH",
"31 631 LINE",
"10 642 LINE"
);
}
);
width = 170;
},
{
anchors = (
{
name = _top;
position = "{81, 651}";
}
);
layerId = "FA6D65B5-4623-4FAC-A199-3F662257AC29";
paths = (
{
closed = 1;
nodes = (
"51 793 LINE SMOOTH",
"63 836 OFFCURVE",
"87 859 OFFCURVE",
"126 859 CURVE SMOOTH",
"153 859 OFFCURVE",
"171 841 OFFCURVE",
"171 814 CURVE SMOOTH",
"171 794 OFFCURVE",
"161 768 OFFCURVE",
"138 742 CURVE SMOOTH",
"41 631 LINE",
"10 642 LINE"
);
}
);
width = 181;
},
{
anchors = (
{
name = _top;
position = "{97, 530}";
}
);
layerId = "AB50CDD9-E897-4D94-B806-C2DEA2F4ECD5";
paths = (
{
closed = 1;
nodes = (
"95 685 OFFCURVE",
"106 691 OFFCURVE",
"121 691 CURVE SMOOTH",
"139 691 OFFCURVE",
"149 677 OFFCURVE",
"149 660 CURVE SMOOTH",
"149 647 OFFCURVE",
"139 638 OFFCURVE",
"113 605 CURVE SMOOTH",
"48 523 LINE",
"45 524 LINE",
"90 670 LINE"
);
}
);
width = 194;
}
);
unicode = 00B4;
},
{
glyphname = acute.cap;
lastChange = "2018-10-22 19:27:20 +0000";
layers = (
{
anchors = (
{
name = _topcap;
position = "{100, 830}";
}
);
layerId = master01;
paths = (
{
closed = 1;
nodes = (
"154 944 LINE SMOOTH",
"169 955 OFFCURVE",
"182 960 OFFCURVE",
"198 960 CURVE SMOOTH",
"220 960 OFFCURVE",
"241 942 OFFCURVE",
"241 917 CURVE SMOOTH",
"241 894 OFFCURVE",
"225 875 OFFCURVE",
"173 860 CURVE SMOOTH",
"21 816 LINE",
"10 837 LINE"
);
}
);
width = 251;
},
{
anchors = (
{
name = _topcap;
position = "{100, 830}";
}
);
layerId = "FA6D65B5-4623-4FAC-A199-3F662257AC29";
paths = (
{
closed = 1;
nodes = (
"135 939 LINE SMOOTH",
"158 956 OFFCURVE",
"179 963 OFFCURVE",
"196 963 CURVE SMOOTH",
"230 963 OFFCURVE",
"251 937 OFFCURVE",
"251 909 CURVE SMOOTH",
"251 884 OFFCURVE",
"234 857 OFFCURVE",
"192 849 CURVE SMOOTH",
"27 817 LINE",
"10 845 LINE"
);
}
);
width = 261;
},
{
layerId = "AB50CDD9-E897-4D94-B806-C2DEA2F4ECD5";
width = 600;
}
);
},
{
glyphname = ae;
lastChange = "2018-10-22 19:21:51 +0000";
layers = (
{
layerId = master01;
paths = (
{
closed = 1;
nodes = (
"232 -10 OFFCURVE",
"306 34 OFFCURVE",
"354 108 CURVE",
"358 108 LINE",
"398 34 OFFCURVE",
"471 -10 OFFCURVE",
"563 -10 CURVE SMOOTH",
"661 -10 OFFCURVE",
"743 40 OFFCURVE",
"778 121 CURVE SMOOTH",
"784 135 LINE",
"767 145 LINE",
"755 130 LINE SMOOTH",
"721 88 OFFCURVE",
"660 63 OFFCURVE",
"595 63 CURVE SMOOTH",
"476 63 OFFCURVE",
"423 139 OFFCURVE",
"423 308 CURVE",
"788 308 LINE",
"795 314 LINE",
"792 462 OFFCURVE",
"721 540 OFFCURVE",
"590 540 CURVE SMOOTH",
"517 540 OFFCURVE",
"456 516 OFFCURVE",
"410 474 CURVE",
"393 521 OFFCURVE",
"346 540 OFFCURVE",
"289 540 CURVE SMOOTH",
"246 540 OFFCURVE",
"201 529 OFFCURVE",
"162 509 CURVE SMOOTH",
"97 476 OFFCURVE",
"54 425 OFFCURVE",
"54 381 CURVE SMOOTH",
"54 352 OFFCURVE",
"73 333 OFFCURVE",
"100 333 CURVE SMOOTH",
"130 333 OFFCURVE",
"152 357 OFFCURVE",
"152 391 CURVE SMOOTH",
"152 402 OFFCURVE",
"150 415 OFFCURVE",
"150 426 CURVE SMOOTH",
"150 473 OFFCURVE",
"186 502 OFFCURVE",
"243 502 CURVE SMOOTH",
"301 502 OFFCURVE",
"323 471 OFFCURVE",
"323 387 CURVE SMOOTH",
"323 289 LINE",
"121 246 OFFCURVE",
"49 199 OFFCURVE",
"49 111 CURVE SMOOTH",
"49 40 OFFCURVE",
"99 -10 OFFCURVE",
"170 -10 CURVE SMOOTH"
);
},
{
closed = 1;
nodes = (
"653 509 OFFCURVE",
"690 467 OFFCURVE",
"690 385 CURVE SMOOTH",
"690 369 OFFCURVE",
"689 352 OFFCURVE",
"687 345 CURVE",
"425 336 LINE",
"438 447 OFFCURVE",
"493 509 OFFCURVE",
"581 509 CURVE SMOOTH"
);
},
{
closed = 1;
nodes = (
"165 49 OFFCURVE",
"138 80 OFFCURVE",
"138 133 CURVE SMOOTH",
"138 202 OFFCURVE",
"182 232 OFFCURVE",
"323 260 CURVE",
"323 213 OFFCURVE",
"330 173 OFFCURVE",
"344 138 CURVE",
"311 85 OFFCURVE",
"258 49 OFFCURVE",
"212 49 CURVE SMOOTH"
);
}
);
width = 836;
},
{
layerId = "FA6D65B5-4623-4FAC-A199-3F662257AC29";
paths = (
{
closed = 1;
nodes = (
"246 -10 OFFCURVE",
"305 20 OFFCURVE",
"377 92 CURVE",
"381 92 LINE",
"429 26 OFFCURVE",
"508 -10 OFFCURVE",
"603 -10 CURVE SMOOTH",
"717 -10 OFFCURVE",
"809 43 OFFCURVE",
"846 131 CURVE SMOOTH",
"851 143 LINE",
"823 167 LINE",
"816 159 LINE SMOOTH",
"780 118 OFFCURVE",
"718 93 OFFCURVE",
"653 93 CURVE SMOOTH",
"549 93 OFFCURVE",
"497 158 OFFCURVE",
"496 290 CURVE",
"860 290 LINE",
"868 296 LINE",
"863 457 OFFCURVE",
"781 540 OFFCURVE",
"630 540 CURVE SMOOTH",
"564 540 OFFCURVE",
"506 525 OFFCURVE",
"458 495 CURVE",
"429 527 OFFCURVE",
"391 540 OFFCURVE",
"327 540 CURVE SMOOTH",
"252 540 OFFCURVE",
"186 522 OFFCURVE",
"137 490 CURVE SMOOTH",
"88 457 OFFCURVE",
"58 411 OFFCURVE",
"58 370 CURVE SMOOTH",
"58 331 OFFCURVE",
"85 303 OFFCURVE",
"124 303 CURVE SMOOTH",
"163 303 OFFCURVE",
"193 332 OFFCURVE",
"193 370 CURVE SMOOTH",
"193 384 OFFCURVE",
"189 399 OFFCURVE",
"189 414 CURVE SMOOTH",
"189 456 OFFCURVE",
"220 482 OFFCURVE",
"270 482 CURVE SMOOTH",
"318 482 OFFCURVE",
"331 458 OFFCURVE",
"331 367 CURVE SMOOTH",
"331 294 LINE",
"128 266 OFFCURVE",
"38 208 OFFCURVE",
"38 107 CURVE SMOOTH",
"38 33 OFFCURVE",
"87 -10 OFFCURVE",
"174 -10 CURVE SMOOTH"
);
},
{
closed = 1;
nodes = (
"675 489 OFFCURVE",
"706 452 OFFCURVE",
"706 385 CURVE SMOOTH",
"706 370 OFFCURVE",
"704 355 OFFCURVE",
"702 345 CURVE",
"498 337 LINE",
"506 435 OFFCURVE",
"549 489 OFFCURVE",
"618 489 CURVE SMOOTH"
);
},
{
closed = 1;
nodes = (
"228 84 OFFCURVE",
"205 107 OFFCURVE",
"205 146 CURVE SMOOTH",
"205 198 OFFCURVE",
"244 230 OFFCURVE",
"330 247 CURVE",
"331 206 OFFCURVE",
"340 165 OFFCURVE",
"357 130 CURVE",
"325 99 OFFCURVE",
"295 84 OFFCURVE",
"265 84 CURVE SMOOTH"
);
}
);
width = 898;
},
{
layerId = "AB50CDD9-E897-4D94-B806-C2DEA2F4ECD5";
paths = (
{
closed = 1;
nodes = (
"178 -7 OFFCURVE",
"228 24 OFFCURVE",
"264 79 CURVE",
"290 26 OFFCURVE",
"348 -10 OFFCURVE",
"417 -10 CURVE SMOOTH",
"487 -10 OFFCURVE",
"543 31 OFFCURVE",
"569 101 CURVE SMOOTH",
"573 112 LINE",
"569 114 LINE",
"560 102 LINE SMOOTH",
"530 63 OFFCURVE",
"485 40 OFFCURVE",
"437 40 CURVE SMOOTH",
"355 40 OFFCURVE",
"309 107 OFFCURVE",
"309 228 CURVE SMOOTH",
"309 241 OFFCURVE",
"309 254 OFFCURVE",
"310 267 CURVE",
"571 267 LINE",
"577 272 LINE",
"574 379 OFFCURVE",
"524 434 OFFCURVE",
"430 434 CURVE SMOOTH",
"377 434 OFFCURVE",
"328 415 OFFCURVE",
"303 384 CURVE",
"288 418 OFFCURVE",
"263 433 OFFCURVE",
"224 433 CURVE SMOOTH {name = hr01;}",
"193 433 OFFCURVE",
"161 424 OFFCURVE",
"131 408 CURVE SMOOTH",
"82 382 OFFCURVE",
"47 340 OFFCURVE",
"47 308 CURVE SMOOTH",
"47 287 OFFCURVE",
"61 272 OFFCURVE",
"81 272 CURVE SMOOTH",
"103 272 OFFCURVE",
"117 292 OFFCURVE",
"117 326 CURVE SMOOTH",
"117 335 OFFCURVE",
"116 346 OFFCURVE",
"116 353 CURVE SMOOTH",
"116 390 OFFCURVE",
"144 414 OFFCURVE",
"185 414 CURVE SMOOTH",
"228 414 OFFCURVE",
"243 388 OFFCURVE",
"243 311 CURVE SMOOTH",
"243 220 LINE",
"97 191 OFFCURVE",
"43 155 OFFCURVE",
"43 88 CURVE SMOOTH",
"43 32 OFFCURVE",
"79 -7 OFFCURVE",
"130 -7 CURVE SMOOTH"
);
},
{
closed = 1;
nodes = (
"474 423 OFFCURVE",
"499 389 OFFCURVE",
"499 324 CURVE SMOOTH",
"499 308 OFFCURVE",
"498 292 OFFCURVE",
"496 285 CURVE",
"312 278 LINE",
"322 369 OFFCURVE",
"363 423 OFFCURVE",
"425 423 CURVE SMOOTH"
);
},
{
closed = 1;
nodes = (
"134 31 OFFCURVE",
"110 60 OFFCURVE",
"110 107 CURVE SMOOTH",
"110 160 OFFCURVE",
"141 183 OFFCURVE",
"244 209 CURVE",
"248 120 OFFCURVE",
"253 105 OFFCURVE",
"258 91 CURVE",
"237 52 OFFCURVE",
"208 31 OFFCURVE",
"173 31 CURVE SMOOTH"
);
}
);
width = 613;
}
);
leftKerningGroup = a;
rightKerningGroup = e;
unicode = 00E6;
userData = {
com.typemytype.robofont.guides = (
{
angle = 90;
isGlobal = 0;
magnetic = 5;
x = -118;
y = 0;
}
);
};
},
{
glyphname = ampersand;
lastChange = "2018-10-22 19:21:51 +0000";
layers = (
{
layerId = master01;
paths = (
{
closed = 1;
nodes = (
"212 513 OFFCURVE",
"202 571 OFFCURVE",
"202 607 CURVE SMOOTH",
"202 712 OFFCURVE",
"288 780 OFFCURVE",
"385 780 CURVE SMOOTH",
"462 780 OFFCURVE",
"529 737 OFFCURVE",
"529 662 CURVE SMOOTH",
"529 598 OFFCURVE",
"480 523 OFFCURVE",
"340 433 CURVE SMOOTH",
"218 355 OFFCURVE",
"194 290 OFFCURVE",
"194 224 CURVE SMOOTH",
"194 134 OFFCURVE",
"238 47 OFFCURVE",
"351 47 CURVE SMOOTH",
"409 47 OFFCURVE",
"494 70 OFFCURVE",
"568 182 CURVE SMOOTH",
"611 247 OFFCURVE",
"639 324 OFFCURVE",
"639 392 CURVE SMOOTH",
"639 426 OFFCURVE",
"632 431 OFFCURVE",
"542 441 CURVE SMOOTH",
"542 465 LINE",
"797 465 LINE",
"797 441 LINE SMOOTH",
"708 433 OFFCURVE",
"698 423 OFFCURVE",
"687 377 CURVE SMOOTH",
"674 322 OFFCURVE",
"645 234 OFFCURVE",
"594 156 CURVE SMOOTH",
"503 14 OFFCURVE",
"392 -10 OFFCURVE",
"307 -10 CURVE SMOOTH",
"159 -10 OFFCURVE",
"90 68 OFFCURVE",
"90 180 CURVE SMOOTH",
"90 286 OFFCURVE",
"152 353 OFFCURVE",
"326 463 CURVE SMOOTH",
"429 528 OFFCURVE",
"461 574 OFFCURVE",
"461 637 CURVE SMOOTH",
"461 707 OFFCURVE",
"421 744 OFFCURVE",
"364 744 CURVE SMOOTH",
"314 744 OFFCURVE",
"272 715 OFFCURVE",
"272 652 CURVE SMOOTH",
"272 614 OFFCURVE",
"287 574 OFFCURVE",
"346 502 CURVE SMOOTH",
"711 51 LINE",
"797 23 LINE",
"797 0 LINE",
"623 0 LINE",
"274 435 LINE"
);
}
);
width = 812;
},
{
layerId = "FA6D65B5-4623-4FAC-A199-3F662257AC29";
paths = (
{
closed = 1;
nodes = (
"183 517 OFFCURVE",
"172 573 OFFCURVE",
"172 608 CURVE SMOOTH",
"172 717 OFFCURVE",
"278 780 OFFCURVE",
"374 780 CURVE SMOOTH",
"461 780 OFFCURVE",
"529 728 OFFCURVE",
"529 653 CURVE SMOOTH",
"529 552 OFFCURVE",
"405 471 OFFCURVE",
"336 426 CURVE SMOOTH",
"281 390 OFFCURVE",
"202 337 OFFCURVE",
"202 233 CURVE SMOOTH",
"202 149 OFFCURVE",
"255 64 OFFCURVE",
"353 64 CURVE SMOOTH",
"423 64 OFFCURVE",
"504 108 OFFCURVE",
"559 187 CURVE SMOOTH",
"606 255 OFFCURVE",
"623 332 OFFCURVE",
"623 388 CURVE SMOOTH",
"623 427 OFFCURVE",
"615 431 OFFCURVE",
"538 441 CURVE SMOOTH",
"538 483 LINE",
"793 483 LINE",
"793 441 LINE SMOOTH",
"714 432 OFFCURVE",
"707 418 OFFCURVE",
"696 377 CURVE SMOOTH",
"682 326 OFFCURVE",
"647 236 OFFCURVE",
"593 157 CURVE SMOOTH",
"496 15 OFFCURVE",
"392 -10 OFFCURVE",
"298 -10 CURVE SMOOTH",
"131 -10 OFFCURVE",
"57 68 OFFCURVE",
"57 181 CURVE SMOOTH",
"57 289 OFFCURVE",
"124 337 OFFCURVE",
"322 474 CURVE SMOOTH",
"402 530 OFFCURVE",
"424 569 OFFCURVE",
"424 634 CURVE SMOOTH",
"424 712 OFFCURVE",
"393 736 OFFCURVE",
"363 736 CURVE SMOOTH",
"333 736 OFFCURVE",
"305 712 OFFCURVE",
"305 658 CURVE SMOOTH",
"305 610 OFFCURVE",
"327 570 OFFCURVE",
"382 502 CURVE SMOOTH",
"737 64 LINE",
"833 36 LINE",
"833 0 LINE",
"604 0 LINE",
"250 435 LINE SMOOTH"
);
}
);
width = 825;
},
{
layerId = "AB50CDD9-E897-4D94-B806-C2DEA2F4ECD5";
paths = (
{
closed = 1;
nodes = (
"787 102 LINE",
"783 91 LINE SMOOTH",
"758 22 OFFCURVE",
"700 -20 OFFCURVE",
"631 -20 CURVE SMOOTH",
"579 -20 OFFCURVE",
"540 3 OFFCURVE",
"488 63 CURVE SMOOTH",
"220 374 LINE SMOOTH",
"158 445 OFFCURVE",
"137 487 OFFCURVE",
"137 538 CURVE SMOOTH",
"137 636 OFFCURVE",
"214 706 OFFCURVE",
"321 706 CURVE SMOOTH",
"413 706 OFFCURVE",
"476 654 OFFCURVE",
"476 578 CURVE SMOOTH",
"476 499 OFFCURVE",
"408 422 OFFCURVE",
"307 385 CURVE",
"303 392 LINE",
"373 430 OFFCURVE",
"409 488 OFFCURVE",
"409 565 CURVE SMOOTH",
"409 644 OFFCURVE",
"370 694 OFFCURVE",
"308 694 CURVE SMOOTH",
"249 694 OFFCURVE",
"207 648 OFFCURVE",
"207 581 CURVE SMOOTH",
"207 526 OFFCURVE",
"236 469 OFFCURVE",
"303 394 CURVE SMOOTH",
"544 120 LINE SMOOTH",
"598 59 OFFCURVE",
"626 40 OFFCURVE",
"670 40 CURVE SMOOTH",
"709 40 OFFCURVE",
"737 54 OFFCURVE",
"773 93 CURVE SMOOTH",
"783 104 LINE"
);
},
{
closed = 1;
nodes = (
"529 102 OFFCURVE",
"395 -20 OFFCURVE",
"241 -20 CURVE SMOOTH",
"117 -20 OFFCURVE",
"46 41 OFFCURVE",
"46 147 CURVE SMOOTH",
"46 249 OFFCURVE",
"114 328 OFFCURVE",
"244 369 CURVE",
"250 365 LINE",
"179 328 OFFCURVE",
"136 256 OFFCURVE",
"136 172 CURVE SMOOTH",
"136 78 OFFCURVE",
"192 16 OFFCURVE",
"277 16 CURVE SMOOTH",
"404 16 OFFCURVE",
"541 145 OFFCURVE",
"611 331 CURVE SMOOTH",
"614 339 OFFCURVE",
"615 342 OFFCURVE",
"615 348 CURVE SMOOTH",
"615 363 OFFCURVE",
"608 369 OFFCURVE",
"585 371 CURVE SMOOTH",
"504 376 LINE",
"504 384 LINE",
"757 384 LINE",
"757 376 LINE",
"681 371 LINE SMOOTH",
"647 369 OFFCURVE",
"640 363 OFFCURVE",
"627 331 CURVE SMOOTH"
);
}
);
width = 828;
}
);
unicode = 0026;
},
{
glyphname = apostrophe;
lastChange = "2018-10-22 19:21:51 +0000";
layers = (
{
anchors = (
{
name = _top;
position = "{68, 651}";
}
);
layerId = master01;
paths = (
{
closed = 1;
nodes = (
"95 677 OFFCURVE",
"125 725 OFFCURVE",
"125 786 CURVE SMOOTH",
"125 825 OFFCURVE",
"101 857 OFFCURVE",
"66 857 CURVE SMOOTH",
"34 857 OFFCURVE",
"10 833 OFFCURVE",
"10 801 CURVE SMOOTH",
"10 751 OFFCURVE",
"69 760 OFFCURVE",
"69 721 CURVE SMOOTH",
"69 707 OFFCURVE",
"49 683 OFFCURVE",
"21 664 CURVE",
"37 640 LINE"
);
}
);
width = 135;
},
{
anchors = (
{
name = _top;
position = "{68, 651}";
}
);
layerId = "FA6D65B5-4623-4FAC-A199-3F662257AC29";
paths = (
{
closed = 1;
nodes = (
"114 652 OFFCURVE",
"153 704 OFFCURVE",
"153 768 CURVE SMOOTH",
"153 823 OFFCURVE",
"124 857 OFFCURVE",
"79 857 CURVE SMOOTH",
"39 857 OFFCURVE",
"10 831 OFFCURVE",
"10 797 CURVE SMOOTH",
"10 744 OFFCURVE",
"77 746 OFFCURVE",
"77 712 CURVE SMOOTH",
"77 694 OFFCURVE",
"58 670 OFFCURVE",
"25 647 CURVE",
"45 620 LINE"
);
}
);
width = 163;
},
{
anchors = (
{
name = _top;
position = "{72, 530}";
}
);
layerId = "AB50CDD9-E897-4D94-B806-C2DEA2F4ECD5";
paths = (
{
closed = 1;
nodes = (
"74 530 LINE",
"97 651 LINE SMOOTH",
"98 657 OFFCURVE",
"99 662 OFFCURVE",
"99 666 CURVE SMOOTH",
"99 687 OFFCURVE",
"88 696 OFFCURVE",
"72 696 CURVE SMOOTH",
"56 696 OFFCURVE",
"45 687 OFFCURVE",
"45 666 CURVE SMOOTH",
"45 662 OFFCURVE",
"46 657 OFFCURVE",
"47 651 CURVE SMOOTH",
"70 530 LINE"
);
}
);
width = 144;
}
);
unicode = 02BC;
},
{
glyphname = asciicircum;
lastChange = "2018-10-22 19:21:51 +0000";
layers = (
{
layerId = master01;
paths = (
{
closed = 1;
nodes = (
"232 711 LINE",
"268 711 LINE",
"452 332 LINE",
"410 332 LINE",
"251 649 LINE",
"247 649 LINE",
"90 332 LINE",
"47 332 LINE"
);
}
);
width = 499;
},
{
layerId = "FA6D65B5-4623-4FAC-A199-3F662257AC29";
paths = (
{
closed = 1;
nodes = (
"225 711 LINE",
"261 711 LINE",
"445 332 LINE",
"383 332 LINE",
"244 609 LINE",
"240 609 LINE",
"103 332 LINE",
"40 332 LINE"
);
}
);
width = 485;
},
{
layerId = "AB50CDD9-E897-4D94-B806-C2DEA2F4ECD5";
paths = (
{
closed = 1;
nodes = (
"207 387 OFFCURVE",
"199 396 OFFCURVE",
"182 396 CURVE SMOOTH",
"167 396 OFFCURVE",
"157 389 OFFCURVE",
"151 375 CURVE SMOOTH",
"66 189 LINE",
"69 188 LINE",
"182 334 LINE",
"295 188 LINE",
"298 189 LINE",
"213 375 LINE SMOOTH"
);
}
);
width = 364;
}
);
unicode = 005E;
},
{
glyphname = asciitilde;
lastChange = "2018-10-22 19:21:51 +0000";
layers = (
{
layerId = master01;
paths = (
{
closed = 1;
nodes = (
"80 275 OFFCURVE",
"106 359 OFFCURVE",
"198 359 CURVE SMOOTH",
"270 359 OFFCURVE",
"338 307 OFFCURVE",
"412 307 CURVE SMOOTH",
"457 307 OFFCURVE",
"471 328 OFFCURVE",
"480 359 CURVE",
"510 359 LINE",
"510 307 OFFCURVE",
"484 223 OFFCURVE",
"392 223 CURVE SMOOTH",
"321 223 OFFCURVE",
"251 276 OFFCURVE",
"178 276 CURVE SMOOTH",
"133 276 OFFCURVE",
"119 254 OFFCURVE",
"110 223 CURVE",
"80 223 LINE"
);
}
);
width = 588;
},
{
layerId = "FA6D65B5-4623-4FAC-A199-3F662257AC29";
paths = (
{
closed = 1;
nodes = (
"70 275 OFFCURVE",
"96 359 OFFCURVE",
"188 359 CURVE SMOOTH",
"260 359 OFFCURVE",
"328 307 OFFCURVE",
"402 307 CURVE SMOOTH",
"447 307 OFFCURVE",
"461 328 OFFCURVE",
"470 359 CURVE",
"500 359 LINE",
"500 307 OFFCURVE",
"474 223 OFFCURVE",
"382 223 CURVE SMOOTH",
"311 223 OFFCURVE",
"241 276 OFFCURVE",
"168 276 CURVE SMOOTH",
"123 276 OFFCURVE",
"109 254 OFFCURVE",
"100 223 CURVE",
"70 223 LINE"
);
}
);
width = 568;
},
{
layerId = "AB50CDD9-E897-4D94-B806-C2DEA2F4ECD5";
paths = (
{
closed = 1;
nodes = (
"76 279 OFFCURVE",
"104 313 OFFCURVE",
"146 313 CURVE SMOOTH",
"198 313 OFFCURVE",
"272 280 OFFCURVE",
"325 280 CURVE SMOOTH",
"349 280 OFFCURVE",
"362 293 OFFCURVE",
"367 316 CURVE",
"372 316 LINE",
"372 261 OFFCURVE",
"345 226 OFFCURVE",
"302 226 CURVE SMOOTH",
"247 226 OFFCURVE",
"177 262 OFFCURVE",
"122 262 CURVE SMOOTH",
"98 262 OFFCURVE",
"83 249 OFFCURVE",
"80 227 CURVE",
"76 227 LINE"
);
}
);
width = 444;
}
);
unicode = 007E;
},
{
glyphname = asterisk;
lastChange = "2018-10-22 19:21:51 +0000";
layers = (
{
layerId = master01;
paths = (
{
closed = 1;
nodes = (
"257 578 LINE SMOOTH",
"263 533 OFFCURVE",
"279 498 OFFCURVE",
"279 472 CURVE SMOOTH",
"279 449 OFFCURVE",
"266 432 OFFCURVE",
"242 432 CURVE SMOOTH",
"218 432 OFFCURVE",
"204 449 OFFCURVE",
"204 476 CURVE SMOOTH",
"204 505 OFFCURVE",
"222 540 OFFCURVE",
"227 579 CURVE SMOOTH",
"231 612 LINE",
"203 591 LINE SMOOTH",
"162 560 OFFCURVE",
"144 514 OFFCURVE",
"104 514 CURVE SMOOTH",
"79 514 OFFCURVE",
"63 530 OFFCURVE",
"63 553 CURVE SMOOTH",
"63 599 OFFCURVE",
"131 591 OFFCURVE",
"190 618 CURVE SMOOTH",
"219 631 LINE",
"188 644 LINE SMOOTH",
"130 668 OFFCURVE",
"63 660 OFFCURVE",
"63 707 CURVE SMOOTH",
"63 729 OFFCURVE",
"77 747 OFFCURVE",
"104 747 CURVE SMOOTH",
"144 747 OFFCURVE",
"159 702 OFFCURVE",
"204 669 CURVE SMOOTH",
"230 650 LINE",
"226 684 LINE SMOOTH",
"221 728 OFFCURVE",
"203 752 OFFCURVE",
"203 784 CURVE SMOOTH",
"203 816 OFFCURVE",
"220 830 OFFCURVE",
"241 830 CURVE SMOOTH",
"261 830 OFFCURVE",
"278 816 OFFCURVE",
"278 784 CURVE SMOOTH",
"277 751 OFFCURVE",
"259 730 OFFCURVE",
"255 682 CURVE SMOOTH",
"252 650 LINE",
"277 670 LINE SMOOTH",
"327 710 OFFCURVE",
"339 748 OFFCURVE",
"377 748 CURVE SMOOTH",
"405 748 OFFCURVE",
"418 729 OFFCURVE",
"418 708 CURVE SMOOTH",
"418 661 OFFCURVE",
"351 669 OFFCURVE",
"293 645 CURVE SMOOTH",
"262 632 LINE",
"291 619 LINE SMOOTH",
"354 591 OFFCURVE",
"418 600 OFFCURVE",
"418 554 CURVE SMOOTH",
"418 530 OFFCURVE",
"401 515 OFFCURVE",
"377 515 CURVE SMOOTH",
"337 515 OFFCURVE",
"319 561 OFFCURVE",
"278 592 CURVE SMOOTH",
"252 612 LINE"
);
}
);
width = 481;
},
{
layerId = "FA6D65B5-4623-4FAC-A199-3F662257AC29";
paths = (
{
closed = 1;
nodes = (
"265 548 LINE SMOOTH",
"267 511 OFFCURVE",
"288 493 OFFCURVE",
"288 465 CURVE SMOOTH",
"288 431 OFFCURVE",
"266 414 OFFCURVE",
"241 414 CURVE SMOOTH",
"217 414 OFFCURVE",
"196 430 OFFCURVE",
"196 466 CURVE SMOOTH",
"196 493 OFFCURVE",
"218 510 OFFCURVE",
"220 551 CURVE SMOOTH",
"222 591 LINE",
"189 566 LINE SMOOTH",
"150 537 OFFCURVE",
"143 495 OFFCURVE",
"100 495 CURVE SMOOTH",
"75 495 OFFCURVE",
"56 517 OFFCURVE",
"56 542 CURVE SMOOTH",
"56 602 OFFCURVE",
"133 590 OFFCURVE",
"168 606 CURVE SMOOTH",
"203 622 LINE",
"165 639 LINE SMOOTH",
"128 655 OFFCURVE",
"54 645 OFFCURVE",
"54 702 CURVE SMOOTH",
"54 725 OFFCURVE",
"72 749 OFFCURVE",
"98 749 CURVE SMOOTH",
"143 749 OFFCURVE",
"149 706 OFFCURVE",
"190 678 CURVE SMOOTH",
"222 656 LINE",
"218 696 LINE SMOOTH",
"214 733 OFFCURVE",
"195 752 OFFCURVE",
"195 779 CURVE SMOOTH",
"195 814 OFFCURVE",
"217 830 OFFCURVE",
"241 830 CURVE SMOOTH",
"264 830 OFFCURVE",
"287 814 OFFCURVE",
"287 779 CURVE SMOOTH",
"287 751 OFFCURVE",
"265 734 OFFCURVE",
"263 694 CURVE SMOOTH",
"261 656 LINE",
"293 678 LINE SMOOTH",
"334 706 OFFCURVE",
"340 749 OFFCURVE",
"384 749 CURVE SMOOTH",
"410 749 OFFCURVE",
"429 725 OFFCURVE",
"429 702 CURVE SMOOTH",
"429 645 OFFCURVE",
"351 654 OFFCURVE",
"318 639 CURVE SMOOTH",
"280 622 LINE",
"315 606 LINE SMOOTH",
"352 589 OFFCURVE",
"427 600 OFFCURVE",
"427 542 CURVE SMOOTH",
"427 517 OFFCURVE",
"408 495 OFFCURVE",
"383 495 CURVE SMOOTH",
"340 495 OFFCURVE",
"331 537 OFFCURVE",
"294 566 CURVE SMOOTH",
"262 591 LINE"
);
}
);
width = 483;
},
{
layerId = "AB50CDD9-E897-4D94-B806-C2DEA2F4ECD5";
paths = (
{
closed = 1;
nodes = (
"231 705 OFFCURVE",
"220 714 OFFCURVE",
"204 714 CURVE SMOOTH",
"188 714 OFFCURVE",
"177 705 OFFCURVE",
"177 685 CURVE SMOOTH",
"177 660 OFFCURVE",
"198 638 OFFCURVE",
"199 565 CURVE",
"127 614 OFFCURVE",
"118 652 OFFCURVE",
"91 652 CURVE SMOOTH",
"78 652 OFFCURVE",
"65 644 OFFCURVE",
"65 627 CURVE SMOOTH",
"65 597 OFFCURVE",
"108 607 OFFCURVE",
"194 557 CURVE",
"107 508 OFFCURVE",
"65 518 OFFCURVE",
"65 487 CURVE SMOOTH",
"65 470 OFFCURVE",
"78 463 OFFCURVE",
"90 463 CURVE SMOOTH",
"118 463 OFFCURVE",
"127 501 OFFCURVE",
"199 549 CURVE",
"198 477 OFFCURVE",
"177 454 OFFCURVE",
"177 430 CURVE SMOOTH",
"177 411 OFFCURVE",
"188 401 OFFCURVE",
"204 401 CURVE SMOOTH",
"220 401 OFFCURVE",
"231 412 OFFCURVE",
"231 430 CURVE SMOOTH",
"231 455 OFFCURVE",
"210 478 OFFCURVE",
"209 549 CURVE",
"281 501 OFFCURVE",
"290 463 OFFCURVE",
"317 463 CURVE SMOOTH",
"330 463 OFFCURVE",
"343 471 OFFCURVE",
"343 488 CURVE SMOOTH",
"343 518 OFFCURVE",
"300 508 OFFCURVE",
"214 557 CURVE",
"301 607 OFFCURVE",
"343 597 OFFCURVE",
"343 627 CURVE SMOOTH",
"343 645 OFFCURVE",
"329 652 OFFCURVE",
"317 652 CURVE SMOOTH",
"290 652 OFFCURVE",
"281 614 OFFCURVE",
"209 565 CURVE",
"210 637 OFFCURVE",
"231 659 OFFCURVE",
"231 685 CURVE SMOOTH"
);
}
);
width = 408;
}
);
unicode = 002A;
},
{
glyphname = at;
lastChange = "2018-10-22 19:21:51 +0000";
layers = (
{
layerId = master01;
paths = (
{
closed = 1;
nodes = (
"233 -143 OFFCURVE",
"57 -45 OFFCURVE",
"57 203 CURVE SMOOTH",
"57 465 OFFCURVE",
"253 640 OFFCURVE",
"481 640 CURVE SMOOTH",
"685 640 OFFCURVE",
"811 500 OFFCURVE",
"811 328 CURVE SMOOTH",
"811 171 OFFCURVE",
"707 31 OFFCURVE",
"580 31 CURVE SMOOTH",
"514 31 OFFCURVE",
"477 68 OFFCURVE",
"477 113 CURVE SMOOTH",
"477 125 OFFCURVE",
"477 132 OFFCURVE",
"482 137 CURVE SMOOTH",
"478 138 LINE SMOOTH",
"427 70 OFFCURVE",
"373 44 OFFCURVE",
"324 44 CURVE SMOOTH",
"255 44 OFFCURVE",
"222 94 OFFCURVE",
"222 163 CURVE SMOOTH",
"222 299 OFFCURVE",
"350 460 OFFCURVE",
"472 460 CURVE SMOOTH",
"512 460 OFFCURVE",
"536 443 OFFCURVE",
"550 421 CURVE SMOOTH",
"554 421 LINE",
"565 460 LINE",
"645 460 LINE",
"564 170 LINE SMOOTH",
"559 154 OFFCURVE",
"555 135 OFFCURVE",
"555 120 CURVE SMOOTH",
"555 89 OFFCURVE",
"572 81 OFFCURVE",
"596 81 CURVE SMOOTH",
"682 81 OFFCURVE",
"761 185 OFFCURVE",
"761 325 CURVE SMOOTH",
"761 512 OFFCURVE",
"619 595 OFFCURVE",
"471 595 CURVE SMOOTH",
"247 595 OFFCURVE",
"113 407 OFFCURVE",
"113 202 CURVE SMOOTH",
"113 63 OFFCURVE",
"174 -104 OFFCURVE",
"443 -104 CURVE SMOOTH",
"526 -104 OFFCURVE",
"580 -88 OFFCURVE",
"620 -64 CURVE SMOOTH",
"631 -93 LINE SMOOTH",
"565 -126 OFFCURVE",
"494 -143 OFFCURVE",
"418 -143 CURVE SMOOTH"
);
},
{
closed = 1;
nodes = (
"393 99 OFFCURVE",
"439 138 OFFCURVE",
"474 200 CURVE SMOOTH",
"497 240 OFFCURVE",
"521 300 OFFCURVE",
"521 358 CURVE SMOOTH",
"521 392 OFFCURVE",
"510 417 OFFCURVE",
"477 417 CURVE SMOOTH",
"401 417 OFFCURVE",
"309 289 OFFCURVE",
"309 165 CURVE SMOOTH",
"309 118 OFFCURVE",
"322 99 OFFCURVE",
"351 99 CURVE SMOOTH"
);
}
);
width = 875;
},
{
layerId = "FA6D65B5-4623-4FAC-A199-3F662257AC29";
paths = (
{
closed = 1;
nodes = (
"210 -159 OFFCURVE",
"45 -25 OFFCURVE",
"45 201 CURVE SMOOTH",
"45 468 OFFCURVE",
"277 650 OFFCURVE",
"519 650 CURVE SMOOTH",
"740 650 OFFCURVE",
"866 499 OFFCURVE",
"866 336 CURVE SMOOTH",
"866 182 OFFCURVE",
"753 29 OFFCURVE",
"606 29 CURVE SMOOTH",
"577 29 OFFCURVE",
"549 35 OFFCURVE",
"530 52 CURVE SMOOTH",
"511 69 OFFCURVE",
"504 94 OFFCURVE",
"500 120 CURVE",
"496 120 LINE",
"450 74 OFFCURVE",
"398 45 OFFCURVE",
"344 45 CURVE SMOOTH",
"299 45 OFFCURVE",
"222 65 OFFCURVE",
"222 173 CURVE SMOOTH",
"222 303 OFFCURVE",
"333 461 OFFCURVE",
"484 461 CURVE SMOOTH",
"533 461 OFFCURVE",
"553 444 OFFCURVE",
"568 420 CURVE",
"572 420 LINE",
"581 461 LINE",
"698 461 LINE",
"617 181 LINE SMOOTH",
"613 167 OFFCURVE",
"610 155 OFFCURVE",
"610 141 CURVE SMOOTH",
"610 113 OFFCURVE",
"622 101 OFFCURVE",
"646 101 CURVE SMOOTH",
"714 101 OFFCURVE",
"789 195 OFFCURVE",
"789 331 CURVE SMOOTH",
"789 498 OFFCURVE",
"676 589 OFFCURVE",
"508 589 CURVE SMOOTH",
"284 589 OFFCURVE",
"116 426 OFFCURVE",
"116 206 CURVE SMOOTH",
"116 17 OFFCURVE",
"237 -106 OFFCURVE",
"468 -106 CURVE SMOOTH",
"548 -106 OFFCURVE",
"609 -89 OFFCURVE",
"665 -56 CURVE",
"683 -99 LINE",
"626 -137 OFFCURVE",
"543 -159 OFFCURVE",
"447 -159 CURVE SMOOTH"
);
},
{
closed = 1;
nodes = (
"418 99 OFFCURVE",
"461 130 OFFCURVE",
"497 212 CURVE SMOOTH",
"511 245 OFFCURVE",
"533 307 OFFCURVE",
"533 361 CURVE SMOOTH",
"533 389 OFFCURVE",
"527 407 OFFCURVE",
"503 407 CURVE SMOOTH",
"433 407 OFFCURVE",
"355 259 OFFCURVE",
"355 154 CURVE SMOOTH",
"355 117 OFFCURVE",
"365 99 OFFCURVE",
"388 99 CURVE SMOOTH"
);
}
);
width = 920;
},
{
layerId = "AB50CDD9-E897-4D94-B806-C2DEA2F4ECD5";
paths = (
{
closed = 1;
nodes = (
"500 -157 OFFCURVE",
"439 -173 OFFCURVE",
"370 -173 CURVE SMOOTH",
"173 -173 OFFCURVE",
"43 -56 OFFCURVE",
"43 122 CURVE SMOOTH",
"43 327 OFFCURVE",
"209 488 OFFCURVE",
"420 488 CURVE SMOOTH",
"584 488 OFFCURVE",
"702 382 OFFCURVE",
"702 233 CURVE SMOOTH",
"702 104 OFFCURVE",
"614 -6 OFFCURVE",
"510 -6 CURVE SMOOTH",
"459 -6 OFFCURVE",
"429 20 OFFCURVE",
"429 65 CURVE SMOOTH",
"429 73 OFFCURVE",
"430 79 OFFCURVE",
"433 83 CURVE",
"430 84 LINE",
"394 32 OFFCURVE",
"352 5 OFFCURVE",
"304 5 CURVE SMOOTH",
"244 5 OFFCURVE",
"207 44 OFFCURVE",
"207 107 CURVE SMOOTH",
"207 221 OFFCURVE",
"325 354 OFFCURVE",
"425 354 CURVE SMOOTH",
"456 354 OFFCURVE",
"476 342 OFFCURVE",
"488 314 CURVE",
"492 314 LINE",
"504 354 LINE",
"580 354 LINE",
"502 90 LINE SMOOTH",
"497 76 OFFCURVE",
"496 68 OFFCURVE",
"496 57 CURVE SMOOTH",
"496 27 OFFCURVE",
"506 16 OFFCURVE",
"531 16 CURVE SMOOTH",
"612 16 OFFCURVE",
"687 119 OFFCURVE",
"687 232 CURVE SMOOTH",
"687 373 OFFCURVE",
"575 473 OFFCURVE",
"419 473 CURVE SMOOTH",
"242 473 OFFCURVE",
"107 324 OFFCURVE",
"107 129 CURVE SMOOTH",
"107 -46 OFFCURVE",
"217 -157 OFFCURVE",
"390 -157 CURVE SMOOTH",
"451 -157 OFFCURVE",
"493 -145 OFFCURVE",
"546 -114 CURVE",
"551 -127 LINE"
);
},
{
closed = 1;
nodes = (
"397 19 OFFCURVE",
"476 154 OFFCURVE",
"476 275 CURVE SMOOTH",
"476 322 OFFCURVE",
"464 342 OFFCURVE",
"436 342 CURVE SMOOTH",
"364 342 OFFCURVE",
"280 209 OFFCURVE",
"280 94 CURVE SMOOTH",
"280 45 OFFCURVE",
"296 19 OFFCURVE",
"325 19 CURVE SMOOTH"
);
}
);
width = 752;
}
);
unicode = 0040;
},
{
glyphname = b;
lastChange = "2018-10-22 19:21:51 +0000";
layers = (
{
layerId = master01;
paths = (
{
closed = 1;
nodes = (
"442 -10 OFFCURVE",
"556 118 OFFCURVE",
"556 287 CURVE SMOOTH",
"556 437 OFFCURVE",
"466 540 OFFCURVE",
"335 540 CURVE SMOOTH",
"276 540 OFFCURVE",
"225 517 OFFCURVE",
"183 472 CURVE",
"183 830 LINE",
"173 830 LINE",
"14 781 LINE",
"14 768 LINE",
"87 741 LINE",
"87 2 LINE",
"103 2 LINE",
"149 36 LINE",
"154 36 LINE",
"194 6 OFFCURVE",
"242 -10 OFFCURVE",
"292 -10 CURVE SMOOTH"
);
},
{
closed = 1;
nodes = (
"226 24 OFFCURVE",
"183 74 OFFCURVE",
"183 150 CURVE SMOOTH",
"183 434 LINE",
"209 466 OFFCURVE",
"248 486 OFFCURVE",
"293 486 CURVE SMOOTH",
"390 486 OFFCURVE",
"449 400 OFFCURVE",
"449 259 CURVE SMOOTH",
"449 118 OFFCURVE",
"387 24 OFFCURVE",
"292 24 CURVE SMOOTH"
);
}
);
width = 602;
},
{
layerId = "FA6D65B5-4623-4FAC-A199-3F662257AC29";
paths = (
{
closed = 1;
nodes = (
"503 -10 OFFCURVE",
"621 118 OFFCURVE",
"621 287 CURVE SMOOTH",
"621 437 OFFCURVE",
"531 540 OFFCURVE",
"400 540 CURVE SMOOTH",
"336 540 OFFCURVE",
"279 513 OFFCURVE",
"234 469 CURVE",
"234 830 LINE",
"212 830 LINE",
"-5 781 LINE",
"-5 758 LINE",
"79 731 LINE",
"79 0 LINE",
"108 0 LINE",
"194 36 LINE",
"200 36 LINE",
"243 6 OFFCURVE",
"296 -10 OFFCURVE",
"350 -10 CURVE SMOOTH"
);
},
{
closed = 1;
nodes = (
"272 44 OFFCURVE",
"234 94 OFFCURVE",
"234 170 CURVE SMOOTH",
"234 404 LINE",
"258 440 OFFCURVE",
"291 462 OFFCURVE",
"331 462 CURVE SMOOTH",
"408 462 OFFCURVE",
"452 386 OFFCURVE",
"452 259 CURVE SMOOTH",
"452 130 OFFCURVE",
"404 44 OFFCURVE",
"330 44 CURVE SMOOTH"
);
}
);
width = 658;
},
{
layerId = "AB50CDD9-E897-4D94-B806-C2DEA2F4ECD5";
paths = (
{
closed = 1;
nodes = (
"185 -10 OFFCURVE",
"146 3 OFFCURVE",
"114 27 CURVE",
"110 27 LINE",
"80 0 LINE",
"72 0 LINE",
"72 653 LINE",
"13 675 LINE",
"13 682 LINE",
"129 721 LINE",
"137 721 LINE",
"137 377 LINE",
"172 415 OFFCURVE",
"213 434 OFFCURVE",
"260 434 CURVE SMOOTH",
"360 434 OFFCURVE",
"427 351 OFFCURVE",
"427 228 CURVE SMOOTH",
"427 91 OFFCURVE",
"342 -10 OFFCURVE",
"226 -10 CURVE SMOOTH {name = hr00;}"
);
},
{
closed = 1;
nodes = (
"302 0 OFFCURVE",
"352 82 OFFCURVE",
"352 207 CURVE SMOOTH",
"352 329 OFFCURVE",
"304 404 OFFCURVE",
"226 404 CURVE SMOOTH",
"190 404 OFFCURVE",
"157 388 OFFCURVE",
"137 362 CURVE",
"137 101 LINE SMOOTH",
"137 40 OFFCURVE",
"172 0 OFFCURVE",
"225 0 CURVE SMOOTH"
);
}
);
width = 467;
}
);
leftKerningGroup = b;
rightKerningGroup = b;
unicode = 0062;
},
{
glyphname = backslash;
lastChange = "2018-10-22 19:21:51 +0000";
layers = (
{
layerId = master01;
paths = (
{
closed = 1;
nodes = (
"117 819 LINE",
"47 819 LINE",
"248 -169 LINE",
"317 -169 LINE"
);
}
);
width = 364;
},
{
layerId = "FA6D65B5-4623-4FAC-A199-3F662257AC29";
paths = (
{
closed = 1;
nodes = (
"138 819 LINE",
"38 819 LINE",
"239 -169 LINE",
"338 -169 LINE"
);
}
);
width = 378;
},
{
layerId = "AB50CDD9-E897-4D94-B806-C2DEA2F4ECD5";
paths = (
{
closed = 1;
nodes = (
"279 0 LINE",
"256 0 LINE",
"46 690 LINE",
"69 690 LINE"
);
}
);
width = 325;
}
);
unicode = 005C;
},
{
glyphname = bar;
lastChange = "2018-10-22 19:21:51 +0000";
layers = (
{
layerId = master01;
paths = (
{
closed = 1;
nodes = (
"171 819 LINE",
"101 819 LINE",
"101 -170 LINE",
"171 -170 LINE"
);
}
);
width = 272;
},
{
layerId = "FA6D65B5-4623-4FAC-A199-3F662257AC29";
paths = (
{
closed = 1;
nodes = (
"192 819 LINE",
"92 819 LINE",
"92 -159 LINE",
"192 -159 LINE"
);
}
);
width = 284;
},
{
layerId = "AB50CDD9-E897-4D94-B806-C2DEA2F4ECD5";
paths = (
{
closed = 1;
nodes = (
"115 -135 LINE",
"93 -135 LINE",
"93 690 LINE",
"115 690 LINE"
);
}
);
width = 208;
}
);
unicode = 007C;
},
{
glyphname = bar.tnum;
lastChange = "2018-10-22 19:27:20 +0000";
layers = (
{
layerId = master01;
paths = (
{
closed = 1;
nodes = (
"185 819 LINE",
"115 819 LINE",
"115 -170 LINE",
"185 -170 LINE"
);
}
);
width = 300;
},
{
layerId = "FA6D65B5-4623-4FAC-A199-3F662257AC29";
paths = (
{
closed = 1;
nodes = (
"200 819 LINE",
"100 819 LINE",
"100 -159 LINE",
"200 -159 LINE"
);
}
);
width = 300;
},
{
layerId = "AB50CDD9-E897-4D94-B806-C2DEA2F4ECD5";
width = 600;
}
);
userData = {
com.typemytype.robofont.mark = (
1,
0.6,
0.6,
1
);
};
},
{
glyphname = braceleft;
lastChange = "2018-10-22 19:21:51 +0000";
layers = (
{
layerId = master01;
paths = (
{
closed = 1;
nodes = (
"274 -189 OFFCURVE",
"253 -194 OFFCURVE",
"227 -194 CURVE SMOOTH",
"138 -194 OFFCURVE",
"99 -158 OFFCURVE",
"99 -70 CURVE SMOOTH",
"99 2 OFFCURVE",
"125 106 OFFCURVE",
"125 194 CURVE SMOOTH",
"125 285 OFFCURVE",
"100 320 OFFCURVE",
"29 320 CURVE",
"29 343 LINE",
"98 343 OFFCURVE",
"125 380 OFFCURVE",
"125 463 CURVE SMOOTH",
"125 539 OFFCURVE",
"99 641 OFFCURVE",
"99 701 CURVE SMOOTH",
"99 783 OFFCURVE",
"148 828 OFFCURVE",
"234 828 CURVE SMOOTH",
"258 828 OFFCURVE",
"278 823 OFFCURVE",
"298 815 CURVE",
"292 789 LINE",
"270 793 OFFCURVE",
"262 794 OFFCURVE",
"251 794 CURVE SMOOTH",
"208 794 OFFCURVE",
"185 757 OFFCURVE",
"185 699 CURVE SMOOTH",
"185 644 OFFCURVE",
"210 538 OFFCURVE",
"210 464 CURVE SMOOTH",
"210 393 OFFCURVE",
"187 351 OFFCURVE",
"138 332 CURVE",
"138 328 LINE",
"189 308 OFFCURVE",
"210 273 OFFCURVE",
"210 202 CURVE SMOOTH",
"210 125 OFFCURVE",
"185 -5 OFFCURVE",
"185 -65 CURVE SMOOTH",
"185 -130 OFFCURVE",
"205 -157 OFFCURVE",
"251 -157 CURVE SMOOTH",
"266 -157 OFFCURVE",
"279 -155 OFFCURVE",
"292 -151 CURVE",
"298 -180 LINE"
);
}
);
width = 327;
},
{
layerId = "FA6D65B5-4623-4FAC-A199-3F662257AC29";
paths = (
{
closed = 1;
nodes = (
"288 -189 OFFCURVE",
"255 -194 OFFCURVE",
"223 -194 CURVE SMOOTH",
"131 -194 OFFCURVE",
"92 -158 OFFCURVE",
"92 -70 CURVE SMOOTH",
"92 2 OFFCURVE",
"118 106 OFFCURVE",
"118 194 CURVE SMOOTH",
"118 281 OFFCURVE",
"93 311 OFFCURVE",
"22 311 CURVE",
"22 352 LINE",
"91 352 OFFCURVE",
"118 384 OFFCURVE",
"118 463 CURVE SMOOTH",
"118 539 OFFCURVE",
"92 641 OFFCURVE",
"92 701 CURVE SMOOTH",
"92 783 OFFCURVE",
"141 828 OFFCURVE",
"230 828 CURVE SMOOTH",
"260 828 OFFCURVE",
"292 823 OFFCURVE",
"318 815 CURVE",
"307 774 LINE",
"288 778 OFFCURVE",
"281 779 OFFCURVE",
"271 779 CURVE SMOOTH",
"228 779 OFFCURVE",
"205 751 OFFCURVE",
"205 699 CURVE SMOOTH",
"205 644 OFFCURVE",
"230 538 OFFCURVE",
"230 464 CURVE SMOOTH",
"230 393 OFFCURVE",
"207 351 OFFCURVE",
"158 332 CURVE",
"158 328 LINE",
"209 308 OFFCURVE",
"230 273 OFFCURVE",
"230 202 CURVE SMOOTH",
"230 125 OFFCURVE",
"205 -5 OFFCURVE",
"205 -65 CURVE SMOOTH",
"205 -119 OFFCURVE",
"225 -142 OFFCURVE",
"271 -142 CURVE SMOOTH",
"284 -142 OFFCURVE",
"296 -140 OFFCURVE",
"307 -136 CURVE",
"318 -180 LINE"
);
}
);
width = 340;
},
{
layerId = "AB50CDD9-E897-4D94-B806-C2DEA2F4ECD5";
paths = (
{
closed = 1;
nodes = (
"160 281 OFFCURVE",
"190 243 OFFCURVE",
"190 175 CURVE SMOOTH",
"190 101 OFFCURVE",
"155 25 OFFCURVE",
"155 -58 CURVE SMOOTH",
"155 -126 OFFCURVE",
"179 -160 OFFCURVE",
"226 -160 CURVE SMOOTH",
"239 -160 OFFCURVE",
"253 -158 OFFCURVE",
"275 -152 CURVE",
"278 -163 LINE",
"254 -170 OFFCURVE",
"230 -174 OFFCURVE",
"208 -174 CURVE SMOOTH",
"130 -174 OFFCURVE",
"84 -130 OFFCURVE",
"84 -54 CURVE SMOOTH",
"84 13 OFFCURVE",
"120 105 OFFCURVE",
"120 196 CURVE SMOOTH",
"120 270 OFFCURVE",
"96 295 OFFCURVE",
"24 295 CURVE",
"24 305 LINE",
"96 305 OFFCURVE",
"120 327 OFFCURVE",
"120 395 CURVE SMOOTH",
"120 478 OFFCURVE",
"84 559 OFFCURVE",
"84 625 CURVE SMOOTH",
"84 699 OFFCURVE",
"130 744 OFFCURVE",
"208 744 CURVE SMOOTH",
"230 744 OFFCURVE",
"254 740 OFFCURVE",
"278 733 CURVE",
"275 722 LINE",
"253 728 OFFCURVE",
"239 730 OFFCURVE",
"226 730 CURVE SMOOTH",
"179 730 OFFCURVE",
"155 695 OFFCURVE",
"155 629 CURVE SMOOTH",
"155 549 OFFCURVE",
"190 484 OFFCURVE",
"190 415 CURVE SMOOTH",
"190 352 OFFCURVE",
"161 318 OFFCURVE",
"93 302 CURVE",
"93 298 LINE"
);
}
);
width = 305;
}
);
unicode = 007B;
},
{
glyphname = braceright;
lastChange = "2018-10-22 19:21:51 +0000";
layers = (
{
layerId = master01;
paths = (
{
closed = 1;
nodes = (
"48 -155 OFFCURVE",
"61 -157 OFFCURVE",
"76 -157 CURVE SMOOTH",
"122 -157 OFFCURVE",
"142 -130 OFFCURVE",
"142 -65 CURVE SMOOTH",
"142 -5 OFFCURVE",
"117 125 OFFCURVE",
"117 202 CURVE SMOOTH",
"117 273 OFFCURVE",
"138 308 OFFCURVE",
"189 328 CURVE",
"189 332 LINE",
"140 351 OFFCURVE",
"117 393 OFFCURVE",
"117 464 CURVE SMOOTH",
"117 538 OFFCURVE",
"142 644 OFFCURVE",
"142 699 CURVE SMOOTH",
"142 757 OFFCURVE",
"119 794 OFFCURVE",
"76 794 CURVE SMOOTH",
"65 794 OFFCURVE",
"57 793 OFFCURVE",
"35 789 CURVE",
"29 815 LINE",
"49 823 OFFCURVE",
"69 828 OFFCURVE",
"93 828 CURVE SMOOTH",
"179 828 OFFCURVE",
"228 783 OFFCURVE",
"228 701 CURVE SMOOTH",
"228 641 OFFCURVE",
"202 539 OFFCURVE",
"202 463 CURVE SMOOTH",
"202 380 OFFCURVE",
"229 343 OFFCURVE",
"298 343 CURVE",
"298 320 LINE",
"227 320 OFFCURVE",
"202 285 OFFCURVE",
"202 194 CURVE SMOOTH",
"202 106 OFFCURVE",
"228 2 OFFCURVE",
"228 -70 CURVE SMOOTH",
"228 -158 OFFCURVE",
"189 -194 OFFCURVE",
"100 -194 CURVE SMOOTH",
"74 -194 OFFCURVE",
"53 -189 OFFCURVE",
"29 -180 CURVE",
"35 -151 LINE"
);
}
);
width = 327;
},
{
layerId = "FA6D65B5-4623-4FAC-A199-3F662257AC29";
paths = (
{
closed = 1;
nodes = (
"44 -140 OFFCURVE",
"56 -142 OFFCURVE",
"69 -142 CURVE SMOOTH",
"115 -142 OFFCURVE",
"135 -119 OFFCURVE",
"135 -65 CURVE SMOOTH",
"135 -5 OFFCURVE",
"110 125 OFFCURVE",
"110 202 CURVE SMOOTH",
"110 273 OFFCURVE",
"131 308 OFFCURVE",
"182 328 CURVE",
"182 332 LINE",
"133 351 OFFCURVE",
"110 393 OFFCURVE",
"110 464 CURVE SMOOTH",
"110 538 OFFCURVE",
"135 644 OFFCURVE",
"135 699 CURVE SMOOTH",
"135 751 OFFCURVE",
"112 779 OFFCURVE",
"69 779 CURVE SMOOTH",
"59 779 OFFCURVE",
"52 778 OFFCURVE",
"33 774 CURVE",
"22 815 LINE",
"48 823 OFFCURVE",
"80 828 OFFCURVE",
"110 828 CURVE SMOOTH",
"199 828 OFFCURVE",
"248 783 OFFCURVE",
"248 701 CURVE SMOOTH",
"248 641 OFFCURVE",
"222 539 OFFCURVE",
"222 463 CURVE SMOOTH",
"222 384 OFFCURVE",
"249 352 OFFCURVE",
"318 352 CURVE",
"318 311 LINE",
"247 311 OFFCURVE",
"222 281 OFFCURVE",
"222 194 CURVE SMOOTH",
"222 106 OFFCURVE",
"248 2 OFFCURVE",
"248 -70 CURVE SMOOTH",
"248 -158 OFFCURVE",
"209 -194 OFFCURVE",
"117 -194 CURVE SMOOTH",
"85 -194 OFFCURVE",
"52 -189 OFFCURVE",
"22 -180 CURVE",
"33 -136 LINE"
);
}
);
width = 340;
},
{
layerId = "AB50CDD9-E897-4D94-B806-C2DEA2F4ECD5";
paths = (
{
closed = 1;
nodes = (
"144 318 OFFCURVE",
"115 352 OFFCURVE",
"115 415 CURVE SMOOTH",
"115 484 OFFCURVE",
"150 549 OFFCURVE",
"150 629 CURVE SMOOTH",
"150 695 OFFCURVE",
"126 730 OFFCURVE",
"79 730 CURVE SMOOTH",
"66 730 OFFCURVE",
"51 727 OFFCURVE",
"30 722 CURVE",
"27 733 LINE",
"51 740 OFFCURVE",
"75 744 OFFCURVE",
"97 744 CURVE SMOOTH",
"175 744 OFFCURVE",
"221 699 OFFCURVE",
"221 625 CURVE SMOOTH",
"221 559 OFFCURVE",
"185 478 OFFCURVE",
"185 395 CURVE SMOOTH",
"185 327 OFFCURVE",
"209 305 OFFCURVE",
"281 305 CURVE",
"281 295 LINE",
"209 295 OFFCURVE",
"185 270 OFFCURVE",
"185 196 CURVE SMOOTH",
"185 105 OFFCURVE",
"221 13 OFFCURVE",
"221 -54 CURVE SMOOTH",
"221 -130 OFFCURVE",
"175 -174 OFFCURVE",
"97 -174 CURVE SMOOTH",
"75 -174 OFFCURVE",
"51 -170 OFFCURVE",
"27 -163 CURVE",
"30 -152 LINE",
"51 -157 OFFCURVE",
"66 -160 OFFCURVE",
"79 -160 CURVE SMOOTH",
"126 -160 OFFCURVE",
"150 -126 OFFCURVE",
"150 -58 CURVE SMOOTH",
"150 25 OFFCURVE",
"115 101 OFFCURVE",
"115 175 CURVE SMOOTH",
"115 243 OFFCURVE",
"145 281 OFFCURVE",
"212 298 CURVE",
"212 302 LINE"
);
}
);
width = 305;
}
);
unicode = 007D;
},
{
glyphname = bracketleft;
lastChange = "2018-10-22 19:21:51 +0000";
layers = (
{
layerId = master01;
paths = (
{
closed = 1;
nodes = (
"101 820 LINE",
"300 820 LINE",
"300 788 LINE",
"182 788 LINE",
"182 -156 LINE",
"300 -156 LINE",
"300 -187 LINE",
"101 -187 LINE"
);
}
);
width = 324;
},
{
layerId = "FA6D65B5-4623-4FAC-A199-3F662257AC29";
paths = (
{
closed = 1;
nodes = (
"92 820 LINE",
"317 820 LINE",
"317 770 LINE",
"209 770 LINE",
"209 -138 LINE",
"317 -138 LINE",
"317 -187 LINE",
"92 -187 LINE"
);
}
);
width = 337;
},
{
layerId = "AB50CDD9-E897-4D94-B806-C2DEA2F4ECD5";
paths = (
{
closed = 1;
nodes = (
"92 734 LINE",
"281 734 LINE",
"281 718 LINE",
"158 718 LINE",
"158 -151 LINE",
"281 -151 LINE",
"281 -167 LINE",
"92 -167 LINE"
);
}
);
width = 306;
}
);
unicode = 005B;
},
{
glyphname = bracketright;
lastChange = "2018-10-22 19:21:51 +0000";
layers = (
{
layerId = master01;
paths = (
{
closed = 1;
nodes = (
"24 -156 LINE",
"142 -156 LINE",
"142 788 LINE",
"24 788 LINE",
"24 820 LINE",
"223 820 LINE",
"223 -187 LINE",
"24 -187 LINE"
);
}
);
width = 324;
},
{
layerId = "FA6D65B5-4623-4FAC-A199-3F662257AC29";
paths = (
{
closed = 1;
nodes = (
"20 -138 LINE",
"128 -138 LINE",
"128 770 LINE",
"20 770 LINE",
"20 820 LINE",
"245 820 LINE",
"245 -187 LINE",
"20 -187 LINE"
);
}
);
width = 337;
},
{
layerId = "AB50CDD9-E897-4D94-B806-C2DEA2F4ECD5";
paths = (
{
closed = 1;
nodes = (
"25 -151 LINE",
"148 -151 LINE",
"148 718 LINE",
"25 718 LINE",
"25 734 LINE",
"214 734 LINE",
"214 -167 LINE",
"25 -167 LINE"
);
}
);
width = 306;
}
);
unicode = 005D;
},
{
glyphname = breve;
lastChange = "2018-10-22 19:21:51 +0000";
layers = (
{
anchors = (
{
name = _top;
position = "{147, 651}";
}
);
layerId = master01;
paths = (
{
closed = 1;
nodes = (
"61 744 OFFCURVE",
"104 725 OFFCURVE",
"151 725 CURVE SMOOTH",
"195 725 OFFCURVE",
"237 744 OFFCURVE",
"260 790 CURVE",
"294 790 LINE",
"262 666 OFFCURVE",
"190 651 OFFCURVE",
"147 651 CURVE SMOOTH",
"89 651 OFFCURVE",
"21 686 OFFCURVE",
"10 790 CURVE",
"45 790 LINE"
);
}
);
width = 304;
},
{
anchors = (
{
name = _top;
position = "{161, 651}";
}
);
layerId = "FA6D65B5-4623-4FAC-A199-3F662257AC29";
paths = (
{
closed = 1;
nodes = (
"76 758 OFFCURVE",
"117 745 OFFCURVE",
"161 745 CURVE SMOOTH",
"203 745 OFFCURVE",
"243 758 OFFCURVE",
"265 790 CURVE",
"314 790 LINE",
"280 657 OFFCURVE",
"203 641 OFFCURVE",
"157 641 CURVE SMOOTH",
"95 641 OFFCURVE",
"22 679 OFFCURVE",
"10 790 CURVE",
"60 790 LINE"
);
}
);
width = 324;
},
{
anchors = (
{
name = _top;
position = "{152, 530}";
}
);
layerId = "AB50CDD9-E897-4D94-B806-C2DEA2F4ECD5";
paths = (
{
closed = 1;
nodes = (
"100 530 OFFCURVE",
"62 564 OFFCURVE",
"45 625 CURVE",
"50 625 LINE",
"69 594 OFFCURVE",
"104 578 OFFCURVE",
"153 578 CURVE SMOOTH",
"202 578 OFFCURVE",
"236 594 OFFCURVE",
"256 625 CURVE",
"261 625 LINE",
"244 564 OFFCURVE",
"205 530 OFFCURVE",
"153 530 CURVE SMOOTH"
);
}
);
width = 306;
}
);
unicode = 02D8;
},
{
glyphname = breve.cap;
lastChange = "2018-10-22 19:27:20 +0000";
layers = (
{
anchors = (
{
name = _topcap;
position = "{147, 830}";
}
);
layerId = master01;
paths = (
{
closed = 1;
nodes = (
"61 920 OFFCURVE",
"104 904 OFFCURVE",
"151 904 CURVE SMOOTH",
"195 904 OFFCURVE",
"237 920 OFFCURVE",
"260 959 CURVE",
"294 959 LINE",
"262 844 OFFCURVE",
"190 830 OFFCURVE",
"147 830 CURVE SMOOTH",
"89 830 OFFCURVE",
"21 862 OFFCURVE",
"10 959 CURVE",
"45 959 LINE"
);
}
);
width = 304;
},
{
anchors = (
{
name = _topcap;
position = "{157, 829}";
}
);
layerId = "FA6D65B5-4623-4FAC-A199-3F662257AC29";
paths = (
{
closed = 1;
nodes = (
"76 942 OFFCURVE",
"117 933 OFFCURVE",
"161 933 CURVE SMOOTH",
"203 933 OFFCURVE",
"243 942 OFFCURVE",
"265 965 CURVE",
"314 965 LINE",
"280 843 OFFCURVE",
"203 829 OFFCURVE",
"157 829 CURVE SMOOTH",
"95 829 OFFCURVE",
"22 863 OFFCURVE",
"10 965 CURVE",
"60 965 LINE"
);
}
);
width = 324;
},
{
layerId = "AB50CDD9-E897-4D94-B806-C2DEA2F4ECD5";
width = 600;
}
);
},
{
glyphname = brokenbar;
lastChange = "2018-10-22 19:21:51 +0000";
layers = (
{
layerId = master01;
paths = (
{
closed = 1;
nodes = (
"171 819 LINE",
"104 819 LINE",
"104 432 LINE",
"171 432 LINE"
);
},
{
closed = 1;
nodes = (
"171 216 LINE",
"104 216 LINE",
"104 -171 LINE",
"171 -171 LINE"
);
}
);
width = 275;
},
{
layerId = "FA6D65B5-4623-4FAC-A199-3F662257AC29";
paths = (
{
closed = 1;
nodes = (
"190 819 LINE",
"94 819 LINE",
"94 431 LINE",
"190 431 LINE"
);
},
{
closed = 1;
nodes = (
"190 217 LINE",
"94 217 LINE",
"94 -171 LINE",
"190 -171 LINE"
);
}
);
width = 284;
},
{
layerId = "AB50CDD9-E897-4D94-B806-C2DEA2F4ECD5";
paths = (
{
closed = 1;
nodes = (
"116 329 LINE",
"94 329 LINE",
"94 690 LINE",
"116 690 LINE"
);
},
{
closed = 1;
nodes = (
"116 -135 LINE",
"94 -135 LINE",
"94 226 LINE",
"116 226 LINE"
);
}
);
width = 210;
}
);
unicode = 00A6;
},
{
glyphname = bullet;
lastChange = "2018-10-22 19:21:51 +0000";
layers = (
{
layerId = master01;
paths = (
{
closed = 1;
nodes = (
"85 311 OFFCURVE",
"139 259 OFFCURVE",
"205 259 CURVE SMOOTH",
"271 259 OFFCURVE",
"325 311 OFFCURVE",
"325 374 CURVE SMOOTH",
"325 437 OFFCURVE",
"271 489 OFFCURVE",
"205 489 CURVE SMOOTH",
"139 489 OFFCURVE",
"85 437 OFFCURVE",
"85 374 CURVE SMOOTH {name = hr00;}"
);
}
);
width = 410;
},
{
layerId = "FA6D65B5-4623-4FAC-A199-3F662257AC29";
paths = (
{
closed = 1;
nodes = (
"72 298 OFFCURVE",
"138 236 OFFCURVE",
"217 236 CURVE SMOOTH",
"296 236 OFFCURVE",
"361 298 OFFCURVE",
"361 374 CURVE SMOOTH",
"361 450 OFFCURVE",
"296 512 OFFCURVE",
"217 512 CURVE SMOOTH",
"138 512 OFFCURVE",
"72 450 OFFCURVE",
"72 374 CURVE SMOOTH {name = hr00;}"
);
}
);
width = 432;
},
{
layerId = "AB50CDD9-E897-4D94-B806-C2DEA2F4ECD5";
paths = (
{
closed = 1;
nodes = (
"92 326 OFFCURVE",
"119 296 OFFCURVE",
"159 296 CURVE SMOOTH",
"199 296 OFFCURVE",
"225 326 OFFCURVE",
"225 363 CURVE SMOOTH",
"225 401 OFFCURVE",
"199 429 OFFCURVE",
"159 429 CURVE SMOOTH",
"119 429 OFFCURVE",
"92 401 OFFCURVE",
"92 363 CURVE SMOOTH"
);
}
);
width = 317;
}
);
unicode = 2022;
},
{
glyphname = c;
lastChange = "2018-10-22 19:21:51 +0000";
layers = (
{
anchors = (
{
name = bottom;
position = "{291, 0}";
},
{
name = top;
position = "{308, 651}";
}
);
layerId = master01;
paths = (
{
closed = 1;
nodes = (
"387 -10 OFFCURVE",
"462 40 OFFCURVE",
"496 128 CURVE SMOOTH",
"501 141 LINE",
"482 151 LINE",
"471 136 LINE SMOOTH",
"435 87 OFFCURVE",
"380 63 OFFCURVE",
"320 63 CURVE SMOOTH",
"211 63 OFFCURVE",
"148 142 OFFCURVE",
"148 278 CURVE SMOOTH",
"148 418 OFFCURVE",
"209 508 OFFCURVE",
"315 508 CURVE SMOOTH",
"360 508 OFFCURVE",
"379 494 OFFCURVE",
"387 428 CURVE SMOOTH",
"392 385 OFFCURVE",
"411 365 OFFCURVE",
"446 365 CURVE SMOOTH",
"475 365 OFFCURVE",
"492 388 OFFCURVE",
"492 422 CURVE SMOOTH",
"492 486 OFFCURVE",
"414 540 OFFCURVE",
"312 540 CURVE SMOOTH",
"156 540 OFFCURVE",
"46 423 OFFCURVE",
"46 258 CURVE SMOOTH",
"46 100 OFFCURVE",
"147 -10 OFFCURVE",
"290 -10 CURVE SMOOTH"
);
}
);
width = 535;
},
{
layerId = "FA6D65B5-4623-4FAC-A199-3F662257AC29";
paths = (
{
closed = 1;
nodes = (
"413 -10 OFFCURVE",
"491 37 OFFCURVE",
"531 133 CURVE SMOOTH",
"536 145 LINE",
"508 167 LINE",
"501 159 LINE SMOOTH",
"464 116 OFFCURVE",
"413 93 OFFCURVE",
"353 93 CURVE SMOOTH",
"254 93 OFFCURVE",
"204 161 OFFCURVE",
"204 289 CURVE SMOOTH",
"204 416 OFFCURVE",
"253 488 OFFCURVE",
"337 488 CURVE SMOOTH",
"391 488 OFFCURVE",
"404 452 OFFCURVE",
"410 405 CURVE SMOOTH",
"414 375 OFFCURVE",
"426 340 OFFCURVE",
"476 340 CURVE SMOOTH",
"517 340 OFFCURVE",
"543 366 OFFCURVE",
"543 407 CURVE SMOOTH",
"543 483 OFFCURVE",
"453 540 OFFCURVE",
"332 540 CURVE SMOOTH",
"159 540 OFFCURVE",
"36 422 OFFCURVE",
"36 258 CURVE SMOOTH",
"36 102 OFFCURVE",
"148 -10 OFFCURVE",
"305 -10 CURVE SMOOTH"
);
}
);
width = 571;
},
{
anchors = (
{
name = bottom;
position = "{224, 0}";
},
{
name = top;
position = "{231, 530}";
}
);
layerId = "AB50CDD9-E897-4D94-B806-C2DEA2F4ECD5";
paths = (
{
closed = 1;
nodes = (
"312 434 OFFCURVE",
"371 396 OFFCURVE",
"371 347 CURVE SMOOTH",
"371 324 OFFCURVE",
"357 309 OFFCURVE",
"334 309 CURVE SMOOTH",
"270 309 OFFCURVE",
"318 424 OFFCURVE",
"234 424 CURVE SMOOTH",
"161 424 OFFCURVE",
"107 339 OFFCURVE",
"107 222 CURVE SMOOTH",
"107 106 OFFCURVE",
"159 39 OFFCURVE",
"249 39 CURVE SMOOTH",
"299 39 OFFCURVE",
"337 59 OFFCURVE",
"370 102 CURVE SMOOTH",
"379 114 LINE",
"383 112 LINE",
"379 101 LINE SMOOTH",
"353 31 OFFCURVE",
"296 -10 OFFCURVE",
"223 -10 CURVE SMOOTH",
"116 -10 OFFCURVE",
"40 80 OFFCURVE",
"40 207 CURVE SMOOTH",
"40 339 OFFCURVE",
"122 434 OFFCURVE",
"238 434 CURVE SMOOTH {name = hr00;}"
);
}
);
width = 406;
}
);
leftKerningGroup = e;
rightKerningGroup = c;
unicode = 0063;
},
{
glyphname = c_t;
lastChange = "2018-10-22 19:21:51 +0000";
layers = (
{
layerId = master01;
paths = (
{
closed = 1;
nodes = (
"387 -10 OFFCURVE",
"462 40 OFFCURVE",
"496 128 CURVE SMOOTH",
"501 141 LINE",
"482 151 LINE",
"471 136 LINE SMOOTH",
"436 89 OFFCURVE",
"382 63 OFFCURVE",
"319 63 CURVE SMOOTH",
"209 63 OFFCURVE",
"148 142 OFFCURVE",
"148 283 CURVE SMOOTH",
"148 423 OFFCURVE",
"209 508 OFFCURVE",
"310 508 CURVE SMOOTH",
"347 508 OFFCURVE",
"360 496 OFFCURVE",
"377 448 CURVE SMOOTH",
"395 395 OFFCURVE",
"403 385 OFFCURVE",
"430 385 CURVE SMOOTH",
"462 385 OFFCURVE",
"482 404 OFFCURVE",
"482 436 CURVE SMOOTH",
"482 472 OFFCURVE",
"454 499 OFFCURVE",
"414 521 CURVE SMOOTH",
"369 546 OFFCURVE",
"353 586 OFFCURVE",
"353 641 CURVE SMOOTH",
"353 742 OFFCURVE",
"415 805 OFFCURVE",
"512 805 CURVE SMOOTH",
"605 805 OFFCURVE",
"657 747 OFFCURVE",
"657 645 CURVE SMOOTH",
"657 569 OFFCURVE",
"629 524 OFFCURVE",
"574 511 CURVE",
"576 495 LINE",
"641 495 LINE",
"641 132 LINE SMOOTH",
"641 36 OFFCURVE",
"676 -10 OFFCURVE",
"749 -10 CURVE SMOOTH",
"806 -10 OFFCURVE",
"856 17 OFFCURVE",
"888 65 CURVE",
"871 78 LINE",
"847 50 OFFCURVE",
"821 37 OFFCURVE",
"791 37 CURVE SMOOTH",
"749 37 OFFCURVE",
"736 62 OFFCURVE",
"736 141 CURVE SMOOTH",
"736 495 LINE",
"871 495 LINE",
"879 530 LINE",
"736 530 LINE",
"740 558 OFFCURVE",
"742 585 OFFCURVE",
"742 609 CURVE SMOOTH",
"742 757 OFFCURVE",
"663 840 OFFCURVE",
"522 840 CURVE SMOOTH",
"386 840 OFFCURVE",
"288 763 OFFCURVE",
"288 656 CURVE SMOOTH",
"288 610 OFFCURVE",
"307 567 OFFCURVE",
"345 542 CURVE",
"345 538 LINE",
"339 539 OFFCURVE",
"324 540 OFFCURVE",
"313 540 CURVE SMOOTH",
"156 540 OFFCURVE",
"46 424 OFFCURVE",
"46 258 CURVE SMOOTH",
"46 100 OFFCURVE",
"147 -10 OFFCURVE",
"290 -10 CURVE SMOOTH"
);
}
);
width = 895;
},
{
layerId = "FA6D65B5-4623-4FAC-A199-3F662257AC29";
paths = (
{
closed = 1;
nodes = (
"413 -10 OFFCURVE",
"491 37 OFFCURVE",
"531 133 CURVE SMOOTH",
"536 145 LINE",
"508 167 LINE",
"501 159 LINE SMOOTH",
"464 116 OFFCURVE",
"413 93 OFFCURVE",
"353 93 CURVE SMOOTH",
"254 93 OFFCURVE",
"204 161 OFFCURVE",
"204 289 CURVE SMOOTH",
"204 416 OFFCURVE",
"253 488 OFFCURVE",
"337 488 CURVE SMOOTH",
"391 488 OFFCURVE",
"404 452 OFFCURVE",
"410 405 CURVE SMOOTH",
"414 375 OFFCURVE",
"426 340 OFFCURVE",
"476 340 CURVE SMOOTH",
"517 340 OFFCURVE",
"543 366 OFFCURVE",
"543 407 CURVE SMOOTH",
"543 445 OFFCURVE",
"518 475 OFFCURVE",
"482 502 CURVE SMOOTH",
"452 524 OFFCURVE",
"439 572 OFFCURVE",
"439 628 CURVE SMOOTH",
"439 723 OFFCURVE",
"485 776 OFFCURVE",
"568 776 CURVE SMOOTH",
"642 776 OFFCURVE",
"683 734 OFFCURVE",
"683 658 CURVE SMOOTH",
"683 587 OFFCURVE",
"648 539 OFFCURVE",
"577 510 CURVE",
"583 480 LINE",
"654 480 LINE",
"654 132 LINE SMOOTH",
"654 14 OFFCURVE",
"707 -10 OFFCURVE",
"798 -10 CURVE SMOOTH",
"866 -10 OFFCURVE",
"923 14 OFFCURVE",
"957 57 CURVE",
"934 90 LINE",
"918 71 OFFCURVE",
"898 62 OFFCURVE",
"873 62 CURVE SMOOTH",
"834 62 OFFCURVE",
"809 67 OFFCURVE",
"809 166 CURVE SMOOTH",
"809 480 LINE",
"949 480 LINE",
"964 530 LINE",
"809 530 LINE",
"817 560 OFFCURVE",
"820 588 OFFCURVE",
"820 615 CURVE SMOOTH",
"820 744 OFFCURVE",
"730 829 OFFCURVE",
"582 829 CURVE SMOOTH",
"440 829 OFFCURVE",
"334 752 OFFCURVE",
"334 648 CURVE SMOOTH",
"334 606 OFFCURVE",
"354 563 OFFCURVE",
"392 539 CURVE",
"392 535 LINE",
"373 538 OFFCURVE",
"353 540 OFFCURVE",
"332 540 CURVE SMOOTH",
"159 540 OFFCURVE",
"36 422 OFFCURVE",
"36 258 CURVE SMOOTH",
"36 102 OFFCURVE",
"148 -10 OFFCURVE",
"305 -10 CURVE SMOOTH"
);
}
);
width = 966;
},
{
layerId = "AB50CDD9-E897-4D94-B806-C2DEA2F4ECD5";
paths = (
{
closed = 1;
nodes = (
"242 434 LINE",
"217 450 OFFCURVE",
"203 477 OFFCURVE",
"203 512 CURVE SMOOTH",
"203 581 OFFCURVE",
"276 637 OFFCURVE",
"367 637 CURVE SMOOTH",
"475 637 OFFCURVE",
"536 561 OFFCURVE",
"538 424 CURVE",
"652 424 LINE",
"646 408 LINE",
"538 408 LINE",
"538 102 LINE SMOOTH",
"538 79 OFFCURVE",
"542 61 OFFCURVE",
"549 50 CURVE {name = hr01;}",
"557 34 OFFCURVE",
"573 26 OFFCURVE",
"594 26 CURVE SMOOTH {name = hr02;}",
"616 26 OFFCURVE",
"634 36 OFFCURVE",
"658 60 CURVE",
"662 57 LINE",
"642 16 OFFCURVE",
"603 -10 OFFCURVE",
"561 -10 CURVE SMOOTH {name = hr03;}",
"540 -10 OFFCURVE",
"519 -3 OFFCURVE",
"504 8 CURVE SMOOTH",
"482 24 OFFCURVE",
"473 47 OFFCURVE",
"473 89 CURVE SMOOTH",
"473 408 LINE",
"420 408 LINE",
"426 424 LINE {name = hr04;}",
"473 424 LINE",
"473 487 LINE SMOOTH",
"473 581 OFFCURVE",
"439 627 OFFCURVE",
"364 627 CURVE SMOOTH",
"287 627 OFFCURVE",
"233 579 OFFCURVE",
"233 509 CURVE SMOOTH",
"233 467 OFFCURVE",
"248 437 OFFCURVE",
"274 431 CURVE SMOOTH",
"330 418 OFFCURVE",
"371 387 OFFCURVE",
"371 347 CURVE SMOOTH",
"371 324 OFFCURVE",
"357 309 OFFCURVE",
"334 309 CURVE SMOOTH",
"270 309 OFFCURVE",
"318 424 OFFCURVE",
"234 424 CURVE SMOOTH",
"161 424 OFFCURVE",
"107 339 OFFCURVE",
"107 222 CURVE SMOOTH",
"107 106 OFFCURVE",
"159 39 OFFCURVE",
"249 39 CURVE SMOOTH",
"299 39 OFFCURVE",
"337 59 OFFCURVE",
"370 102 CURVE SMOOTH",
"379 114 LINE {name = hr05;}",
"383 112 LINE",
"379 101 LINE SMOOTH",
"353 31 OFFCURVE",
"296 -10 OFFCURVE",
"223 -10 CURVE SMOOTH",
"116 -10 OFFCURVE",
"40 80 OFFCURVE",
"40 207 CURVE SMOOTH {name = hr06;}",
"40 339 OFFCURVE",
"122 434 OFFCURVE",
"238 434 CURVE"
);
}
);
width = 668;
}
);
leftKerningGroup = e;
rightKerningGroup = t;
},
{
glyphname = caron;
lastChange = "2018-10-22 19:21:51 +0000";
layers = (
{
anchors = (
{
name = _top;
position = "{138, 651}";
}
);
layerId = master01;
paths = (
{
closed = 1;
nodes = (
"160 630 OFFCURVE",
"172 640 OFFCURVE",
"181 659 CURVE SMOOTH",
"266 847 LINE",
"245 859 LINE",
"138 718 LINE",
"31 859 LINE",
"10 847 LINE",
"93 659 LINE SMOOTH",
"102 640 OFFCURVE",
"113 630 OFFCURVE",
"138 630 CURVE SMOOTH"
);
}
);
width = 276;
},
{
anchors = (
{
name = _top;
position = "{163, 651}";
}
);
layerId = "FA6D65B5-4623-4FAC-A199-3F662257AC29";
paths = (
{
closed = 1;
nodes = (
"195 630 OFFCURVE",
"212 643 OFFCURVE",
"230 678 CURVE SMOOTH",
"316 847 LINE",
"285 859 LINE",
"163 743 LINE",
"41 859 LINE",
"10 847 LINE",
"94 678 LINE SMOOTH",
"111 644 OFFCURVE",
"132 630 OFFCURVE",
"164 630 CURVE SMOOTH"
);
}
);
width = 326;
},
{
anchors = (
{
name = _top;
position = "{141, 530}";
}
);
layerId = "AB50CDD9-E897-4D94-B806-C2DEA2F4ECD5";
paths = (
{
closed = 1;
nodes = (
"234 696 LINE",
"141 590 LINE",
"48 696 LINE",
"45 695 LINE",
"110 549 LINE SMOOTH",
"116 535 OFFCURVE",
"126 528 OFFCURVE",
"141 528 CURVE SMOOTH",
"158 528 OFFCURVE",
"166 537 OFFCURVE",
"172 549 CURVE SMOOTH",
"237 695 LINE"
);
}
);
width = 282;
}
);
unicode = 02C7;
},
{
glyphname = caron.alt;
lastChange = "2018-10-22 19:21:51 +0000";
layers = (
{
anchors = (
{
name = _top;
position = "{53, 651}";
}
);
layerId = master01;
paths = (
{
closed = 1;
nodes = (
"17 805 LINE SMOOTH",
"19 838 OFFCURVE",
"32 857 OFFCURVE",
"68 857 CURVE SMOOTH",
"86 857 OFFCURVE",
"97 844 OFFCURVE",
"97 822 CURVE SMOOTH",
"97 810 OFFCURVE",
"92 795 OFFCURVE",
"85 775 CURVE SMOOTH",
"36 642 LINE",
"10 642 LINE"
);
}
);
width = 107;
},
{
anchors = (
{
name = _top;
position = "{34, 651}";
}
);
layerId = "FA6D65B5-4623-4FAC-A199-3F662257AC29";
paths = (
{
closed = 1;
nodes = (
"16 783 LINE SMOOTH",
"16 833 OFFCURVE",
"44 857 OFFCURVE",
"83 857 CURVE SMOOTH",
"108 857 OFFCURVE",
"121 842 OFFCURVE",
"121 817 CURVE SMOOTH",
"121 802 OFFCURVE",
"117 784 OFFCURVE",
"108 765 CURVE SMOOTH",
"48 642 LINE",
"16 642 LINE"
);
}
);
width = 131;
},
{
anchors = (
{
name = _top;
position = "{82, 530}";
}
);
layerId = "AB50CDD9-E897-4D94-B806-C2DEA2F4ECD5";
paths = (
{
closed = 1;
nodes = (
"96 554 OFFCURVE",
"119 594 OFFCURVE",
"119 636 CURVE SMOOTH",
"119 672 OFFCURVE",
"102 696 OFFCURVE",
"77 696 CURVE SMOOTH",
"58 696 OFFCURVE",
"45 682 OFFCURVE",
"45 662 CURVE SMOOTH",
"45 628 OFFCURVE",
"83 628 OFFCURVE",
"83 591 CURVE SMOOTH",
"83 570 OFFCURVE",
"70 544 OFFCURVE",
"50 529 CURVE",
"54 524 LINE"
);
}
);
width = 164;
}
);
},
{
glyphname = caron.cap;
lastChange = "2018-10-22 19:27:20 +0000";
layers = (
{
anchors = (
{
name = _topcap;
position = "{157, 820}";
}
);
layerId = master01;
paths = (
{
closed = 1;
nodes = (
"180 820 OFFCURVE",
"193 828 OFFCURVE",
"212 847 CURVE SMOOTH",
"305 943 LINE",
"286 960 LINE",
"157 902 LINE",
"30 960 LINE",
"10 943 LINE",
"104 847 LINE SMOOTH",
"121 830 OFFCURVE",
"132 820 OFFCURVE",
"157 820 CURVE SMOOTH"
);
}
);
width = 315;
},
{
anchors = (
{
name = _topcap;
position = "{184, 820}";
}
);
layerId = "FA6D65B5-4623-4FAC-A199-3F662257AC29";
paths = (
{
closed = 1;
nodes = (
"206 821 OFFCURVE",
"225 832 OFFCURVE",
"252 854 CURVE SMOOTH",
"356 938 LINE",
"340 960 LINE",
"183 919 LINE",
"26 960 LINE",
"10 938 LINE",
"112 854 LINE SMOOTH",
"139 832 OFFCURVE",
"158 821 OFFCURVE",
"184 821 CURVE SMOOTH"
);
}
);
width = 366;
},
{
layerId = "AB50CDD9-E897-4D94-B806-C2DEA2F4ECD5";
width = 600;
}
);
},
{
glyphname = cedilla;
lastChange = "2018-10-22 19:21:51 +0000";
layers = (
{
anchors = (
{
name = _bottom;
position = "{110, 0}";
}
);
layerId = master01;
paths = (
{
closed = 1;
nodes = (
"27 -248 OFFCURVE",
"57 -257 OFFCURVE",
"88 -257 CURVE SMOOTH",
"169 -257 OFFCURVE",
"220 -214 OFFCURVE",
"220 -156 CURVE SMOOTH",
"220 -100 OFFCURVE",
"176 -58 OFFCURVE",
"105 -58 CURVE",
"134 17 LINE",
"97 17 LINE",
"37 -124 LINE",
"46 -133 LINE",
"62 -128 OFFCURVE",
"82 -125 OFFCURVE",
"97 -125 CURVE SMOOTH",
"128 -125 OFFCURVE",
"145 -141 OFFCURVE",
"145 -168 CURVE SMOOTH",
"145 -198 OFFCURVE",
"120 -220 OFFCURVE",
"80 -220 CURVE SMOOTH",
"60 -220 OFFCURVE",
"47 -216 OFFCURVE",
"24 -203 CURVE",
"10 -233 LINE"
);
}
);
width = 230;
},
{
anchors = (
{
name = _bottom;
position = "{120, 0}";
}
);
layerId = "FA6D65B5-4623-4FAC-A199-3F662257AC29";
paths = (
{
closed = 1;
nodes = (
"31 -248 OFFCURVE",
"69 -257 OFFCURVE",
"108 -257 CURVE SMOOTH",
"189 -257 OFFCURVE",
"240 -214 OFFCURVE",
"240 -156 CURVE SMOOTH",
"240 -100 OFFCURVE",
"196 -58 OFFCURVE",
"125 -58 CURVE",
"154 17 LINE",
"97 17 LINE",
"37 -134 LINE",
"51 -143 LINE",
"64 -138 OFFCURVE",
"84 -135 OFFCURVE",
"97 -135 CURVE SMOOTH",
"120 -135 OFFCURVE",
"135 -147 OFFCURVE",
"135 -165 CURVE SMOOTH",
"135 -184 OFFCURVE",
"114 -202 OFFCURVE",
"83 -202 CURVE SMOOTH",
"66 -202 OFFCURVE",
"48 -198 OFFCURVE",
"29 -188 CURVE",
"10 -233 LINE"
);
}
);
width = 250;
},
{
anchors = (
{
name = _bottom;
position = "{135, 0}";
}
);
layerId = "AB50CDD9-E897-4D94-B806-C2DEA2F4ECD5";
paths = (
{
closed = 1;
nodes = (
"60 -208 OFFCURVE",
"79 -212 OFFCURVE",
"97 -212 CURVE SMOOTH",
"139 -212 OFFCURVE",
"167 -194 OFFCURVE",
"167 -166 CURVE SMOOTH",
"167 -140 OFFCURVE",
"145 -124 OFFCURVE",
"110 -124 CURVE SMOOTH",
"96 -124 OFFCURVE",
"82 -126 OFFCURVE",
"72 -130 CURVE",
"69 -127 LINE",
"124 1 LINE",
"136 1 LINE",
"104 -74 LINE",
"113 -72 OFFCURVE",
"118 -72 OFFCURVE",
"131 -72 CURVE SMOOTH",
"187 -72 OFFCURVE",
"226 -102 OFFCURVE",
"226 -144 CURVE SMOOTH",
"226 -191 OFFCURVE",
"180 -226 OFFCURVE",
"118 -226 CURVE SMOOTH",
"87 -226 OFFCURVE",
"60 -218 OFFCURVE",
"45 -205 CURVE",
"47 -202 LINE"
);
}
);
width = 271;
}
);
unicode = 00B8;
},
{
glyphname = cent;
lastChange = "2018-10-22 19:21:51 +0000";
layers = (
{
layerId = master01;
paths = (
{
closed = 1;
nodes = (
"162 540 OFFCURVE",
"52 423 OFFCURVE",
"52 258 CURVE SMOOTH",
"52 100 OFFCURVE",
"153 -10 OFFCURVE",
"296 -10 CURVE SMOOTH",
"393 -10 OFFCURVE",
"468 40 OFFCURVE",
"502 128 CURVE SMOOTH",
"507 141 LINE",
"488 151 LINE",
"477 136 LINE SMOOTH",
"441 87 OFFCURVE",
"386 63 OFFCURVE",
"326 63 CURVE SMOOTH",
"217 63 OFFCURVE",
"154 142 OFFCURVE",
"154 278 CURVE SMOOTH",
"154 418 OFFCURVE",
"226 508 OFFCURVE",
"302 508 CURVE SMOOTH",
"361 508 OFFCURVE",
"394 487 OFFCURVE",
"403 428 CURVE SMOOTH",
"410 385 OFFCURVE",
"427 365 OFFCURVE",
"462 365 CURVE SMOOTH",
"491 365 OFFCURVE",
"508 388 OFFCURVE",
"508 422 CURVE SMOOTH",
"508 486 OFFCURVE",
"426 540 OFFCURVE",
"318 540 CURVE SMOOTH"
);
},
{
closed = 1;
nodes = (
"282 670 LINE",
"282 -130 LINE",
"324 -130 LINE",
"324 670 LINE"
);
}
);
width = 554;
},
{
layerId = "FA6D65B5-4623-4FAC-A199-3F662257AC29";
paths = (
{
closed = 1;
nodes = (
"153 540 OFFCURVE",
"43 423 OFFCURVE",
"43 258 CURVE SMOOTH",
"43 100 OFFCURVE",
"144 -10 OFFCURVE",
"287 -10 CURVE SMOOTH",
"384 -10 OFFCURVE",
"459 40 OFFCURVE",
"493 128 CURVE SMOOTH",
"498 141 LINE",
"479 151 LINE",
"468 136 LINE SMOOTH",
"432 87 OFFCURVE",
"377 63 OFFCURVE",
"317 63 CURVE SMOOTH",
"208 63 OFFCURVE",
"145 142 OFFCURVE",
"145 278 CURVE SMOOTH",
"145 418 OFFCURVE",
"217 508 OFFCURVE",
"293 508 CURVE SMOOTH",
"352 508 OFFCURVE",
"385 487 OFFCURVE",
"394 428 CURVE SMOOTH",
"401 385 OFFCURVE",
"418 365 OFFCURVE",
"453 365 CURVE SMOOTH",
"482 365 OFFCURVE",
"499 388 OFFCURVE",
"499 422 CURVE SMOOTH",
"499 486 OFFCURVE",
"417 540 OFFCURVE",
"309 540 CURVE SMOOTH"
);
},
{
closed = 1;
nodes = (
"273 670 LINE",
"273 -130 LINE",
"315 -130 LINE",
"315 670 LINE"
);
}
);
width = 537;
},
{
layerId = "AB50CDD9-E897-4D94-B806-C2DEA2F4ECD5";
paths = (
{
closed = 1;
nodes = (
"324 434 OFFCURVE",
"383 396 OFFCURVE",
"383 347 CURVE SMOOTH",
"383 324 OFFCURVE",
"369 309 OFFCURVE",
"346 309 CURVE SMOOTH",
"282 309 OFFCURVE",
"330 424 OFFCURVE",
"246 424 CURVE SMOOTH",
"173 424 OFFCURVE",
"119 339 OFFCURVE",
"119 222 CURVE SMOOTH",
"119 106 OFFCURVE",
"171 39 OFFCURVE",
"261 39 CURVE SMOOTH",
"311 39 OFFCURVE",
"349 59 OFFCURVE",
"382 102 CURVE SMOOTH",
"391 114 LINE",
"395 112 LINE",
"391 101 LINE SMOOTH",
"365 31 OFFCURVE",
"308 -10 OFFCURVE",
"235 -10 CURVE SMOOTH",
"128 -10 OFFCURVE",
"52 80 OFFCURVE",
"52 207 CURVE SMOOTH",
"52 339 OFFCURVE",
"134 434 OFFCURVE",
"250 434 CURVE SMOOTH {name = hr00;}"
);
},
{
closed = 1;
nodes = (
"251 -135 LINE",
"229 -135 LINE",
"229 570 LINE",
"251 570 LINE"
);
}
);
width = 437;
}
);
unicode = 00A2;
},
{
glyphname = cent.tnum;
lastChange = "2018-10-22 19:27:20 +0000";
layers = (
{
layerId = master01;
paths = (
{
closed = 1;
nodes = (
"182 540 OFFCURVE",
"72 423 OFFCURVE",
"72 258 CURVE SMOOTH",
"72 100 OFFCURVE",
"173 -10 OFFCURVE",
"316 -10 CURVE SMOOTH",
"413 -10 OFFCURVE",
"488 40 OFFCURVE",
"522 128 CURVE SMOOTH",
"527 141 LINE",
"508 151 LINE",
"497 136 LINE SMOOTH",
"461 87 OFFCURVE",
"406 63 OFFCURVE",
"346 63 CURVE SMOOTH",
"237 63 OFFCURVE",
"174 142 OFFCURVE",
"174 278 CURVE SMOOTH",
"174 418 OFFCURVE",
"246 508 OFFCURVE",
"322 508 CURVE SMOOTH",
"381 508 OFFCURVE",
"414 487 OFFCURVE",
"423 428 CURVE SMOOTH",
"430 385 OFFCURVE",
"447 365 OFFCURVE",
"482 365 CURVE SMOOTH",
"511 365 OFFCURVE",
"528 388 OFFCURVE",
"528 422 CURVE SMOOTH",
"528 486 OFFCURVE",
"446 540 OFFCURVE",
"338 540 CURVE SMOOTH"
);
},
{
closed = 1;
nodes = (
"302 670 LINE",
"302 -130 LINE",
"344 -130 LINE",
"344 670 LINE"
);
}
);
width = 600;
},
{
layerId = "FA6D65B5-4623-4FAC-A199-3F662257AC29";
paths = (
{
closed = 1;
nodes = (
"182 540 OFFCURVE",
"72 423 OFFCURVE",
"72 258 CURVE SMOOTH",
"72 100 OFFCURVE",
"173 -10 OFFCURVE",
"316 -10 CURVE SMOOTH",
"413 -10 OFFCURVE",
"488 40 OFFCURVE",
"522 128 CURVE SMOOTH",
"527 141 LINE",
"508 151 LINE",
"497 136 LINE SMOOTH",
"461 87 OFFCURVE",
"406 63 OFFCURVE",
"346 63 CURVE SMOOTH",
"237 63 OFFCURVE",
"174 142 OFFCURVE",
"174 278 CURVE SMOOTH",
"174 418 OFFCURVE",
"246 508 OFFCURVE",
"322 508 CURVE SMOOTH",
"381 508 OFFCURVE",
"414 487 OFFCURVE",
"423 428 CURVE SMOOTH",
"430 385 OFFCURVE",
"447 365 OFFCURVE",
"482 365 CURVE SMOOTH",
"511 365 OFFCURVE",
"528 388 OFFCURVE",
"528 422 CURVE SMOOTH",
"528 486 OFFCURVE",
"446 540 OFFCURVE",
"338 540 CURVE SMOOTH"
);
},
{
closed = 1;
nodes = (
"302 670 LINE",
"302 -130 LINE",
"344 -130 LINE",
"344 670 LINE"
);
}
);
width = 600;
},
{
layerId = "AB50CDD9-E897-4D94-B806-C2DEA2F4ECD5";
width = 600;
}
);
userData = {
com.typemytype.robofont.mark = (
1,
0.6,
0.6,
1
);
};
},
{
glyphname = circumflex;
lastChange = "2018-10-22 19:21:51 +0000";
layers = (
{
anchors = (
{
name = _top;
position = "{138, 651}";
}
);
layerId = master01;
paths = (
{
closed = 1;
nodes = (
"115 857 OFFCURVE",
"102 847 OFFCURVE",
"94 828 CURVE SMOOTH",
"10 640 LINE",
"30 628 LINE",
"136 769 LINE",
"244 628 LINE",
"266 640 LINE",
"182 828 LINE SMOOTH",
"173 847 OFFCURVE",
"162 857 OFFCURVE",
"140 857 CURVE SMOOTH"
);
}
);
width = 276;
},
{
anchors = (
{
name = _top;
position = "{163, 651}";
}
);
layerId = "FA6D65B5-4623-4FAC-A199-3F662257AC29";
paths = (
{
closed = 1;
nodes = (
"132 859 OFFCURVE",
"111 845 OFFCURVE",
"94 811 CURVE SMOOTH",
"10 642 LINE",
"41 630 LINE",
"163 746 LINE",
"285 630 LINE",
"316 642 LINE",
"230 811 LINE SMOOTH",
"212 846 OFFCURVE",
"195 859 OFFCURVE",
"164 859 CURVE SMOOTH"
);
}
);
width = 326;
},
{
anchors = (
{
name = _top;
position = "{141, 530}";
}
);
layerId = "AB50CDD9-E897-4D94-B806-C2DEA2F4ECD5";
paths = (
{
closed = 1;
nodes = (
"166 682 OFFCURVE",
"158 691 OFFCURVE",
"141 691 CURVE SMOOTH",
"126 691 OFFCURVE",
"116 684 OFFCURVE",
"110 670 CURVE SMOOTH",
"45 524 LINE",
"48 523 LINE",
"141 629 LINE",
"234 523 LINE",
"237 524 LINE",
"172 670 LINE SMOOTH"
);
}
);
width = 282;
}
);
unicode = 02C6;
},
{
glyphname = circumflex.cap;
lastChange = "2018-10-22 19:27:20 +0000";
layers = (
{
anchors = (
{
name = _topcap;
position = "{157, 830}";
}
);
layerId = master01;
paths = (
{
closed = 1;
nodes = (
"132 960 OFFCURVE",
"121 950 OFFCURVE",
"104 933 CURVE SMOOTH",
"10 837 LINE",
"30 820 LINE",
"157 878 LINE",
"286 820 LINE",
"305 837 LINE",
"212 933 LINE SMOOTH",
"193 952 OFFCURVE",
"180 960 OFFCURVE",
"157 960 CURVE SMOOTH"
);
}
);
width = 315;
},
{
anchors = (
{
name = _topcap;
position = "{183, 830}";
}
);
layerId = "FA6D65B5-4623-4FAC-A199-3F662257AC29";
paths = (
{
closed = 1;
nodes = (
"158 960 OFFCURVE",
"139 949 OFFCURVE",
"112 927 CURVE SMOOTH",
"10 843 LINE",
"26 821 LINE",
"183 862 LINE",
"340 821 LINE",
"356 843 LINE",
"252 927 LINE SMOOTH",
"225 949 OFFCURVE",
"206 960 OFFCURVE",
"184 960 CURVE SMOOTH"
);
}
);
width = 366;
},
{
layerId = "AB50CDD9-E897-4D94-B806-C2DEA2F4ECD5";
width = 600;
}
);
},
{
glyphname = colon;
lastChange = "2018-10-22 19:21:51 +0000";
layers = (
{
layerId = master01;
paths = (
{
closed = 1;
nodes = (
"73 364 OFFCURVE",
"100 333 OFFCURVE",
"141 333 CURVE SMOOTH",
"184 333 OFFCURVE",
"211 364 OFFCURVE",
"211 401 CURVE SMOOTH",
"211 441 OFFCURVE",
"184 471 OFFCURVE",
"141 471 CURVE SMOOTH",
"100 471 OFFCURVE",
"73 441 OFFCURVE",
"73 401 CURVE SMOOTH"
);
},
{
closed = 1;
nodes = (
"73 21 OFFCURVE",
"100 -10 OFFCURVE",
"141 -10 CURVE SMOOTH",
"184 -10 OFFCURVE",
"211 21 OFFCURVE",
"211 58 CURVE SMOOTH",
"211 98 OFFCURVE",
"184 128 OFFCURVE",
"141 128 CURVE SMOOTH",
"100 128 OFFCURVE",
"73 98 OFFCURVE",
"73 58 CURVE SMOOTH"
);
}
);
width = 284;
},
{
layerId = "FA6D65B5-4623-4FAC-A199-3F662257AC29";
paths = (
{
closed = 1;
nodes = (
"63 347 OFFCURVE",
"92 306 OFFCURVE",
"148 306 CURVE SMOOTH",
"207 306 OFFCURVE",
"237 347 OFFCURVE",
"237 388 CURVE SMOOTH",
"237 432 OFFCURVE",
"203 471 OFFCURVE",
"148 471 CURVE SMOOTH",
"94 471 OFFCURVE",
"63 432 OFFCURVE",
"63 388 CURVE SMOOTH"
);
},
{
closed = 1;
nodes = (
"63 31 OFFCURVE",
"92 -10 OFFCURVE",
"148 -10 CURVE SMOOTH",
"207 -10 OFFCURVE",
"237 31 OFFCURVE",
"237 72 CURVE SMOOTH",
"237 116 OFFCURVE",
"203 155 OFFCURVE",
"148 155 CURVE SMOOTH",
"94 155 OFFCURVE",
"63 116 OFFCURVE",
"63 72 CURVE SMOOTH"
);
}
);
width = 300;
},
{
layerId = "AB50CDD9-E897-4D94-B806-C2DEA2F4ECD5";
paths = (
{
closed = 1;
nodes = (
"65 19 OFFCURVE",
"86 -4 OFFCURVE",
"117 -4 CURVE SMOOTH",
"148 -4 OFFCURVE",
"168 19 OFFCURVE",
"168 48 CURVE SMOOTH",
"168 77 OFFCURVE",
"148 99 OFFCURVE",
"117 99 CURVE SMOOTH",
"86 99 OFFCURVE",
"65 77 OFFCURVE",
"65 48 CURVE SMOOTH"
);
},
{
closed = 1;
nodes = (
"65 329 OFFCURVE",
"86 306 OFFCURVE",
"117 306 CURVE SMOOTH",
"148 306 OFFCURVE",
"168 329 OFFCURVE",
"168 358 CURVE SMOOTH",
"168 387 OFFCURVE",
"148 409 OFFCURVE",
"117 409 CURVE SMOOTH",
"86 409 OFFCURVE",
"65 387 OFFCURVE",
"65 358 CURVE SMOOTH"
);
}
);
width = 233;
}
);
leftKerningGroup = colon;
rightKerningGroup = colon;
unicode = 003A;
},
{
glyphname = colon.tnum;
lastChange = "2018-10-22 19:27:20 +0000";
layers = (
{
layerId = master01;
paths = (
{
closed = 1;
nodes = (
"81 364 OFFCURVE",
"108 333 OFFCURVE",
"149 333 CURVE SMOOTH",
"192 333 OFFCURVE",
"219 364 OFFCURVE",
"219 401 CURVE SMOOTH",
"219 441 OFFCURVE",
"192 471 OFFCURVE",
"149 471 CURVE SMOOTH",
"108 471 OFFCURVE",
"81 441 OFFCURVE",
"81 401 CURVE SMOOTH"
);
},
{
closed = 1;
nodes = (
"81 21 OFFCURVE",
"108 -10 OFFCURVE",
"149 -10 CURVE SMOOTH",
"192 -10 OFFCURVE",
"219 21 OFFCURVE",
"219 58 CURVE SMOOTH",
"219 98 OFFCURVE",
"192 128 OFFCURVE",
"149 128 CURVE SMOOTH",
"108 128 OFFCURVE",
"81 98 OFFCURVE",
"81 58 CURVE SMOOTH"
);
}
);
width = 300;
},
{
layerId = "FA6D65B5-4623-4FAC-A199-3F662257AC29";
paths = (
{
closed = 1;
nodes = (
"63 347 OFFCURVE",
"92 306 OFFCURVE",
"148 306 CURVE SMOOTH",
"207 306 OFFCURVE",
"237 347 OFFCURVE",
"237 388 CURVE SMOOTH",
"237 432 OFFCURVE",
"203 471 OFFCURVE",
"148 471 CURVE SMOOTH",
"94 471 OFFCURVE",
"63 432 OFFCURVE",
"63 388 CURVE SMOOTH"
);
},
{
closed = 1;
nodes = (
"63 31 OFFCURVE",
"92 -10 OFFCURVE",
"148 -10 CURVE SMOOTH",
"207 -10 OFFCURVE",
"237 31 OFFCURVE",
"237 72 CURVE SMOOTH",
"237 116 OFFCURVE",
"203 155 OFFCURVE",
"148 155 CURVE SMOOTH",
"94 155 OFFCURVE",
"63 116 OFFCURVE",
"63 72 CURVE SMOOTH"
);
}
);
width = 300;
},
{
layerId = "AB50CDD9-E897-4D94-B806-C2DEA2F4ECD5";
width = 600;
}
);
userData = {
com.typemytype.robofont.mark = (
1,
0.6,
0.6,
1
);
};
},
{
glyphname = comma;
lastChange = "2018-10-22 19:21:51 +0000";
layers = (
{
layerId = master01;
paths = (
{
closed = 1;
nodes = (
"164 -101 OFFCURVE",
"200 -38 OFFCURVE",
"200 43 CURVE SMOOTH",
"200 89 OFFCURVE",
"172 128 OFFCURVE",
"129 128 CURVE SMOOTH",
"91 128 OFFCURVE",
"62 99 OFFCURVE",
"62 61 CURVE SMOOTH",
"62 0 OFFCURVE",
"137 11 OFFCURVE",
"137 -36 CURVE SMOOTH",
"137 -59 OFFCURVE",
"112 -94 OFFCURVE",
"75 -122 CURVE",
"95 -151 LINE"
);
}
);
width = 263;
},
{
layerId = "FA6D65B5-4623-4FAC-A199-3F662257AC29";
paths = (
{
closed = 1;
nodes = (
"176 -115 OFFCURVE",
"225 -39 OFFCURVE",
"225 47 CURVE SMOOTH",
"225 120 OFFCURVE",
"191 165 OFFCURVE",
"136 165 CURVE SMOOTH",
"87 165 OFFCURVE",
"51 132 OFFCURVE",
"51 87 CURVE SMOOTH",
"51 15 OFFCURVE",
"145 22 OFFCURVE",
"145 -25 CURVE SMOOTH",
"145 -52 OFFCURVE",
"113 -94 OFFCURVE",
"69 -126 CURVE",
"93 -159 LINE"
);
}
);
width = 277;
},
{
layerId = "AB50CDD9-E897-4D94-B806-C2DEA2F4ECD5";
paths = (
{
closed = 1;
nodes = (
"138 -113 OFFCURVE",
"171 -51 OFFCURVE",
"171 20 CURVE SMOOTH",
"171 72 OFFCURVE",
"146 99 OFFCURVE",
"111 99 CURVE SMOOTH",
"84 99 OFFCURVE",
"64 78 OFFCURVE",
"64 48 CURVE SMOOTH",
"64 -1 OFFCURVE",
"123 5 OFFCURVE",
"123 -52 CURVE SMOOTH",
"123 -85 OFFCURVE",
"102 -128 OFFCURVE",
"73 -156 CURVE",
"77 -161 LINE"
);
}
);
width = 234;
}
);
leftKerningGroup = period;
rightKerningGroup = period;
unicode = 002C;
},
{
glyphname = comma.tnum;
lastChange = "2018-10-22 19:27:20 +0000";
layers = (
{
layerId = master01;
paths = (
{
closed = 1;
nodes = (
"183 -101 OFFCURVE",
"219 -38 OFFCURVE",
"219 43 CURVE SMOOTH",
"219 89 OFFCURVE",
"191 128 OFFCURVE",
"148 128 CURVE SMOOTH",
"110 128 OFFCURVE",
"81 99 OFFCURVE",
"81 61 CURVE SMOOTH",
"81 0 OFFCURVE",
"156 11 OFFCURVE",
"156 -36 CURVE SMOOTH",
"156 -59 OFFCURVE",
"131 -94 OFFCURVE",
"94 -122 CURVE",
"114 -151 LINE"
);
}
);
width = 300;
},
{
layerId = "FA6D65B5-4623-4FAC-A199-3F662257AC29";
paths = (
{
closed = 1;
nodes = (
"188 -115 OFFCURVE",
"237 -39 OFFCURVE",
"237 47 CURVE SMOOTH",
"237 120 OFFCURVE",
"203 165 OFFCURVE",
"148 165 CURVE SMOOTH",
"99 165 OFFCURVE",
"63 132 OFFCURVE",
"63 87 CURVE SMOOTH",
"63 15 OFFCURVE",
"157 22 OFFCURVE",
"157 -25 CURVE SMOOTH",
"157 -52 OFFCURVE",
"125 -94 OFFCURVE",
"81 -126 CURVE",
"105 -159 LINE"
);
}
);
width = 300;
},
{
layerId = "AB50CDD9-E897-4D94-B806-C2DEA2F4ECD5";
width = 600;
}
);
userData = {
com.typemytype.robofont.mark = (
1,
0.6,
0.6,
1
);
};
},
{
glyphname = commaaccent;
lastChange = "2018-10-22 19:21:51 +0000";
layers = (
{
anchors = (
{
name = _bottom;
position = "{66, -10}";
}
);
layerId = master01;
paths = (
{
closed = 1;
nodes = (
"90 -222 OFFCURVE",
"120 -177 OFFCURVE",
"120 -120 CURVE SMOOTH",
"120 -84 OFFCURVE",
"98 -54 OFFCURVE",
"66 -54 CURVE SMOOTH",
"34 -54 OFFCURVE",
"10 -76 OFFCURVE",
"10 -105 CURVE SMOOTH",
"10 -152 OFFCURVE",
"59 -144 OFFCURVE",
"59 -180 CURVE SMOOTH",
"59 -193 OFFCURVE",
"41 -215 OFFCURVE",
"16 -232 CURVE",
"32 -256 LINE"
);
}
);
width = 130;
},
{
anchors = (
{
name = _bottom;
position = "{77, 0}";
}
);
layerId = "FA6D65B5-4623-4FAC-A199-3F662257AC29";
paths = (
{
closed = 1;
nodes = (
"109 -233 OFFCURVE",
"145 -186 OFFCURVE",
"145 -130 CURVE SMOOTH",
"145 -82 OFFCURVE",
"119 -52 OFFCURVE",
"77 -52 CURVE SMOOTH",
"38 -52 OFFCURVE",
"10 -75 OFFCURVE",
"10 -105 CURVE SMOOTH",
"10 -148 OFFCURVE",
"57 -149 OFFCURVE",
"57 -178 CURVE SMOOTH",
"57 -193 OFFCURVE",
"43 -217 OFFCURVE",
"23 -236 CURVE",
"46 -260 LINE"
);
}
);
width = 155;
},
{
anchors = (
{
name = _bottom;
position = "{82, 0}";
}
);
layerId = "AB50CDD9-E897-4D94-B806-C2DEA2F4ECD5";
paths = (
{
closed = 1;
nodes = (
"96 -224 OFFCURVE",
"119 -184 OFFCURVE",
"119 -142 CURVE SMOOTH",
"119 -106 OFFCURVE",
"102 -82 OFFCURVE",
"77 -82 CURVE SMOOTH",
"58 -82 OFFCURVE",
"45 -96 OFFCURVE",
"45 -116 CURVE SMOOTH",
"45 -150 OFFCURVE",
"83 -150 OFFCURVE",
"83 -187 CURVE SMOOTH",
"83 -208 OFFCURVE",
"70 -234 OFFCURVE",
"50 -249 CURVE",
"54 -254 LINE"
);
}
);
width = 164;
}
);
unicode = F6C3;
},
{
glyphname = copyright;
lastChange = "2018-10-22 19:21:51 +0000";
layers = (
{
layerId = master01;
paths = (
{
closed = 1;
nodes = (
"54 168 OFFCURVE",
"232 -10 OFFCURVE",
"451 -10 CURVE SMOOTH",
"670 -10 OFFCURVE",
"848 168 OFFCURVE",
"848 385 CURVE SMOOTH",
"848 602 OFFCURVE",
"670 780 OFFCURVE",
"451 780 CURVE SMOOTH",
"232 780 OFFCURVE",
"54 602 OFFCURVE",
"54 385 CURVE SMOOTH"
);
},
{
closed = 1;
nodes = (
"106 576 OFFCURVE",
"258 735 OFFCURVE",
"451 735 CURVE SMOOTH",
"644 735 OFFCURVE",
"795 576 OFFCURVE",
"795 385 CURVE SMOOTH",
"795 194 OFFCURVE",
"644 35 OFFCURVE",
"451 35 CURVE SMOOTH",
"258 35 OFFCURVE",
"106 194 OFFCURVE",
"106 385 CURVE SMOOTH"
);
},
{
closed = 1;
nodes = (
"230 253 OFFCURVE",
"320 161 OFFCURVE",
"447 161 CURVE SMOOTH",
"498 161 OFFCURVE",
"534 176 OFFCURVE",
"573 208 CURVE",
"599 162 LINE",
"613 162 LINE",
"613 323 LINE",
"593 323 LINE",
"587 292 OFFCURVE",
"576 267 OFFCURVE",
"563 248 CURVE SMOOTH",
"538 212 OFFCURVE",
"504 195 OFFCURVE",
"462 195 CURVE SMOOTH",
"375 195 OFFCURVE",
"325 266 OFFCURVE",
"325 391 CURVE SMOOTH",
"325 513 OFFCURVE",
"372 582 OFFCURVE",
"464 582 CURVE SMOOTH",
"511 582 OFFCURVE",
"544 564 OFFCURVE",
"569 522 CURVE SMOOTH",
"578 507 OFFCURVE",
"584 494 OFFCURVE",
"591 472 CURVE",
"613 472 LINE",
"613 615 LINE",
"599 615 LINE",
"575 577 LINE",
"571 577 LINE",
"536 603 OFFCURVE",
"495 617 OFFCURVE",
"448 617 CURVE SMOOTH",
"323 617 OFFCURVE",
"230 520 OFFCURVE",
"230 385 CURVE SMOOTH"
);
}
);
width = 902;
},
{
layerId = "FA6D65B5-4623-4FAC-A199-3F662257AC29";
paths = (
{
closed = 1;
nodes = (
"46 168 OFFCURVE",
"224 -10 OFFCURVE",
"443 -10 CURVE SMOOTH",
"662 -10 OFFCURVE",
"840 168 OFFCURVE",
"840 385 CURVE SMOOTH",
"840 602 OFFCURVE",
"662 780 OFFCURVE",
"443 780 CURVE SMOOTH",
"224 780 OFFCURVE",
"46 602 OFFCURVE",
"46 385 CURVE SMOOTH"
);
},
{
closed = 1;
nodes = (
"111 568 OFFCURVE",
"259 720 OFFCURVE",
"443 720 CURVE SMOOTH",
"628 720 OFFCURVE",
"774 568 OFFCURVE",
"774 385 CURVE SMOOTH",
"774 202 OFFCURVE",
"628 50 OFFCURVE",
"443 50 CURVE SMOOTH",
"259 50 OFFCURVE",
"111 202 OFFCURVE",
"111 385 CURVE SMOOTH"
);
},
{
closed = 1;
nodes = (
"245 270 OFFCURVE",
"326 191 OFFCURVE",
"440 191 CURVE SMOOTH",
"486 191 OFFCURVE",
"519 204 OFFCURVE",
"554 233 CURVE",
"577 192 LINE",
"590 192 LINE",
"590 345 LINE",
"564 345 LINE",
"558 317 OFFCURVE",
"548 294 OFFCURVE",
"537 277 CURVE SMOOTH",
"517 246 OFFCURVE",
"489 230 OFFCURVE",
"454 230 CURVE SMOOTH",
"386 230 OFFCURVE",
"347 287 OFFCURVE",
"347 390 CURVE SMOOTH",
"347 490 OFFCURVE",
"384 545 OFFCURVE",
"456 545 CURVE SMOOTH",
"494 545 OFFCURVE",
"519 530 OFFCURVE",
"542 492 CURVE SMOOTH",
"554 472 OFFCURVE",
"558 460 OFFCURVE",
"562 446 CURVE",
"590 446 LINE",
"590 583 LINE",
"577 583 LINE",
"556 549 LINE",
"552 549 LINE",
"521 572 OFFCURVE",
"484 585 OFFCURVE",
"440 585 CURVE SMOOTH",
"329 585 OFFCURVE",
"245 501 OFFCURVE",
"245 384 CURVE SMOOTH"
);
}
);
width = 886;
},
{
layerId = "AB50CDD9-E897-4D94-B806-C2DEA2F4ECD5";
paths = (
{
closed = 1;
nodes = (
"534 187 OFFCURVE",
"548 230 OFFCURVE",
"557 268 CURVE",
"568 267 LINE",
"568 111 LINE",
"557 111 LINE",
"534 148 LINE",
"494 119 OFFCURVE",
"444 100 OFFCURVE",
"399 100 CURVE SMOOTH",
"277 100 OFFCURVE",
"181 207 OFFCURVE",
"181 345 CURVE SMOOTH",
"181 482 OFFCURVE",
"277 590 OFFCURVE",
"397 590 CURVE SMOOTH",
"438 590 OFFCURVE",
"479 578 OFFCURVE",
"532 549 CURVE",
"548 582 LINE",
"559 582 LINE",
"566 429 LINE",
"554 426 LINE",
"548 460 OFFCURVE",
"538 490 OFFCURVE",
"524 513 CURVE SMOOTH",
"497 555 OFFCURVE",
"452 578 OFFCURVE",
"399 578 CURVE SMOOTH",
"306 578 OFFCURVE",
"254 493 OFFCURVE",
"254 345 CURVE SMOOTH",
"254 198 OFFCURVE",
"307 113 OFFCURVE",
"399 113 CURVE SMOOTH",
"440 113 OFFCURVE",
"481 131 OFFCURVE",
"507 157 CURVE SMOOTH"
);
},
{
closed = 1;
nodes = (
"53 151 OFFCURVE",
"211 -10 OFFCURVE",
"404 -10 CURVE SMOOTH",
"597 -10 OFFCURVE",
"755 151 OFFCURVE",
"755 344 CURVE SMOOTH",
"755 537 OFFCURVE",
"597 700 OFFCURVE",
"404 700 CURVE SMOOTH",
"211 700 OFFCURVE",
"53 537 OFFCURVE",
"53 344 CURVE SMOOTH"
);
},
{
closed = 1;
nodes = (
"69 529 OFFCURVE",
"217 684 OFFCURVE",
"404 684 CURVE SMOOTH",
"588 684 OFFCURVE",
"739 529 OFFCURVE",
"739 344 CURVE SMOOTH",
"739 157 OFFCURVE",
"588 6 OFFCURVE",
"404 6 CURVE SMOOTH",
"217 6 OFFCURVE",
"69 157 OFFCURVE",
"69 344 CURVE SMOOTH"
);
}
);
width = 808;
}
);
unicode = 00A9;
},
{
glyphname = currency;
lastChange = "2018-10-22 19:21:51 +0000";
layers = (
{
layerId = master01;
paths = (
{
closed = 1;
nodes = (
"77 175 LINE",
"144 241 LINE",
"116 275 OFFCURVE",
"102 319 OFFCURVE",
"102 368 CURVE SMOOTH",
"102 416 OFFCURVE",
"116 458 OFFCURVE",
"144 494 CURVE",
"77 559 LINE",
"125 607 LINE",
"191 540 LINE",
"225 567 OFFCURVE",
"269 582 OFFCURVE",
"317 582 CURVE SMOOTH",
"363 582 OFFCURVE",
"406 568 OFFCURVE",
"444 541 CURVE",
"509 607 LINE",
"557 559 LINE",
"490 493 LINE",
"518 458 OFFCURVE",
"532 416 OFFCURVE",
"532 368 CURVE SMOOTH",
"532 321 OFFCURVE",
"518 278 OFFCURVE",
"491 241 CURVE",
"557 175 LINE",
"509 127 LINE",
"443 194 LINE",
"408 166 OFFCURVE",
"366 152 OFFCURVE",
"317 152 CURVE SMOOTH",
"269 152 OFFCURVE",
"227 166 OFFCURVE",
"191 194 CURVE",
"125 127 LINE"
);
},
{
closed = 1;
nodes = (
"396 216 OFFCURVE",
"462 284 OFFCURVE",
"462 367 CURVE SMOOTH",
"462 450 OFFCURVE",
"396 518 OFFCURVE",
"317 518 CURVE SMOOTH",
"238 518 OFFCURVE",
"172 450 OFFCURVE",
"172 368 CURVE SMOOTH",
"172 285 OFFCURVE",
"238 216 OFFCURVE",
"317 216 CURVE SMOOTH"
);
}
);
width = 634;
},
{
layerId = "FA6D65B5-4623-4FAC-A199-3F662257AC29";
paths = (
{
closed = 1;
nodes = (
"68 178 LINE",
"135 244 LINE",
"109 276 OFFCURVE",
"96 319 OFFCURVE",
"96 368 CURVE SMOOTH",
"96 415 OFFCURVE",
"109 456 OFFCURVE",
"135 491 CURVE",
"68 556 LINE",
"122 610 LINE",
"188 543 LINE",
"221 568 OFFCURVE",
"264 582 OFFCURVE",
"311 582 CURVE SMOOTH",
"356 582 OFFCURVE",
"398 569 OFFCURVE",
"435 544 CURVE",
"500 610 LINE",
"554 556 LINE",
"487 490 LINE",
"513 456 OFFCURVE",
"526 415 OFFCURVE",
"526 368 CURVE SMOOTH",
"526 322 OFFCURVE",
"513 280 OFFCURVE",
"488 244 CURVE",
"554 178 LINE",
"500 124 LINE",
"434 191 LINE",
"400 165 OFFCURVE",
"359 152 OFFCURVE",
"311 152 CURVE SMOOTH",
"264 152 OFFCURVE",
"223 165 OFFCURVE",
"188 191 CURVE",
"122 124 LINE"
);
},
{
closed = 1;
nodes = (
"387 221 OFFCURVE",
"451 287 OFFCURVE",
"451 367 CURVE SMOOTH",
"451 447 OFFCURVE",
"387 513 OFFCURVE",
"311 513 CURVE SMOOTH",
"235 513 OFFCURVE",
"171 447 OFFCURVE",
"171 368 CURVE SMOOTH",
"171 288 OFFCURVE",
"235 221 OFFCURVE",
"311 221 CURVE SMOOTH"
);
}
);
width = 622;
},
{
layerId = "AB50CDD9-E897-4D94-B806-C2DEA2F4ECD5";
paths = (
{
closed = 1;
nodes = (
"96 238 OFFCURVE",
"185 149 OFFCURVE",
"294 149 CURVE SMOOTH",
"403 149 OFFCURVE",
"492 238 OFFCURVE",
"492 347 CURVE SMOOTH",
"492 456 OFFCURVE",
"403 545 OFFCURVE",
"294 545 CURVE SMOOTH",
"185 545 OFFCURVE",
"96 456 OFFCURVE",
"96 347 CURVE SMOOTH"
);
},
{
closed = 1;
nodes = (
"115 445 OFFCURVE",
"195 525 OFFCURVE",
"294 525 CURVE SMOOTH",
"393 525 OFFCURVE",
"473 445 OFFCURVE",
"473 347 CURVE SMOOTH",
"473 248 OFFCURVE",
"393 168 OFFCURVE",
"294 168 CURVE SMOOTH",
"195 168 OFFCURVE",
"115 248 OFFCURVE",
"115 347 CURVE SMOOTH"
);
},
{
closed = 1;
nodes = (
"498 566 LINE",
"419 487 LINE",
"435 473 LINE",
"513 551 LINE"
);
},
{
closed = 1;
nodes = (
"91 129 LINE",
"165 203 LINE",
"153 221 LINE",
"76 144 LINE"
);
},
{
closed = 1;
nodes = (
"75 551 LINE",
"154 472 LINE",
"168 488 LINE",
"90 566 LINE"
);
},
{
closed = 1;
nodes = (
"512 144 LINE",
"438 218 LINE",
"420 206 LINE",
"497 129 LINE"
);
}
);
width = 588;
}
);
unicode = 00A4;
},
{
glyphname = d;
lastChange = "2018-10-22 19:21:51 +0000";
layers = (
{
anchors = (
{
name = bottom;
position = "{254, 0}";
}
);
layerId = master01;
paths = (
{
closed = 1;
nodes = (
"320 -10 OFFCURVE",
"379 19 OFFCURVE",
"421 78 CURVE",
"425 76 LINE",
"425 -10 LINE",
"432 -10 LINE",
"580 52 LINE",
"580 63 LINE",
"512 78 LINE",
"512 830 LINE",
"502 830 LINE",
"345 781 LINE",
"345 768 LINE",
"418 740 LINE",
"418 525 LINE",
"383 535 OFFCURVE",
"345 540 OFFCURVE",
"310 540 CURVE SMOOTH",
"154 540 OFFCURVE",
"47 424 OFFCURVE",
"47 256 CURVE SMOOTH",
"47 103 OFFCURVE",
"136 -10 OFFCURVE",
"254 -10 CURVE SMOOTH"
);
},
{
closed = 1;
nodes = (
"206 55 OFFCURVE",
"152 138 OFFCURVE",
"152 272 CURVE SMOOTH",
"152 416 OFFCURVE",
"215 510 OFFCURVE",
"308 510 CURVE SMOOTH",
"380 510 OFFCURVE",
"418 472 OFFCURVE",
"418 400 CURVE SMOOTH",
"418 114 LINE",
"395 78 OFFCURVE",
"348 55 OFFCURVE",
"296 55 CURVE SMOOTH"
);
}
);
width = 607;
},
{
layerId = "FA6D65B5-4623-4FAC-A199-3F662257AC29";
paths = (
{
closed = 1;
nodes = (
"330 -10 OFFCURVE",
"388 13 OFFCURVE",
"429 53 CURVE",
"434 51 LINE",
"434 -10 LINE",
"452 -10 LINE",
"660 52 LINE",
"660 73 LINE",
"581 98 LINE",
"581 830 LINE",
"559 830 LINE",
"341 781 LINE",
"341 758 LINE",
"426 730 LINE",
"426 515 LINE",
"388 532 OFFCURVE",
"348 540 OFFCURVE",
"310 540 CURVE SMOOTH",
"149 540 OFFCURVE",
"37 424 OFFCURVE",
"37 256 CURVE SMOOTH",
"37 103 OFFCURVE",
"137 -10 OFFCURVE",
"265 -10 CURVE SMOOTH"
);
},
{
closed = 1;
nodes = (
"252 62 OFFCURVE",
"208 144 OFFCURVE",
"208 273 CURVE SMOOTH",
"208 400 OFFCURVE",
"256 486 OFFCURVE",
"330 486 CURVE SMOOTH",
"388 486 OFFCURVE",
"426 436 OFFCURVE",
"426 362 CURVE SMOOTH",
"426 114 LINE",
"402 82 OFFCURVE",
"369 62 OFFCURVE",
"329 62 CURVE SMOOTH"
);
}
);
width = 674;
},
{
anchors = (
{
name = bottom;
position = "{206, 0}";
}
);
layerId = "AB50CDD9-E897-4D94-B806-C2DEA2F4ECD5";
paths = (
{
closed = 1;
nodes = (
"111 -10 OFFCURVE",
"40 81 OFFCURVE",
"40 204 CURVE SMOOTH",
"40 340 OFFCURVE",
"126 434 OFFCURVE",
"252 434 CURVE SMOOTH",
"278 434 OFFCURVE",
"304 430 OFFCURVE",
"330 422 CURVE",
"330 653 LINE",
"271 675 LINE",
"271 682 LINE",
"387 721 LINE",
"395 721 LINE",
"395 62 LINE",
"450 50 LINE",
"450 45 LINE",
"341 -5 LINE",
"335 -5 LINE",
"335 63 LINE",
"332 64 LINE",
"301 16 OFFCURVE",
"257 -10 OFFCURVE",
"206 -10 CURVE SMOOTH {name = hr00;}"
);
},
{
closed = 1;
nodes = (
"279 30 OFFCURVE",
"313 47 OFFCURVE",
"330 77 CURVE",
"330 333 LINE SMOOTH",
"330 392 OFFCURVE",
"302 424 OFFCURVE",
"251 424 CURVE SMOOTH",
"166 424 OFFCURVE",
"111 341 OFFCURVE",
"111 218 CURVE SMOOTH",
"111 102 OFFCURVE",
"159 30 OFFCURVE",
"241 30 CURVE SMOOTH"
);
}
);
width = 472;
}
);
leftKerningGroup = d;
rightKerningGroup = d;
unicode = 0064;
},
{
glyphname = dagger;
lastChange = "2018-10-22 19:21:51 +0000";
layers = (
{
layerId = master01;
paths = (
{
closed = 1;
nodes = (
"222 90 OFFCURVE",
"210 206 OFFCURVE",
"185 311 CURVE",
"205 379 OFFCURVE",
"217 461 OFFCURVE",
"228 574 CURVE",
"139 574 OFFCURVE",
"120 548 OFFCURVE",
"83 548 CURVE SMOOTH",
"53 548 OFFCURVE",
"30 568 OFFCURVE",
"30 595 CURVE SMOOTH",
"30 621 OFFCURVE",
"53 639 OFFCURVE",
"84 639 CURVE SMOOTH",
"98 639 OFFCURVE",
"105 637 OFFCURVE",
"153 619 CURVE SMOOTH",
"174 611 OFFCURVE",
"208 603 OFFCURVE",
"228 600 CURVE",
"228 612 LINE SMOOTH",
"228 679 OFFCURVE",
"198 739 OFFCURVE",
"198 779 CURVE SMOOTH",
"198 810 OFFCURVE",
"215 829 OFFCURVE",
"242 829 CURVE SMOOTH",
"271 829 OFFCURVE",
"288 810 OFFCURVE",
"288 779 CURVE SMOOTH",
"288 740 OFFCURVE",
"258 678 OFFCURVE",
"258 612 CURVE SMOOTH",
"258 600 LINE",
"268 601 OFFCURVE",
"298 609 OFFCURVE",
"329 619 CURVE SMOOTH",
"385 638 OFFCURVE",
"390 639 OFFCURVE",
"402 639 CURVE SMOOTH",
"434 639 OFFCURVE",
"456 620 OFFCURVE",
"456 594 CURVE SMOOTH",
"456 568 OFFCURVE",
"434 548 OFFCURVE",
"404 548 CURVE SMOOTH",
"366 548 OFFCURVE",
"347 574 OFFCURVE",
"258 574 CURVE",
"266 466 OFFCURVE",
"279 384 OFFCURVE",
"301 311 CURVE",
"274 205 OFFCURVE",
"262 88 OFFCURVE",
"254 -136 CURVE",
"232 -136 LINE"
);
}
);
width = 486;
},
{
layerId = "FA6D65B5-4623-4FAC-A199-3F662257AC29";
paths = (
{
closed = 1;
nodes = (
"217 90 OFFCURVE",
"202 206 OFFCURVE",
"170 311 CURVE",
"193 376 OFFCURVE",
"209 454 OFFCURVE",
"221 562 CURVE",
"139 562 OFFCURVE",
"122 538 OFFCURVE",
"88 538 CURVE SMOOTH",
"55 538 OFFCURVE",
"30 560 OFFCURVE",
"30 590 CURVE SMOOTH",
"30 619 OFFCURVE",
"55 639 OFFCURVE",
"89 639 CURVE SMOOTH",
"101 639 OFFCURVE",
"116 635 OFFCURVE",
"158 619 CURVE SMOOTH",
"176 612 OFFCURVE",
"204 603 OFFCURVE",
"221 600 CURVE",
"221 612 LINE SMOOTH",
"221 677 OFFCURVE",
"198 735 OFFCURVE",
"198 774 CURVE SMOOTH",
"198 808 OFFCURVE",
"217 829 OFFCURVE",
"247 829 CURVE SMOOTH",
"279 829 OFFCURVE",
"298 808 OFFCURVE",
"298 774 CURVE SMOOTH",
"298 736 OFFCURVE",
"275 676 OFFCURVE",
"275 612 CURVE SMOOTH",
"275 602 LINE",
"283 603 OFFCURVE",
"309 610 OFFCURVE",
"334 619 CURVE SMOOTH",
"381 635 OFFCURVE",
"396 639 OFFCURVE",
"407 639 CURVE SMOOTH",
"442 639 OFFCURVE",
"466 618 OFFCURVE",
"466 589 CURVE SMOOTH",
"466 560 OFFCURVE",
"442 538 OFFCURVE",
"409 538 CURVE SMOOTH",
"374 538 OFFCURVE",
"357 562 OFFCURVE",
"275 562 CURVE",
"285 459 OFFCURVE",
"301 381 OFFCURVE",
"326 311 CURVE",
"293 205 OFFCURVE",
"277 88 OFFCURVE",
"267 -136 CURVE",
"229 -136 LINE"
);
}
);
width = 495;
},
{
layerId = "AB50CDD9-E897-4D94-B806-C2DEA2F4ECD5";
paths = (
{
closed = 1;
nodes = (
"184 92 OFFCURVE",
"177 211 OFFCURVE",
"160 315 CURVE",
"173 367 OFFCURVE",
"181 433 OFFCURVE",
"188 525 CURVE",
"120 525 OFFCURVE",
"106 503 OFFCURVE",
"73 503 CURVE SMOOTH",
"53 503 OFFCURVE",
"40 516 OFFCURVE",
"40 534 CURVE SMOOTH",
"40 551 OFFCURVE",
"53 563 OFFCURVE",
"73 563 CURVE SMOOTH",
"106 563 OFFCURVE",
"120 538 OFFCURVE",
"188 538 CURVE",
"188 548 LINE SMOOTH",
"188 611 OFFCURVE",
"160 635 OFFCURVE",
"160 666 CURVE SMOOTH",
"160 691 OFFCURVE",
"173 706 OFFCURVE",
"195 706 CURVE SMOOTH",
"218 706 OFFCURVE",
"232 691 OFFCURVE",
"232 666 CURVE SMOOTH",
"232 638 OFFCURVE",
"205 610 OFFCURVE",
"205 548 CURVE SMOOTH",
"205 538 LINE",
"273 538 OFFCURVE",
"287 563 OFFCURVE",
"320 563 CURVE SMOOTH",
"340 563 OFFCURVE",
"353 551 OFFCURVE",
"353 534 CURVE SMOOTH",
"353 516 OFFCURVE",
"340 503 OFFCURVE",
"320 503 CURVE SMOOTH",
"287 503 OFFCURVE",
"273 525 OFFCURVE",
"205 525 CURVE",
"210 438 OFFCURVE",
"218 371 OFFCURVE",
"232 315 CURVE",
"215 210 OFFCURVE",
"206 90 OFFCURVE",
"201 -136 CURVE",
"191 -136 LINE"
);
}
);
width = 393;
}
);
unicode = 2020;
},
